<svg xmlns="http://www.w3.org/2000/svg" xmlns:xlink="http://www.w3.org/1999/xlink" width="500" zoomAndPan="magnify" viewBox="0 0 375 374.999991" height="500" preserveAspectRatio="xMidYMid meet" version="1.0"><defs><g/><clipPath id="d6c7ae10c2"><path d="M 40.902344 40.902344 L 334.097656 40.902344 L 334.097656 334.097656 L 40.902344 334.097656 Z M 40.902344 40.902344 " clip-rule="nonzero"/></clipPath><clipPath id="cf36fd0a1b"><path d="M 187.5 40.902344 C 106.535156 40.902344 40.902344 106.535156 40.902344 187.5 C 40.902344 268.464844 106.535156 334.097656 187.5 334.097656 C 268.464844 334.097656 334.097656 268.464844 334.097656 187.5 C 334.097656 106.535156 268.464844 40.902344 187.5 40.902344 Z M 187.5 40.902344 " clip-rule="nonzero"/></clipPath><clipPath id="29be6b93b4"><path d="M 0.902344 0.902344 L 294.097656 0.902344 L 294.097656 294.097656 L 0.902344 294.097656 Z M 0.902344 0.902344 " clip-rule="nonzero"/></clipPath><clipPath id="4da31977d7"><path d="M 147.5 0.902344 C 66.535156 0.902344 0.902344 66.535156 0.902344 147.5 C 0.902344 228.464844 66.535156 294.097656 147.5 294.097656 C 228.464844 294.097656 294.097656 228.464844 294.097656 147.5 C 294.097656 66.535156 228.464844 0.902344 147.5 0.902344 Z M 147.5 0.902344 " clip-rule="nonzero"/></clipPath><clipPath id="5c5378cda1"><rect x="0" width="295" y="0" height="295"/></clipPath><clipPath id="0e2ef6cfc8"><path d="M 40.902344 40.902344 L 334.09375 40.902344 L 334.09375 334.09375 L 40.902344 334.09375 Z M 40.902344 40.902344 " clip-rule="nonzero"/></clipPath><clipPath id="beb006af0d"><path d="M 187.496094 40.902344 C 106.535156 40.902344 40.902344 106.535156 40.902344 187.496094 C 40.902344 268.460938 106.535156 334.09375 187.496094 334.09375 C 268.460938 334.09375 334.09375 268.460938 334.09375 187.496094 C 334.09375 106.535156 268.460938 40.902344 187.496094 40.902344 Z M 187.496094 40.902344 " clip-rule="nonzero"/></clipPath><clipPath id="1d5e26535b"><path d="M 48.652344 48.652344 L 326.347656 48.652344 L 326.347656 326.347656 L 48.652344 326.347656 Z M 48.652344 48.652344 " clip-rule="nonzero"/></clipPath><clipPath id="68b17973d7"><path d="M 187.5 48.652344 C 110.816406 48.652344 48.652344 110.816406 48.652344 187.5 C 48.652344 264.183594 110.816406 326.347656 187.5 326.347656 C 264.183594 326.347656 326.347656 264.183594 326.347656 187.5 C 326.347656 110.816406 264.183594 48.652344 187.5 48.652344 Z M 187.5 48.652344 " clip-rule="nonzero"/></clipPath><clipPath id="fcc9b5f647"><path d="M 0.652344 0.652344 L 278.347656 0.652344 L 278.347656 278.347656 L 0.652344 278.347656 Z M 0.652344 0.652344 " clip-rule="nonzero"/></clipPath><clipPath id="6d0e14623e"><path d="M 139.5 0.652344 C 62.816406 0.652344 0.652344 62.816406 0.652344 139.5 C 0.652344 216.183594 62.816406 278.347656 139.5 278.347656 C 216.183594 278.347656 278.347656 216.183594 278.347656 139.5 C 278.347656 62.816406 216.183594 0.652344 139.5 0.652344 Z M 139.5 0.652344 " clip-rule="nonzero"/></clipPath><clipPath id="2597c9b3e0"><rect x="0" width="279" y="0" height="279"/></clipPath><clipPath id="2416ffa40d"><path d="M 48.652344 48.652344 L 326.152344 48.652344 L 326.152344 326.152344 L 48.652344 326.152344 Z M 48.652344 48.652344 " clip-rule="nonzero"/></clipPath><clipPath id="8279dfc365"><path d="M 187.496094 48.652344 C 110.816406 48.652344 48.652344 110.816406 48.652344 187.496094 C 48.652344 264.179688 110.816406 326.339844 187.496094 326.339844 C 264.179688 326.339844 326.339844 264.179688 326.339844 187.496094 C 326.339844 110.816406 264.179688 48.652344 187.496094 48.652344 Z M 187.496094 48.652344 " clip-rule="nonzero"/></clipPath><clipPath id="e8c1906128"><path d="M 104.671875 104.671875 L 270.328125 104.671875 L 270.328125 270.328125 L 104.671875 270.328125 Z M 104.671875 104.671875 " clip-rule="nonzero"/></clipPath><clipPath id="3a5fe40779"><path d="M 187.5 104.671875 C 141.753906 104.671875 104.671875 141.753906 104.671875 187.5 C 104.671875 233.246094 141.753906 270.328125 187.5 270.328125 C 233.246094 270.328125 270.328125 233.246094 270.328125 187.5 C 270.328125 141.753906 233.246094 104.671875 187.5 104.671875 Z M 187.5 104.671875 " clip-rule="nonzero"/></clipPath><clipPath id="00ea2b1656"><path d="M 0.671875 0.671875 L 166.328125 0.671875 L 166.328125 166.328125 L 0.671875 166.328125 Z M 0.671875 0.671875 " clip-rule="nonzero"/></clipPath><clipPath id="3de3a07238"><path d="M 83.5 0.671875 C 37.753906 0.671875 0.671875 37.753906 0.671875 83.5 C 0.671875 129.246094 37.753906 166.328125 83.5 166.328125 C 129.246094 166.328125 166.328125 129.246094 166.328125 83.5 C 166.328125 37.753906 129.246094 0.671875 83.5 0.671875 Z M 83.5 0.671875 " clip-rule="nonzero"/></clipPath><clipPath id="a8212f8a2b"><rect x="0" width="167" y="0" height="167"/></clipPath><clipPath id="627bb78fd0"><path d="M 104.671875 104.671875 L 270.316406 104.671875 L 270.316406 270.316406 L 104.671875 270.316406 Z M 104.671875 104.671875 " clip-rule="nonzero"/></clipPath><clipPath id="83c9d5f034"><path d="M 187.496094 104.671875 C 141.753906 104.671875 104.671875 141.753906 104.671875 187.496094 C 104.671875 233.234375 141.753906 270.316406 187.496094 270.316406 C 233.234375 270.316406 270.316406 233.234375 270.316406 187.496094 C 270.316406 141.753906 233.234375 104.671875 187.496094 104.671875 Z M 187.496094 104.671875 " clip-rule="nonzero"/></clipPath><clipPath id="4a792ee992"><path d="M 109.214844 109.214844 L 265.785156 109.214844 L 265.785156 265.785156 L 109.214844 265.785156 Z M 109.214844 109.214844 " clip-rule="nonzero"/></clipPath><clipPath id="0ad38c7e39"><path d="M 187.5 109.214844 C 144.265625 109.214844 109.214844 144.265625 109.214844 187.5 C 109.214844 230.734375 144.265625 265.785156 187.5 265.785156 C 230.734375 265.785156 265.785156 230.734375 265.785156 187.5 C 265.785156 144.265625 230.734375 109.214844 187.5 109.214844 Z M 187.5 109.214844 " clip-rule="nonzero"/></clipPath><clipPath id="dd4fe2132f"><path d="M 0.214844 0.214844 L 156.785156 0.214844 L 156.785156 156.785156 L 0.214844 156.785156 Z M 0.214844 0.214844 " clip-rule="nonzero"/></clipPath><clipPath id="505d78a25b"><path d="M 78.5 0.214844 C 35.265625 0.214844 0.214844 35.265625 0.214844 78.5 C 0.214844 121.734375 35.265625 156.785156 78.5 156.785156 C 121.734375 156.785156 156.785156 121.734375 156.785156 78.5 C 156.785156 35.265625 121.734375 0.214844 78.5 0.214844 Z M 78.5 0.214844 " clip-rule="nonzero"/></clipPath><clipPath id="c739d09d0f"><rect x="0" width="157" y="0" height="157"/></clipPath><clipPath id="b73d3c553a"><path d="M 109.214844 109.214844 L 265.777344 109.214844 L 265.777344 265.777344 L 109.214844 265.777344 Z M 109.214844 109.214844 " clip-rule="nonzero"/></clipPath><clipPath id="3c9a7205a8"><path d="M 187.496094 109.214844 C 144.261719 109.214844 109.214844 144.261719 109.214844 187.496094 C 109.214844 230.730469 144.261719 265.777344 187.496094 265.777344 C 230.730469 265.777344 265.777344 230.730469 265.777344 187.496094 C 265.777344 144.261719 230.730469 109.214844 187.496094 109.214844 Z M 187.496094 109.214844 " clip-rule="nonzero"/></clipPath><clipPath id="de3d8e948e"><rect x="0" width="229" y="0" height="111"/></clipPath><clipPath id="b9c43a8a32"><path d="M 66 187.5 L 103 187.5 L 103 224.25 L 66 224.25 Z M 66 187.5 " clip-rule="nonzero"/></clipPath><clipPath id="6d28f9e305"><path d="M 273.722656 187.5 L 311 187.5 L 311 224.25 L 273.722656 224.25 Z M 273.722656 187.5 " clip-rule="nonzero"/></clipPath><clipPath id="9b7f4c6671"><path d="M 19 18 L 37.800781 18 L 37.800781 37 L 19 37 Z M 19 18 " clip-rule="nonzero"/></clipPath><clipPath id="ee1e85eb54"><path d="M 1 1 L 37.800781 1 L 37.800781 37 L 1 37 Z M 1 1 " clip-rule="nonzero"/></clipPath><clipPath id="02ec0e717c"><path d="M 2 3 L 37.800781 3 L 37.800781 37 L 2 37 Z M 2 3 " clip-rule="nonzero"/></clipPath><clipPath id="466d585240"><path d="M 0.722656 0.5 L 37.800781 0.5 L 37.800781 37.25 L 0.722656 37.25 Z M 0.722656 0.5 " clip-rule="nonzero"/></clipPath><clipPath id="6c25be9e5c"><rect x="0" width="38" y="0" height="38"/></clipPath><clipPath id="c76e59e9e1"><rect x="0" width="288" y="0" height="138"/></clipPath></defs><rect x="-37.5" width="450" fill="#ffffff" y="-37.499999" height="449.999989" fill-opacity="1"/><rect x="-37.5" width="450" fill="#ffffff" y="-37.499999" height="449.999989" fill-opacity="1"/><g clip-path="url(#d6c7ae10c2)"><g clip-path="url(#cf36fd0a1b)"><g transform="matrix(1, 0, 0, 1, 40, 40)"><g clip-path="url(#5c5378cda1)"><g clip-path="url(#29be6b93b4)"><g clip-path="url(#4da31977d7)"><path fill="#ffde59" d="M 0.902344 0.902344 L 294.097656 0.902344 L 294.097656 294.097656 L 0.902344 294.097656 Z M 0.902344 0.902344 " fill-opacity="1" fill-rule="nonzero"/></g></g></g></g></g></g><g clip-path="url(#0e2ef6cfc8)"><g clip-path="url(#beb006af0d)"><path stroke-linecap="butt" transform="matrix(0.75, 0, 0, 0.75, 40.901011, 40.901006)" fill="none" stroke-linejoin="miter" d="M 195.460124 0.00178351 C 87.5122 0.00178351 0.00177751 87.512206 0.00177751 195.46013 C 0.00177751 303.413262 87.5122 390.923684 195.460124 390.923684 C 303.413256 390.923684 390.923678 303.413262 390.923678 195.46013 C 390.923678 87.512206 303.413256 0.00178351 195.460124 0.00178351 Z M 195.460124 0.00178351 " stroke="#000000" stroke-width="2" stroke-opacity="1" stroke-miterlimit="4"/></g></g><g clip-path="url(#1d5e26535b)"><g clip-path="url(#68b17973d7)"><g transform="matrix(1, 0, 0, 1, 48, 48)"><g clip-path="url(#2597c9b3e0)"><g clip-path="url(#fcc9b5f647)"><g clip-path="url(#6d0e14623e)"><path fill="#f65245" d="M 0.652344 0.652344 L 278.347656 0.652344 L 278.347656 278.347656 L 0.652344 278.347656 Z M 0.652344 0.652344 " fill-opacity="1" fill-rule="nonzero"/></g></g></g></g></g></g><g clip-path="url(#2416ffa40d)"><g clip-path="url(#8279dfc365)"><path stroke-linecap="butt" transform="matrix(0.75, 0, 0, 0.75, 48.653262, 48.653258)" fill="none" stroke-linejoin="miter" d="M 185.123788 -0.00121847 C 82.884198 -0.00121847 -0.00122447 82.884204 -0.00122447 185.123794 C -0.00122447 287.368592 82.884198 370.248806 185.123788 370.248806 C 287.368586 370.248806 370.2488 287.368592 370.2488 185.123794 C 370.2488 82.884204 287.368586 -0.00121847 185.123788 -0.00121847 Z M 185.123788 -0.00121847 " stroke="#000000" stroke-width="2" stroke-opacity="1" stroke-miterlimit="4"/></g></g><g clip-path="url(#e8c1906128)"><g clip-path="url(#3a5fe40779)"><g transform="matrix(1, 0, 0, 1, 104, 104)"><g clip-path="url(#a8212f8a2b)"><g clip-path="url(#00ea2b1656)"><g clip-path="url(#3de3a07238)"><path fill="#fff3eb" d="M 0.671875 0.671875 L 166.328125 0.671875 L 166.328125 166.328125 L 0.671875 166.328125 Z M 0.671875 0.671875 " fill-opacity="1" fill-rule="nonzero"/></g></g></g></g></g></g><g clip-path="url(#627bb78fd0)"><g clip-path="url(#83c9d5f034)"><path stroke-linecap="butt" transform="matrix(0.75, 0, 0, 0.75, 104.671918, 104.671913)" fill="none" stroke-linejoin="miter" d="M 110.432242 -0.0000508354 C 49.442655 -0.0000508354 -0.0000568354 49.442661 -0.0000568354 110.432248 C -0.0000568354 171.416627 49.442655 220.859339 110.432242 220.859339 C 171.416621 220.859339 220.859333 171.416627 220.859333 110.432248 C 220.859333 49.442661 171.416621 -0.0000508354 110.432242 -0.0000508354 Z M 110.432242 -0.0000508354 " stroke="#000000" stroke-width="2" stroke-opacity="1" stroke-miterlimit="4"/></g></g><g clip-path="url(#4a792ee992)"><g clip-path="url(#0ad38c7e39)"><g transform="matrix(1, 0, 0, 1, 109, 109)"><g clip-path="url(#c739d09d0f)"><g clip-path="url(#dd4fe2132f)"><g clip-path="url(#505d78a25b)"><path fill="#ffde59" d="M 0.214844 0.214844 L 156.785156 0.214844 L 156.785156 156.785156 L 0.214844 156.785156 Z M 0.214844 0.214844 " fill-opacity="1" fill-rule="nonzero"/></g></g></g></g></g></g><g clip-path="url(#b73d3c553a)"><g clip-path="url(#3c9a7205a8)"><path stroke-linecap="butt" transform="matrix(0.75, 0, 0, 0.75, 109.215957, 109.215953)" fill="none" stroke-linejoin="miter" d="M 104.373522 -0.00147877 C 46.727685 -0.00147877 -0.00148477 46.727691 -0.00148477 104.373528 C -0.00148477 162.019365 46.727685 208.748535 104.373522 208.748535 C 162.019359 208.748535 208.748529 162.019365 208.748529 104.373528 C 208.748529 46.727691 162.019359 -0.00147877 104.373522 -0.00147877 Z M 104.373522 -0.00147877 " stroke="#000000" stroke-width="2" stroke-opacity="1" stroke-miterlimit="4"/></g></g><g transform="matrix(1, 0, 0, 1, 73, 232)"><g clip-path="url(#de3d8e948e)"><g fill="#ffffff" fill-opacity="1"><g transform="translate(19.347539, 38.663517)"><g><path d="M 17.203125 5.078125 L 12.640625 9.703125 C 11.585938 9.640625 10.429688 9.3125 9.171875 8.71875 C 7.910156 8.125 6.613281 7.164062 5.28125 5.84375 C 3.945312 4.53125 3.09375 3.101562 2.71875 1.5625 C 2.289062 -0.125 2.664062 -1.566406 3.84375 -2.765625 L 22.171875 -21.375 C 23.273438 -22.5 26.582031 -20.351562 32.09375 -14.9375 L 42.84375 -4.34375 C 42.5625 -3.351562 42.109375 -2.375 41.484375 -1.40625 C 40.867188 -0.4375 40.253906 0.359375 39.640625 0.984375 C 36.878906 3.785156 34.273438 3.984375 31.828125 1.578125 L 25.46875 -4.671875 C 25.007812 -5.128906 24.59375 -5.164062 24.21875 -4.78125 L 24.078125 -4.640625 C 24.003906 -4.566406 23.96875 -4.503906 23.96875 -4.453125 L 32.0625 3.515625 C 31.644531 5.191406 30.773438 6.695312 29.453125 8.03125 C 27.828125 9.6875 26.1875 10.609375 24.53125 10.796875 L 15.5625 1.96875 C 15.351562 1.976562 15.191406 2.039062 15.078125 2.15625 C 14.890625 2.351562 14.925781 2.613281 15.1875 2.9375 C 15.445312 3.269531 15.765625 3.617188 16.140625 3.984375 C 16.523438 4.359375 16.878906 4.722656 17.203125 5.078125 Z M 17.203125 5.078125 "/></g></g></g><g fill="#ffffff" fill-opacity="1"><g transform="translate(64.1613, 73.834142)"><g><path d="M 22.6875 -11.875 C 23.164062 -13.519531 23.421875 -14.675781 23.453125 -15.34375 C 23.484375 -16.007812 23.304688 -16.394531 22.921875 -16.5 C 22.671875 -16.570312 22.421875 -16.550781 22.171875 -16.4375 C 22.117188 -16.132812 22.050781 -15.722656 21.96875 -15.203125 C 21.894531 -14.691406 21.625 -13.632812 21.15625 -12.03125 L 20.703125 -10.421875 C 20.367188 -9.296875 20.101562 -8.484375 19.90625 -7.984375 C 19.707031 -7.492188 19.539062 -7.078125 19.40625 -6.734375 C 19.332031 -6.535156 19.257812 -6.34375 19.1875 -6.15625 C 19.332031 -5.925781 19.53125 -5.773438 19.78125 -5.703125 C 20.164062 -5.597656 20.523438 -5.828125 20.859375 -6.390625 C 21.191406 -6.960938 21.597656 -8.078125 22.078125 -9.734375 Z M 16.53125 5.65625 C 13.59375 4.8125 11.082031 3.425781 9 1.5 C 6.914062 -0.414062 5.484375 -2.835938 4.703125 -5.765625 C 3.929688 -8.703125 4.085938 -12.035156 5.171875 -15.765625 C 6.742188 -21.171875 9.601562 -24.925781 13.75 -27.03125 C 17.40625 -28.882812 21.515625 -29.144531 26.078125 -27.8125 C 31.023438 -26.375 34.5 -23.695312 36.5 -19.78125 C 38.507812 -15.875 38.789062 -11.421875 37.34375 -6.421875 C 35.726562 -0.859375 32.941406 2.929688 28.984375 4.953125 C 25.398438 6.796875 21.25 7.03125 16.53125 5.65625 Z M 16.53125 5.65625 "/></g></g></g><g fill="#ffffff" fill-opacity="1"><g transform="translate(127.088143, 84.083409)"><g><path d="M 13.6875 -21.65625 C 13.269531 -23.320312 12.90625 -24.445312 12.59375 -25.03125 C 12.289062 -25.613281 11.941406 -25.851562 11.546875 -25.75 C 11.296875 -25.6875 11.097656 -25.550781 10.953125 -25.34375 C 11.054688 -25.0625 11.203125 -24.675781 11.390625 -24.1875 C 11.578125 -23.707031 11.875 -22.648438 12.28125 -21.015625 L 12.6875 -19.390625 C 12.957031 -18.265625 13.132812 -17.4375 13.21875 -16.90625 C 13.300781 -16.375 13.375 -15.925781 13.4375 -15.5625 C 13.457031 -15.34375 13.484375 -15.140625 13.515625 -14.953125 C 13.753906 -14.816406 14 -14.78125 14.25 -14.84375 C 14.644531 -14.945312 14.84375 -15.328125 14.84375 -15.984375 C 14.84375 -16.648438 14.632812 -17.816406 14.21875 -19.484375 Z M 17.140625 -3.390625 C 14.179688 -2.660156 11.316406 -2.597656 8.546875 -3.203125 C 5.773438 -3.816406 3.316406 -5.195312 1.171875 -7.34375 C -0.960938 -9.5 -2.5 -12.460938 -3.4375 -16.234375 C -4.789062 -21.703125 -4.203125 -26.382812 -1.671875 -30.28125 C 0.585938 -33.707031 4.023438 -35.992188 8.640625 -37.140625 C 13.640625 -38.378906 17.984375 -37.804688 21.671875 -35.421875 C 25.359375 -33.035156 27.828125 -29.316406 29.078125 -24.265625 C 30.472656 -18.640625 29.96875 -13.960938 27.5625 -10.234375 C 25.394531 -6.847656 21.921875 -4.566406 17.140625 -3.390625 Z M 17.140625 -3.390625 "/></g></g></g><g fill="#ffffff" fill-opacity="1"><g transform="translate(186.479528, 61.378943)"><g><path d="M -0.296875 -24.140625 C -1.472656 -25.378906 -2.335938 -26.179688 -2.890625 -26.546875 C -3.441406 -26.910156 -3.867188 -26.953125 -4.171875 -26.671875 C -4.359375 -26.492188 -4.460938 -26.265625 -4.484375 -25.984375 C -4.253906 -25.796875 -3.9375 -25.535156 -3.53125 -25.203125 C -3.125 -24.867188 -2.347656 -24.097656 -1.203125 -22.890625 L -0.046875 -21.671875 C 0.753906 -20.816406 1.316406 -20.179688 1.640625 -19.765625 C 1.972656 -19.347656 2.253906 -18.992188 2.484375 -18.703125 C 2.617188 -18.535156 2.75 -18.375 2.875 -18.21875 C 3.132812 -18.226562 3.359375 -18.320312 3.546875 -18.5 C 3.847656 -18.78125 3.832031 -19.207031 3.5 -19.78125 C 3.175781 -20.351562 2.421875 -21.265625 1.234375 -22.515625 Z M 4.9375 -4.640625 C 3.5625 -3.335938 2.148438 -2.691406 0.703125 -2.703125 C -0.734375 -2.722656 -2.15625 -3.476562 -3.5625 -4.96875 L -19.453125 -21.78125 C -20.347656 -22.726562 -20.15625 -24.425781 -18.875 -26.875 C -17.601562 -29.320312 -15.789062 -31.65625 -13.4375 -33.875 C -9.320312 -37.769531 -5.171875 -39.816406 -0.984375 -40.015625 C 3.535156 -40.222656 7.800781 -38.203125 11.8125 -33.953125 C 15.425781 -30.128906 17.019531 -26.023438 16.59375 -21.640625 C 16.175781 -17.265625 13.867188 -13.085938 9.671875 -9.109375 Z M 4.9375 -4.640625 "/></g></g></g></g></g><path fill="#ffffff" d="M 100.378906 191.09375 L 100.28125 190.996094 Z M 100.378906 191.09375 " fill-opacity="1" fill-rule="nonzero"/><path fill="#ffffff" d="M 84.457031 208.003906 L 70.691406 222.738281 C 70.691406 222.738281 69.203125 224.480469 67.699219 223.5625 C 67.550781 223.46875 67.398438 223.351562 67.25 223.199219 L 67.195312 223.148438 C 65.550781 221.511719 67.65625 219.707031 67.65625 219.707031 L 82.394531 205.941406 Z M 84.457031 208.003906 " fill-opacity="1" fill-rule="nonzero"/><path fill="#ffffff" d="M 98.15625 188.871094 L 97.769531 189.261719 C 96.652344 190.15625 93.5625 192.660156 90.722656 195.1875 C 88.664062 197.019531 86.597656 198.714844 86.203125 200.464844 C 86.0625 201.070312 86.21875 201.683594 86.511719 202.308594 C 86.644531 202.59375 86.765625 203.015625 87.011719 203.300781 L 85.355469 204.84375 L 84.457031 204.015625 L 86.144531 202.433594 C 85.902344 202.148438 85.78125 201.730469 85.648438 201.445312 C 85.351562 200.820312 85.199219 200.207031 85.335938 199.601562 C 85.734375 197.851562 87.800781 196.15625 89.859375 194.324219 C 93.402344 191.167969 97.339844 188.054688 97.339844 188.054688 Z M 98.15625 188.871094 " fill-opacity="1" fill-rule="nonzero"/><path fill="#ffffff" d="M 102.34375 193.058594 C 102.34375 193.058594 102.21875 193.214844 101.996094 193.496094 C 101.101562 194.613281 98.601562 197.703125 96.074219 200.539062 C 94.242188 202.597656 92.546875 204.664062 90.796875 205.058594 C 90.191406 205.199219 89.578125 205.042969 88.953125 204.75 C 88.667969 204.617188 88.246094 204.496094 87.960938 204.25 L 86.457031 205.859375 L 85.355469 204.84375 L 87.011719 203.300781 C 86.765625 203.015625 86.644531 202.59375 86.511719 202.308594 C 86.21875 201.683594 86.0625 201.070312 86.203125 200.464844 C 86.597656 198.714844 88.664062 197.019531 90.722656 195.1875 C 93.5625 192.660156 96.652344 190.15625 97.769531 189.261719 L 88.027344 199.167969 L 89.023438 200.160156 L 99.417969 190.132812 L 100.378906 191.09375 L 90.300781 201.4375 L 91.230469 202.371094 L 101.527344 192.242188 Z M 102.34375 193.058594 " fill-opacity="1" fill-rule="nonzero"/><path fill="#ffffff" d="M 84.457031 208.003906 L 70.691406 222.738281 C 70.691406 222.738281 69.203125 224.480469 67.699219 223.5625 C 66.78125 222.0625 68.523438 220.570312 68.523438 220.570312 L 83.257812 206.804688 Z M 84.457031 208.003906 " fill-opacity="1" fill-rule="nonzero"/><path fill="#ffffff" d="M 101.117188 223.265625 C 100.320312 223.59375 99.222656 223.417969 98.132812 222.363281 C 95.640625 219.953125 82.910156 206.226562 79.023438 202.140625 C 76.75 203.390625 72.5625 201.910156 69.761719 199.230469 C 67.058594 196.644531 65.984375 193.222656 66.953125 190.902344 L 66.957031 190.898438 C 67.136719 190.464844 67.390625 190.066406 67.722656 189.722656 C 69.804688 187.546875 74.09375 188.273438 77.308594 191.34375 C 80.117188 194.035156 81.746094 198.21875 80.574219 200.53125 L 101.285156 219.285156 C 102.910156 220.871094 102.414062 222.734375 101.117188 223.265625 Z M 101.117188 223.265625 " fill-opacity="1" fill-rule="nonzero"/><path fill="#ffffff" d="M 101.117188 223.265625 C 100.320312 223.59375 99.222656 223.417969 98.132812 222.363281 C 95.640625 219.953125 82.910156 206.226562 79.023438 202.140625 C 76.75 203.390625 72.5625 201.910156 69.761719 199.230469 C 67.058594 196.644531 65.984375 193.222656 66.953125 190.902344 L 66.957031 190.898438 C 69.152344 189.1875 73.117188 190.003906 76.132812 192.890625 C 78.945312 195.578125 80.574219 199.761719 79.402344 202.074219 L 100.109375 220.828125 C 100.941406 221.640625 101.21875 222.523438 101.117188 223.265625 Z M 101.117188 223.265625 " fill-opacity="1" fill-rule="nonzero"/><g clip-path="url(#b9c43a8a32)"><path fill="#f65245" d="M 87.046875 205.835938 L 88.023438 204.789062 C 88.199219 204.886719 88.382812 204.960938 88.539062 205.023438 C 88.628906 205.058594 88.710938 205.09375 88.777344 205.125 C 89.578125 205.5 90.246094 205.609375 90.886719 205.464844 C 92.617188 205.070312 94.214844 203.265625 95.90625 201.351562 C 96.0625 201.175781 96.222656 200.992188 96.382812 200.8125 C 99.511719 197.304688 102.636719 193.355469 102.667969 193.316406 L 102.898438 193.027344 L 101.53125 191.660156 L 91.234375 201.789062 L 90.878906 201.433594 L 100.960938 191.089844 L 99.421875 189.550781 L 89.027344 199.582031 L 88.609375 199.164062 L 98.738281 188.867188 L 97.371094 187.5 L 97.082031 187.726562 C 97.042969 187.757812 93.09375 190.886719 89.582031 194.015625 C 89.402344 194.175781 89.222656 194.335938 89.042969 194.492188 C 87.132812 196.183594 85.328125 197.78125 84.933594 199.507812 C 84.789062 200.148438 84.894531 200.820312 85.273438 201.617188 C 85.304688 201.6875 85.339844 201.769531 85.375 201.859375 C 85.4375 202.015625 85.511719 202.199219 85.605469 202.375 L 84.433594 203.46875 L 81.074219 200.425781 C 82.039062 197.976562 80.539062 193.863281 77.59375 191.046875 C 75.632812 189.171875 73.15625 188.054688 70.964844 188.054688 C 69.515625 188.054688 68.289062 188.53125 67.425781 189.4375 C 66.316406 190.59375 65.9375 192.296875 66.351562 194.230469 C 66.753906 196.105469 67.863281 197.988281 69.476562 199.53125 C 71.683594 201.640625 74.65625 203.003906 77.050781 203.003906 C 77.757812 203.003906 78.386719 202.882812 78.929688 202.644531 C 79.6875 203.445312 80.714844 204.535156 81.917969 205.820312 L 67.382812 219.398438 C 67.269531 219.5 66.203125 220.460938 66.15625 221.691406 C 66.132812 222.332031 66.382812 222.921875 66.90625 223.4375 L 66.957031 223.492188 C 67.453125 223.992188 68.011719 224.242188 68.625 224.242188 C 68.652344 224.242188 68.679688 224.242188 68.707031 224.242188 C 69.933594 224.195312 70.898438 223.128906 70.996094 223.015625 L 84.496094 208.566406 C 84.667969 208.75 84.839844 208.9375 85.011719 209.121094 C 89.996094 214.441406 96.195312 221.0625 97.84375 222.660156 C 98.84375 223.625 99.757812 223.828125 100.347656 223.828125 C 101.335938 223.828125 102.175781 223.269531 102.539062 222.371094 C 102.984375 221.277344 102.625 220.011719 101.574219 218.988281 Z M 86.714844 202.46875 L 86.460938 202.167969 C 86.328125 202.011719 86.230469 201.765625 86.140625 201.550781 C 86.101562 201.449219 86.0625 201.355469 86.023438 201.265625 C 85.726562 200.644531 85.636719 200.144531 85.742188 199.691406 C 86.074219 198.222656 87.78125 196.710938 89.59375 195.109375 C 89.773438 194.953125 89.953125 194.792969 90.132812 194.632812 C 93.078125 192.007812 96.335938 189.382812 97.308594 188.605469 L 97.574219 188.871094 L 87.445312 199.167969 L 89.015625 200.742188 L 99.414062 190.710938 L 99.796875 191.097656 L 89.71875 201.441406 L 91.230469 202.953125 L 101.523438 192.824219 L 101.792969 193.089844 C 101.015625 194.058594 98.390625 197.316406 95.765625 200.265625 C 95.605469 200.445312 95.445312 200.625 95.285156 200.804688 C 93.683594 202.613281 92.171875 204.324219 90.703125 204.65625 C 90.253906 204.757812 89.753906 204.671875 89.128906 204.375 C 89.039062 204.332031 88.945312 204.296875 88.847656 204.257812 C 88.632812 204.167969 88.386719 204.070312 88.230469 203.9375 L 87.929688 203.683594 L 86.433594 205.28125 L 85.046875 204.027344 Z M 70.386719 222.457031 L 70.375 222.46875 C 70.367188 222.480469 69.578125 223.382812 68.671875 223.414062 C 68.265625 223.429688 67.898438 223.265625 67.542969 222.910156 L 67.488281 222.851562 C 67.132812 222.5 66.96875 222.132812 66.980469 221.722656 C 67.011719 220.820312 67.917969 220.027344 67.925781 220.019531 L 82.484375 206.421875 C 82.945312 206.914062 83.429688 207.429688 83.929688 207.964844 Z M 101.773438 222.058594 C 101.539062 222.640625 100.992188 223 100.347656 223 C 99.71875 223 99.050781 222.679688 98.417969 222.066406 C 96.785156 220.484375 90.59375 213.871094 85.617188 208.558594 C 82.949219 205.707031 80.644531 203.25 79.320312 201.855469 L 79.101562 201.625 L 78.820312 201.78125 C 78.34375 202.042969 77.746094 202.179688 77.046875 202.179688 C 74.890625 202.179688 72.078125 200.875 70.046875 198.933594 C 67.007812 196.023438 66.097656 192.019531 68.023438 190.007812 C 68.726562 189.269531 69.746094 188.882812 70.964844 188.882812 C 72.949219 188.882812 75.210938 189.914062 77.019531 191.644531 C 79.792969 194.296875 81.253906 198.28125 80.207031 200.34375 L 80.0625 200.625 L 101 219.585938 C 101.796875 220.367188 102.089844 221.289062 101.773438 222.058594 Z M 101.773438 222.058594 " fill-opacity="1" fill-rule="nonzero"/></g><g clip-path="url(#6d28f9e305)"><g transform="matrix(1, 0, 0, 1, 273, 187)"><g clip-path="url(#6c25be9e5c)"><path fill="#ffffff" d="M 3.34375 4.09375 L 3.4375 3.996094 Z M 3.34375 4.09375 " fill-opacity="1" fill-rule="nonzero"/><g clip-path="url(#9b7f4c6671)"><path fill="#ffffff" d="M 19.265625 21.003906 L 33.03125 35.738281 C 33.03125 35.738281 34.519531 37.480469 36.019531 36.5625 C 36.171875 36.46875 36.320312 36.351562 36.46875 36.199219 L 36.523438 36.148438 C 38.171875 34.511719 36.0625 32.707031 36.0625 32.707031 L 21.328125 18.941406 Z M 19.265625 21.003906 " fill-opacity="1" fill-rule="nonzero"/></g><path fill="#ffffff" d="M 5.5625 1.871094 L 5.949219 2.261719 C 7.066406 3.15625 10.160156 5.660156 13 8.1875 C 15.054688 10.019531 17.121094 11.714844 17.519531 13.464844 C 17.65625 14.070312 17.503906 14.683594 17.207031 15.308594 C 17.074219 15.59375 16.953125 16.015625 16.710938 16.300781 L 18.363281 17.84375 L 19.265625 17.015625 L 17.574219 15.433594 C 17.820312 15.148438 17.9375 14.730469 18.074219 14.445312 C 18.367188 13.820312 18.519531 13.207031 18.382812 12.601562 C 17.988281 10.851562 15.921875 9.15625 13.863281 7.324219 C 10.320312 4.167969 6.382812 1.054688 6.382812 1.054688 Z M 5.5625 1.871094 " fill-opacity="1" fill-rule="nonzero"/><path fill="#ffffff" d="M 1.375 6.058594 C 1.375 6.058594 1.5 6.214844 1.726562 6.496094 C 2.621094 7.613281 5.121094 10.703125 7.648438 13.539062 C 9.480469 15.597656 11.171875 17.664062 12.925781 18.058594 C 13.527344 18.199219 14.144531 18.042969 14.765625 17.75 C 15.050781 17.617188 15.472656 17.496094 15.757812 17.25 L 17.261719 18.859375 L 18.363281 17.84375 L 16.710938 16.300781 C 16.953125 16.015625 17.074219 15.59375 17.207031 15.308594 C 17.503906 14.683594 17.65625 14.070312 17.519531 13.464844 C 17.121094 11.714844 15.054688 10.019531 13 8.1875 C 10.160156 5.660156 7.066406 3.15625 5.949219 2.261719 L 15.695312 12.167969 L 14.699219 13.160156 L 4.300781 3.132812 L 3.4375 3.996094 L 3.34375 4.09375 L 13.421875 14.4375 L 12.488281 15.371094 L 2.191406 5.242188 Z M 1.375 6.058594 " fill-opacity="1" fill-rule="nonzero"/><path fill="#ffffff" d="M 19.265625 21.003906 L 33.03125 35.738281 C 33.03125 35.738281 34.519531 37.480469 36.019531 36.5625 C 36.941406 35.0625 35.199219 33.570312 35.199219 33.570312 L 20.464844 19.804688 Z M 19.265625 21.003906 " fill-opacity="1" fill-rule="nonzero"/><g clip-path="url(#ee1e85eb54)"><path fill="#ffffff" d="M 2.605469 36.265625 C 3.402344 36.59375 4.5 36.417969 5.589844 35.363281 C 8.078125 32.953125 20.8125 19.226562 24.699219 15.140625 C 26.96875 16.390625 31.160156 14.910156 33.960938 12.230469 C 36.664062 9.644531 37.738281 6.222656 36.765625 3.902344 L 36.765625 3.898438 C 36.582031 3.464844 36.328125 3.066406 35.996094 2.722656 C 33.914062 0.546875 29.625 1.273438 26.414062 4.34375 C 23.601562 7.035156 21.972656 11.21875 23.148438 13.53125 L 2.4375 32.285156 C 0.808594 33.871094 1.308594 35.734375 2.605469 36.265625 Z M 2.605469 36.265625 " fill-opacity="1" fill-rule="nonzero"/></g><g clip-path="url(#02ec0e717c)"><path fill="#ffffff" d="M 2.605469 36.265625 C 3.402344 36.59375 4.5 36.417969 5.589844 35.363281 C 8.078125 32.953125 20.8125 19.226562 24.699219 15.140625 C 26.96875 16.390625 31.160156 14.910156 33.960938 12.230469 C 36.664062 9.644531 37.738281 6.222656 36.765625 3.902344 L 36.765625 3.898438 C 34.570312 2.1875 30.605469 3.003906 27.585938 5.890625 C 24.773438 8.578125 23.148438 12.761719 24.320312 15.074219 L 3.609375 33.828125 C 2.777344 34.640625 2.5 35.523438 2.605469 36.265625 Z M 2.605469 36.265625 " fill-opacity="1" fill-rule="nonzero"/></g><g clip-path="url(#466d585240)"><path fill="#f65245" d="M 16.671875 18.835938 L 15.695312 17.789062 C 15.519531 17.886719 15.339844 17.960938 15.183594 18.023438 C 15.09375 18.058594 15.011719 18.09375 14.945312 18.125 C 14.144531 18.5 13.472656 18.609375 12.832031 18.464844 C 11.105469 18.070312 9.507812 16.265625 7.816406 14.351562 C 7.65625 14.175781 7.5 13.992188 7.339844 13.8125 C 4.210938 10.304688 1.082031 6.355469 1.050781 6.316406 L 0.824219 6.027344 L 2.191406 4.660156 L 12.488281 14.789062 L 12.839844 14.433594 L 2.761719 4.089844 L 4.296875 2.550781 L 14.695312 12.582031 L 15.113281 12.164062 L 4.980469 1.867188 L 6.351562 0.5 L 6.636719 0.726562 C 6.679688 0.757812 10.625 3.886719 14.136719 7.015625 C 14.316406 7.175781 14.496094 7.335938 14.675781 7.492188 C 16.589844 9.183594 18.394531 10.78125 18.785156 12.507812 C 18.933594 13.148438 18.824219 13.820312 18.449219 14.617188 C 18.414062 14.6875 18.382812 14.769531 18.347656 14.859375 C 18.28125 15.015625 18.210938 15.199219 18.113281 15.375 L 19.285156 16.46875 L 22.648438 13.425781 C 21.679688 10.976562 23.183594 6.863281 26.128906 4.046875 C 28.085938 2.171875 30.566406 1.054688 32.753906 1.054688 C 34.207031 1.054688 35.429688 1.53125 36.296875 2.4375 C 37.402344 3.59375 37.785156 5.296875 37.371094 7.230469 C 36.96875 9.105469 35.859375 10.988281 34.246094 12.53125 C 32.039062 14.640625 29.066406 16.003906 26.671875 16.003906 C 25.964844 16.003906 25.332031 15.882812 24.789062 15.644531 C 24.03125 16.445312 23.003906 17.535156 21.800781 18.820312 L 36.339844 32.398438 C 36.453125 32.5 37.519531 33.460938 37.566406 34.691406 C 37.589844 35.332031 37.335938 35.921875 36.816406 36.4375 L 36.761719 36.492188 C 36.269531 36.992188 35.707031 37.242188 35.097656 37.242188 C 35.070312 37.242188 35.042969 37.242188 35.011719 37.242188 C 33.785156 37.195312 32.820312 36.128906 32.722656 36.015625 L 19.226562 21.566406 C 19.054688 21.75 18.882812 21.9375 18.707031 22.121094 C 13.726562 27.441406 7.527344 34.0625 5.875 35.660156 C 4.878906 36.625 3.964844 36.828125 3.375 36.828125 C 2.386719 36.828125 1.546875 36.269531 1.179688 35.371094 C 0.734375 34.277344 1.097656 33.011719 2.148438 31.988281 Z M 17.003906 15.46875 L 17.261719 15.167969 C 17.394531 15.011719 17.492188 14.765625 17.578125 14.550781 C 17.621094 14.449219 17.65625 14.355469 17.699219 14.265625 C 17.992188 13.644531 18.082031 13.144531 17.980469 12.691406 C 17.648438 11.222656 15.9375 9.710938 14.128906 8.109375 C 13.949219 7.953125 13.769531 7.792969 13.589844 7.632812 C 10.640625 5.007812 7.382812 2.382812 6.414062 1.605469 L 6.144531 1.871094 L 16.277344 12.167969 L 14.703125 13.742188 L 4.308594 3.710938 L 3.921875 4.097656 L 14.003906 14.441406 L 12.492188 15.953125 L 2.195312 5.824219 L 1.929688 6.089844 C 2.707031 7.058594 5.332031 10.316406 7.953125 13.265625 C 8.117188 13.445312 8.277344 13.625 8.433594 13.804688 C 10.035156 15.613281 11.546875 17.324219 13.015625 17.65625 C 13.464844 17.757812 13.96875 17.671875 14.59375 17.375 C 14.679688 17.332031 14.773438 17.296875 14.875 17.257812 C 15.089844 17.167969 15.335938 17.070312 15.492188 16.9375 L 15.792969 16.683594 L 17.285156 18.28125 L 18.671875 17.027344 Z M 33.332031 35.457031 L 33.34375 35.46875 C 33.351562 35.480469 34.144531 36.382812 35.046875 36.414062 C 35.457031 36.429688 35.824219 36.265625 36.179688 35.910156 L 36.234375 35.851562 C 36.589844 35.5 36.753906 35.132812 36.738281 34.722656 C 36.707031 33.820312 35.804688 33.027344 35.792969 33.019531 L 21.238281 19.421875 C 20.777344 19.914062 20.292969 20.429688 19.792969 20.964844 Z M 1.945312 35.058594 C 2.183594 35.640625 2.730469 36 3.375 36 C 4 36 4.667969 35.679688 5.300781 35.066406 C 6.9375 33.484375 13.128906 26.871094 18.105469 21.558594 C 20.773438 18.707031 23.074219 16.25 24.398438 14.855469 L 24.621094 14.625 L 24.898438 14.78125 C 25.378906 15.042969 25.976562 15.179688 26.671875 15.179688 C 28.828125 15.179688 31.644531 13.875 33.675781 11.933594 C 36.714844 9.023438 37.625 5.019531 35.699219 3.007812 C 34.992188 2.269531 33.976562 1.882812 32.753906 1.882812 C 30.773438 1.882812 28.507812 2.914062 26.699219 4.644531 C 23.925781 7.296875 22.46875 11.28125 23.515625 13.34375 L 23.65625 13.625 L 2.71875 32.585938 C 1.921875 33.367188 1.632812 34.289062 1.945312 35.058594 Z M 1.945312 35.058594 " fill-opacity="1" fill-rule="nonzero"/></g></g></g></g><g transform="matrix(1, 0, 0, 1, 44, 40)"><g clip-path="url(#c76e59e9e1)"><g fill="#ffffff" fill-opacity="1"><g transform="translate(48.613125, 125.504117)"><g><path d="M -3.046875 -17.625 C -2.972656 -17.644531 -2.867188 -17.800781 -2.734375 -18.09375 C -2.597656 -18.394531 -2.59375 -18.671875 -2.71875 -18.921875 C -2.851562 -19.171875 -3.175781 -19.414062 -3.6875 -19.65625 L -4.15625 -19.859375 C -4.71875 -20.117188 -5.15625 -20.238281 -5.46875 -20.21875 C -5.78125 -20.195312 -6.003906 -20.035156 -6.140625 -19.734375 C -6.273438 -19.429688 -6.34375 -19.210938 -6.34375 -19.078125 C -6.25 -19.054688 -6.109375 -19.003906 -5.921875 -18.921875 Z M -11.859375 -21.625 C -11.796875 -21.644531 -11.695312 -21.800781 -11.5625 -22.09375 C -11.425781 -22.394531 -11.4375 -22.675781 -11.59375 -22.9375 C -11.757812 -23.207031 -12.109375 -23.460938 -12.640625 -23.703125 L -12.78125 -23.765625 C -13.34375 -24.023438 -13.773438 -24.144531 -14.078125 -24.125 C -14.390625 -24.101562 -14.613281 -23.941406 -14.75 -23.640625 C -14.882812 -23.335938 -14.941406 -23.113281 -14.921875 -22.96875 C -14.835938 -22.957031 -14.703125 -22.90625 -14.515625 -22.8125 Z M -26.65625 -12.984375 C -27.007812 -13.148438 -27.28125 -13.628906 -27.46875 -14.421875 C -27.851562 -16.109375 -27.597656 -18.644531 -26.703125 -22.03125 C -26.210938 -23.789062 -25.523438 -25.648438 -24.640625 -27.609375 C -22.515625 -32.296875 -20.007812 -35.4375 -17.125 -37.03125 C -14.570312 -38.414062 -12 -38.519531 -9.40625 -37.34375 C -8.46875 -36.914062 -7.625 -36.332031 -6.875 -35.59375 C -6.125 -34.863281 -5.660156 -34.09375 -5.484375 -33.28125 C -6.285156 -32.65625 -6.859375 -31.957031 -7.203125 -31.1875 C -7.367188 -30.820312 -7.421875 -30.515625 -7.359375 -30.265625 C -7.304688 -30.015625 -7.09375 -29.804688 -6.71875 -29.640625 C -5.582031 -31.878906 -3.945312 -33.285156 -1.8125 -33.859375 C 0.132812 -34.347656 2.160156 -34.113281 4.265625 -33.15625 C 7.515625 -31.6875 9.265625 -29.253906 9.515625 -25.859375 C 9.742188 -22.671875 8.691406 -18.503906 6.359375 -13.359375 C 4.722656 -9.742188 3.410156 -7.144531 2.421875 -5.5625 C 1.429688 -3.976562 0.347656 -3 -0.828125 -2.625 C -2.015625 -2.257812 -3.460938 -2.46875 -5.171875 -3.25 Z M -26.65625 -12.984375 "/></g></g></g><g fill="#ffffff" fill-opacity="1"><g transform="translate(62.318146, 95.314355)"><g><path d="M 0.359375 -25.609375 C -0.859375 -26.816406 -1.75 -27.585938 -2.3125 -27.921875 C -2.882812 -28.265625 -3.316406 -28.289062 -3.609375 -28 C -3.785156 -27.8125 -3.882812 -27.585938 -3.90625 -27.328125 C -3.65625 -27.140625 -3.320312 -26.890625 -2.90625 -26.578125 C -2.5 -26.265625 -1.695312 -25.519531 -0.5 -24.34375 L 0.6875 -23.15625 C 1.519531 -22.34375 2.101562 -21.726562 2.4375 -21.3125 C 2.78125 -20.90625 3.078125 -20.5625 3.328125 -20.28125 C 3.453125 -20.113281 3.582031 -19.953125 3.71875 -19.796875 C 3.988281 -19.816406 4.210938 -19.921875 4.390625 -20.109375 C 4.679688 -20.398438 4.648438 -20.828125 4.296875 -21.390625 C 3.953125 -21.953125 3.171875 -22.835938 1.953125 -24.046875 Z M 12.859375 -11.84375 C 10.710938 -9.675781 8.296875 -8.128906 5.609375 -7.203125 C 2.921875 -6.273438 0.101562 -6.164062 -2.84375 -6.875 C -5.789062 -7.59375 -8.644531 -9.316406 -11.40625 -12.046875 C -15.414062 -16.003906 -17.359375 -20.304688 -17.234375 -24.953125 C -17.109375 -29.054688 -15.375 -32.800781 -12.03125 -36.1875 C -8.414062 -39.851562 -4.410156 -41.632812 -0.015625 -41.53125 C 4.367188 -41.425781 8.414062 -39.546875 12.125 -35.890625 C 16.25 -31.828125 18.257812 -27.570312 18.15625 -23.125 C 18.070312 -19.101562 16.304688 -15.34375 12.859375 -11.84375 Z M 12.859375 -11.84375 "/></g></g></g><g fill="#ffffff" fill-opacity="1"><g transform="translate(88.044746, 69.920483)"><g><path d="M 6.0625 -22.984375 C 6.15625 -22.960938 6.347656 -23.019531 6.640625 -23.15625 C 6.929688 -23.289062 7.097656 -23.507812 7.140625 -23.8125 C 7.191406 -24.125 7.097656 -24.546875 6.859375 -25.078125 L 6.46875 -25.90625 C 6.207031 -26.46875 5.953125 -26.835938 5.703125 -27.015625 C 5.460938 -27.191406 5.191406 -27.207031 4.890625 -27.0625 C 4.585938 -26.925781 4.398438 -26.800781 4.328125 -26.6875 C 4.359375 -26.625 4.421875 -26.5 4.515625 -26.3125 Z M 20.5625 -23.265625 L 26.53125 -21 C 27.375 -18.445312 27.472656 -16.222656 26.828125 -14.328125 C 26.179688 -12.441406 24.757812 -10.988281 22.5625 -9.96875 C 20.894531 -9.195312 19.257812 -8.921875 17.65625 -9.140625 C 15.625 -9.410156 13.71875 -10.453125 11.9375 -12.265625 L 10.03125 -14.15625 C 9.375 -13.863281 8.507812 -13.566406 7.4375 -13.265625 C 7.375 -13.078125 7.390625 -12.875 7.484375 -12.65625 C 7.679688 -12.238281 8.429688 -12.285156 9.734375 -12.796875 L 12.625 -10.046875 L 13.53125 -8.078125 C 12.332031 -5.984375 10.335938 -4.285156 7.546875 -2.984375 C 5.535156 -2.054688 3.738281 -1.722656 2.15625 -1.984375 C 0.582031 -2.253906 -0.566406 -3.175781 -1.296875 -4.75 L -11.59375 -26.890625 C -11.90625 -27.578125 -11.582031 -28.535156 -10.625 -29.765625 C -9.675781 -30.992188 -8.273438 -32.273438 -6.421875 -33.609375 C -4.566406 -34.953125 -2.617188 -36.097656 -0.578125 -37.046875 C 4.078125 -39.210938 8.160156 -39.953125 11.671875 -39.265625 C 15.378906 -38.554688 18.078125 -36.382812 19.765625 -32.75 C 20.734375 -30.664062 20.972656 -28.601562 20.484375 -26.5625 C 20.003906 -24.53125 19.003906 -22.816406 17.484375 -21.421875 C 17.710938 -20.921875 18.125 -20.8125 18.71875 -21.09375 C 19.320312 -21.375 19.9375 -22.097656 20.5625 -23.265625 Z M 20.5625 -23.265625 "/></g></g></g><g fill="#ffffff" fill-opacity="1"><g transform="translate(119.02035, 55.821076)"><g><path d="M 16.53125 -11.734375 C 16.695312 -11.742188 16.84375 -11.789062 16.96875 -11.875 L 16.765625 -14.21875 C 17.859375 -15.101562 19.425781 -15.882812 21.46875 -16.5625 C 23.519531 -17.238281 25.535156 -17.664062 27.515625 -17.84375 C 28.503906 -17 29.378906 -15.6875 30.140625 -13.90625 C 30.910156 -12.125 31.375 -10.488281 31.53125 -9 C 31.25 -8.289062 30.738281 -7.503906 30 -6.640625 C 29.257812 -5.785156 28.347656 -4.984375 27.265625 -4.234375 C 24.578125 -2.304688 21.398438 -1.179688 17.734375 -0.859375 C 12.472656 -0.398438 8.195312 -1.5625 4.90625 -4.34375 C 1.507812 -7.164062 -0.425781 -11.3125 -0.90625 -16.78125 C -1.382812 -22.25 -0.0507812 -26.695312 3.09375 -30.125 C 4.46875 -31.644531 6.125 -32.847656 8.0625 -33.734375 C 10 -34.628906 12.066406 -35.175781 14.265625 -35.375 C 18.566406 -35.75 22.179688 -35.007812 25.109375 -33.15625 C 28.035156 -31.3125 29.632812 -28.863281 29.90625 -25.8125 C 30.101562 -23.507812 29.539062 -21.742188 28.21875 -20.515625 C 26.90625 -19.296875 25.039062 -18.582031 22.625 -18.375 C 21.289062 -18.257812 19.921875 -18.46875 18.515625 -19 C 17.109375 -19.539062 16.253906 -20.085938 15.953125 -20.640625 C 15.828125 -22.046875 15.753906 -23.148438 15.734375 -23.953125 C 15.691406 -23.972656 15.628906 -23.976562 15.546875 -23.96875 L 15.375 -23.953125 C 15.113281 -23.929688 14.914062 -23.84375 14.78125 -23.6875 C 14.65625 -23.53125 14.554688 -23.210938 14.484375 -22.734375 C 14.421875 -22.265625 14.476562 -21.007812 14.65625 -18.96875 C 15.082031 -14.070312 15.707031 -11.660156 16.53125 -11.734375 Z M 16.53125 -11.734375 "/></g></g></g><g fill="#ffffff" fill-opacity="1"><g transform="translate(153.286322, 53.449272)"><g><path d="M 20.015625 -29.203125 L 34.40625 -25.640625 C 34.6875 -24.710938 34.828125 -23.75 34.828125 -22.75 C 34.828125 -21.75 34.734375 -20.878906 34.546875 -20.140625 C 34.128906 -18.453125 33.488281 -17.265625 32.625 -16.578125 C 31.757812 -15.898438 30.734375 -15.707031 29.546875 -16 L 19.5 -18.484375 C 18.882812 -18.640625 18.515625 -18.484375 18.390625 -18.015625 L 18.34375 -17.796875 C 18.320312 -17.703125 18.320312 -17.632812 18.34375 -17.59375 L 30.265625 -14.640625 C 30.441406 -14.046875 30.539062 -13.332031 30.5625 -12.5 C 30.550781 -11.601562 30.460938 -10.820312 30.296875 -10.15625 C 29.804688 -8.175781 29.050781 -6.71875 28.03125 -5.78125 L 22.625 -7.125 C 20.09375 -7.75 18.351562 -8.078125 17.40625 -8.109375 C 16.46875 -8.140625 15.875 -8.113281 15.625 -8.03125 C 15.375 -7.9375 15.21875 -7.769531 15.15625 -7.53125 C 15.101562 -7.300781 15.175781 -7.09375 15.375 -6.90625 C 16.3125 -6.976562 17.269531 -6.957031 18.25 -6.84375 C 19.53125 -6.644531 20.898438 -6.363281 22.359375 -6 L 29.375 -4.265625 C 30.03125 -2.585938 30.109375 -0.742188 29.609375 1.265625 C 29.328125 2.398438 28.914062 3.445312 28.375 4.40625 C 27.84375 5.375 27.21875 6.101562 26.5 6.59375 L 7.8125 1.96875 C 5.75 1.457031 4.210938 0.546875 3.203125 -0.765625 C 2.109375 -2.160156 1.816406 -3.890625 2.328125 -5.953125 L 8.203125 -29.6875 C 8.398438 -30.488281 9.460938 -30.84375 11.390625 -30.75 C 13.316406 -30.664062 16.191406 -30.148438 20.015625 -29.203125 Z M 20.015625 -29.203125 "/></g></g></g><g fill="#ffffff" fill-opacity="1"><g transform="translate(182.893753, 61.199637)"><g><path d="M 5.765625 3.578125 C 4.148438 2.585938 3.160156 1.390625 2.796875 -0.015625 C 2.441406 -1.421875 2.800781 -2.992188 3.875 -4.734375 L 17.015625 -26.171875 C 18.179688 -26.359375 19.4375 -26.285156 20.78125 -25.953125 C 22.125 -25.628906 23.390625 -25.101562 24.578125 -24.375 C 26.347656 -23.289062 27.582031 -21.925781 28.28125 -20.28125 C 28.988281 -18.488281 28.804688 -16.71875 27.734375 -14.96875 L 20.390625 -2.984375 C 19.523438 -3.410156 18.578125 -3.664062 17.546875 -3.75 C 16.523438 -3.84375 15.890625 -3.6875 15.640625 -3.28125 C 15.484375 -3.03125 15.492188 -2.734375 15.671875 -2.390625 C 17.859375 -2.710938 20.375 -2.003906 23.21875 -0.265625 L 28.40625 2.921875 C 28.34375 5.203125 27.769531 7.226562 26.6875 9 C 26.144531 9.875 25.394531 10.75 24.4375 11.625 C 23.476562 12.5 22.566406 13.070312 21.703125 13.34375 Z M 5.765625 3.578125 "/></g></g></g><g fill="#ffffff" fill-opacity="1"><g transform="translate(207.910187, 76.904773)"><g><path d="M 4.4375 5.125 C 3.1875 3.695312 2.597656 2.257812 2.671875 0.8125 C 2.753906 -0.625 3.566406 -2.019531 5.109375 -3.375 L 24.015625 -19.9375 C 25.191406 -19.757812 26.367188 -19.316406 27.546875 -18.609375 C 28.734375 -17.898438 29.789062 -17.019531 30.71875 -15.96875 C 32.082031 -14.414062 32.851562 -12.75 33.03125 -10.96875 C 33.164062 -9.039062 32.460938 -7.398438 30.921875 -6.046875 L 20.34375 3.21875 C 19.65625 2.550781 18.832031 2.019531 17.875 1.625 C 16.925781 1.238281 16.269531 1.207031 15.90625 1.53125 C 15.6875 1.71875 15.613281 2 15.6875 2.375 C 17.863281 2.71875 20.050781 4.140625 22.25 6.640625 L 26.265625 11.234375 C 25.503906 13.398438 24.347656 15.164062 22.796875 16.53125 C 22.023438 17.195312 21.050781 17.804688 19.875 18.359375 C 18.695312 18.910156 17.65625 19.179688 16.75 19.171875 Z M 4.4375 5.125 "/></g></g></g><g fill="#ffffff" fill-opacity="1"><g transform="translate(227.169762, 99.249284)"><g><path d="M 35.34375 -1.921875 L 41.28125 11.65625 C 40.726562 12.4375 40.054688 13.128906 39.265625 13.734375 C 38.472656 14.347656 37.726562 14.804688 37.03125 15.109375 C 35.4375 15.804688 34.101562 16.019531 33.03125 15.75 C 31.96875 15.476562 31.191406 14.785156 30.703125 13.671875 L 26.546875 4.171875 C 26.296875 3.585938 25.941406 3.394531 25.484375 3.59375 L 25.296875 3.6875 C 25.203125 3.71875 25.144531 3.765625 25.125 3.828125 L 30.046875 15.078125 C 29.679688 15.578125 29.175781 16.085938 28.53125 16.609375 C 27.820312 17.148438 27.148438 17.554688 26.515625 17.828125 C 24.640625 18.648438 23.023438 18.941406 21.671875 18.703125 L 19.4375 13.59375 C 18.394531 11.207031 17.597656 9.628906 17.046875 8.859375 C 16.492188 8.097656 16.109375 7.640625 15.890625 7.484375 C 15.660156 7.347656 15.4375 7.328125 15.21875 7.421875 C 15 7.523438 14.875 7.710938 14.84375 7.984375 C 15.46875 8.679688 16.035156 9.453125 16.546875 10.296875 C 17.171875 11.429688 17.78125 12.6875 18.375 14.0625 L 21.28125 20.703125 C 20.351562 22.234375 18.9375 23.414062 17.03125 24.25 C 15.96875 24.71875 14.890625 25.03125 13.796875 25.1875 C 12.710938 25.351562 11.75 25.300781 10.90625 25.03125 L 3.1875 7.390625 C 2.34375 5.441406 2.132812 3.671875 2.5625 2.078125 C 3 0.359375 4.191406 -0.925781 6.140625 -1.78125 L 28.546875 -11.578125 C 29.296875 -11.910156 30.21875 -11.285156 31.3125 -9.703125 C 32.414062 -8.128906 33.757812 -5.535156 35.34375 -1.921875 Z M 35.34375 -1.921875 "/></g></g></g></g></g><path fill="#fff3eb" d="M 232.816406 241.464844 L 217.863281 254.890625 L 189.332031 254.109375 L 171.546875 239.316406 L 199.300781 237.558594 Z M 232.816406 241.464844 " fill-opacity="1" fill-rule="evenodd"/><path fill="#f65245" d="M 201.078125 266.753906 C 201.058594 266.734375 197.539062 267.164062 197.34375 267.164062 C 193.242188 267.222656 189.058594 266.792969 184.996094 266.246094 C 174.304688 264.839844 163.476562 261.652344 153.746094 257.019531 C 149.660156 255.085938 144.617188 252.644531 142.507812 248.382812 C 141.257812 245.84375 141.414062 242.675781 142.585938 240.136719 C 143.230469 238.75 144.578125 237.695312 146.105469 237.4375 C 146.554688 237.359375 147.902344 237.675781 148.234375 237.378906 C 148.878906 236.832031 149.210938 235.523438 149.679688 234.820312 C 151.496094 232.144531 154.703125 228.527344 158.296875 229.230469 C 162.558594 230.070312 166.527344 233.082031 170.121094 235.367188 C 180.578125 241.992188 192.1875 252.585938 205.359375 252.390625 C 214.347656 252.253906 220.367188 247.660156 226.757812 241.914062 C 228.515625 240.332031 230.234375 238.710938 231.78125 236.910156 C 232.660156 235.875 233.421875 234.429688 234.984375 234.957031 C 238.582031 236.128906 237.328125 237.929688 238.503906 240.234375 C 239.226562 241.640625 240.75 242.441406 241.433594 243.90625 C 243.113281 247.445312 240.007812 251.21875 237.738281 253.679688 C 230.039062 262.042969 217.238281 265.816406 206.179688 266.558594 C 205.164062 266.636719 201.078125 266.753906 201.078125 266.753906 Z M 201.078125 266.753906 " fill-opacity="1" fill-rule="evenodd"/><path fill="#000000" d="M 147.902344 236.910156 C 148.136719 236.675781 148.332031 236.304688 148.507812 235.914062 C 148.742188 235.40625 148.976562 234.859375 149.210938 234.488281 C 150.34375 232.828125 151.988281 230.816406 153.941406 229.621094 C 155.308594 228.78125 156.832031 228.351562 158.414062 228.664062 C 162.734375 229.523438 166.78125 232.554688 170.433594 234.878906 C 175.652344 238.183594 181.164062 242.5 187.007812 245.941406 C 192.773438 249.339844 198.871094 251.902344 205.339844 251.804688 C 214.171875 251.667969 220.09375 247.113281 226.367188 241.464844 C 228.105469 239.902344 229.804688 238.300781 231.332031 236.5 C 231.800781 235.953125 232.230469 235.328125 232.738281 234.878906 C 233.382812 234.332031 234.125 234.039062 235.160156 234.371094 C 236.371094 234.761719 237.074219 235.25 237.542969 235.757812 C 238.015625 236.304688 238.210938 236.890625 238.347656 237.558594 C 238.503906 238.261719 238.5625 239.0625 239.011719 239.921875 C 239.34375 240.566406 239.871094 241.074219 240.378906 241.601562 C 240.984375 242.207031 241.570312 242.832031 241.960938 243.613281 C 242.703125 245.179688 242.605469 246.78125 242.058594 248.304688 C 241.277344 250.453125 239.578125 252.488281 238.171875 254.011719 C 230.371094 262.472656 217.414062 266.324219 206.238281 267.066406 C 205.222656 267.144531 201.097656 267.261719 201.097656 267.261719 C 201.078125 267.261719 201.078125 267.261719 201.058594 267.261719 C 201.039062 267.261719 201.039062 267.261719 201.019531 267.261719 C 200.433594 267.320312 197.539062 267.671875 197.34375 267.671875 C 193.203125 267.730469 189 267.300781 184.914062 266.753906 C 174.167969 265.328125 163.28125 262.140625 153.492188 257.492188 C 149.308594 255.496094 144.167969 252.957031 142 248.578125 C 140.671875 245.902344 140.828125 242.519531 142.078125 239.824219 C 142.800781 238.261719 144.324219 237.085938 146.027344 236.792969 C 146.320312 236.734375 146.964844 236.832031 147.511719 236.851562 C 147.628906 236.929688 147.84375 236.929688 147.902344 236.910156 Z M 201.078125 266.1875 C 201.058594 266.1875 205.144531 266.050781 206.160156 265.992188 C 217.0625 265.269531 229.726562 261.554688 237.328125 253.289062 C 238.425781 252.097656 239.753906 250.570312 240.574219 248.929688 C 241.355469 247.40625 241.707031 245.746094 240.945312 244.144531 C 240.632812 243.476562 240.105469 242.949219 239.597656 242.441406 C 238.992188 241.835938 238.40625 241.230469 238.015625 240.488281 C 237.523438 239.511719 237.425781 238.632812 237.25 237.832031 C 237.152344 237.359375 237.035156 236.929688 236.703125 236.539062 C 236.351562 236.128906 235.785156 235.796875 234.828125 235.484375 C 234.144531 235.25 233.675781 235.582031 233.265625 236.011719 C 232.894531 236.402344 232.582031 236.871094 232.230469 237.28125 C 230.664062 239.101562 228.945312 240.742188 227.148438 242.34375 C 220.640625 248.1875 214.503906 252.839844 205.359375 252.976562 C 198.675781 253.074219 192.382812 250.453125 186.421875 246.9375 C 180.558594 243.476562 175.046875 239.179688 169.808594 235.855469 C 166.273438 233.609375 162.382812 230.636719 158.179688 229.796875 C 156.890625 229.542969 155.640625 229.914062 154.527344 230.597656 C 152.730469 231.695312 151.203125 233.589844 150.148438 235.132812 C 149.875 235.542969 149.660156 236.148438 149.386719 236.695312 C 149.152344 237.144531 148.898438 237.558594 148.585938 237.8125 C 148.410156 237.949219 148.097656 238.046875 147.707031 238.066406 C 147.199219 238.085938 146.476562 237.949219 146.183594 237.988281 C 144.851562 238.222656 143.660156 239.140625 143.09375 240.371094 C 141.980469 242.753906 141.84375 245.746094 143.015625 248.128906 C 145.066406 252.273438 150.011719 254.617188 153.980469 256.511719 C 163.671875 261.125 174.441406 264.273438 185.054688 265.679688 C 189.097656 266.207031 193.242188 266.636719 197.324219 266.578125 C 197.519531 266.578125 200.355469 266.226562 200.921875 266.167969 C 200.980469 266.1875 201.019531 266.1875 201.078125 266.1875 Z M 201.078125 266.1875 " fill-opacity="1" fill-rule="evenodd"/><path fill="#f65245" d="M 205.261719 256.707031 C 204.929688 257.175781 204.105469 256.550781 203.539062 256.628906 C 201.976562 256.882812 200.394531 257.511719 198.988281 258.175781 C 194.628906 260.246094 190.777344 263.214844 187.867188 267.105469 C 184.796875 271.171875 183.175781 276.074219 182.394531 281.078125 C 181.613281 286.023438 181.75 291.066406 181.105469 296.027344 C 180.988281 296.886719 179.796875 300.210938 180.421875 300.933594 C 181.066406 301.65625 182.882812 300.660156 183.507812 300.386719 C 186.675781 299.019531 189.78125 297.300781 192.65625 295.402344 C 201.234375 289.753906 209.128906 281 211.632812 270.800781 C 212.648438 266.675781 212.863281 260.363281 208.679688 257.765625 C 208.074219 257.394531 205.261719 256.707031 205.261719 256.707031 Z M 205.261719 256.707031 " fill-opacity="1" fill-rule="evenodd"/><path fill="#000000" d="M 204.851562 256.296875 C 204.988281 256.160156 205.183594 256.101562 205.378906 256.140625 C 205.378906 256.140625 208.328125 256.863281 208.953125 257.277344 C 210.75 258.390625 211.808594 260.148438 212.355469 262.140625 C 213.117188 265.015625 212.804688 268.375 212.179688 270.9375 C 209.636719 281.273438 201.664062 290.164062 192.949219 295.890625 C 190.035156 297.808594 186.910156 299.527344 183.703125 300.914062 C 183.234375 301.109375 182.121094 301.695312 181.261719 301.753906 C 180.714844 301.792969 180.265625 301.65625 179.953125 301.304688 C 179.816406 301.148438 179.71875 300.933594 179.660156 300.660156 C 179.601562 300.386719 179.601562 300.035156 179.660156 299.644531 C 179.796875 298.355469 180.421875 296.554688 180.5 295.949219 C 181.144531 290.988281 181.007812 285.945312 181.789062 280.980469 C 182.589844 275.898438 184.25 270.898438 187.378906 266.753906 C 190.347656 262.804688 194.257812 259.777344 198.714844 257.667969 C 200.179688 256.960938 201.820312 256.316406 203.441406 256.0625 C 203.734375 256.023438 204.105469 256.101562 204.457031 256.199219 C 204.574219 256.238281 204.769531 256.277344 204.851562 256.296875 Z M 205.398438 257.335938 C 205.164062 257.472656 204.871094 257.492188 204.554688 257.414062 C 204.359375 257.375 204.144531 257.296875 203.949219 257.234375 C 203.832031 257.195312 203.734375 257.175781 203.636719 257.175781 C 202.132812 257.414062 200.609375 258.019531 199.242188 258.683594 C 194.960938 260.714844 191.1875 263.625 188.335938 267.4375 C 185.328125 271.425781 183.742188 276.25 182.980469 281.15625 C 182.199219 286.101562 182.335938 291.144531 181.710938 296.105469 C 181.652344 296.632812 181.183594 298.042969 180.949219 299.253906 C 180.890625 299.605469 180.832031 299.957031 180.832031 300.230469 C 180.832031 300.308594 180.832031 300.40625 180.851562 300.464844 C 180.851562 300.503906 180.851562 300.523438 180.871094 300.542969 C 180.929688 300.601562 181.007812 300.601562 181.085938 300.601562 C 181.222656 300.601562 181.359375 300.582031 181.496094 300.5625 C 182.179688 300.40625 182.941406 299.996094 183.292969 299.859375 C 186.441406 298.492188 189.507812 296.789062 192.363281 294.914062 C 200.84375 289.34375 208.621094 280.707031 211.101562 270.644531 C 211.691406 268.257812 212.023438 265.09375 211.296875 262.414062 C 210.828125 260.714844 209.949219 259.191406 208.40625 258.234375 C 207.917969 257.960938 206.101562 257.492188 205.398438 257.335938 Z M 205.398438 257.335938 " fill-opacity="1" fill-rule="evenodd"/><path fill="#f65245" d="M 218.570312 254.734375 C 218.746094 254.558594 218.082031 254.8125 217.863281 254.890625 C 217.472656 255.046875 217.101562 255.261719 216.75 255.476562 C 215.597656 256.21875 214.699219 257.414062 214.074219 258.625 C 212.140625 262.472656 212.824219 266.792969 214.269531 270.703125 C 217.785156 280.296875 225.488281 286.53125 235.101562 289.304688 C 236.878906 289.8125 238.699219 290.203125 240.496094 290.675781 C 241.101562 290.832031 242.195312 291.320312 242.839844 291.085938 C 243.582031 290.8125 243.289062 288.953125 243.210938 288.40625 C 242.820312 285.261719 242.078125 282.09375 241.21875 279.046875 C 238.308594 268.921875 232.464844 257.628906 221.34375 254.929688 C 220.796875 254.832031 218.570312 254.734375 218.570312 254.734375 Z M 218.570312 254.734375 " fill-opacity="1" fill-rule="evenodd"/><path fill="#000000" d="M 218.863281 254.167969 C 219.488281 254.207031 221.03125 254.285156 221.480469 254.402344 C 232.796875 257.136719 238.796875 268.589844 241.765625 278.910156 C 242.644531 281.976562 243.386719 285.164062 243.777344 288.347656 C 243.835938 288.757812 243.992188 289.890625 243.816406 290.636719 C 243.699219 291.144531 243.425781 291.496094 243.035156 291.632812 C 242.703125 291.769531 242.253906 291.75 241.785156 291.652344 C 241.257812 291.535156 240.710938 291.320312 240.339844 291.222656 C 238.542969 290.753906 236.722656 290.382812 234.925781 289.851562 C 225.117188 287.019531 217.296875 280.648438 213.703125 270.898438 C 212.21875 266.851562 211.535156 262.375 213.546875 258.371094 C 214.210938 257.058594 215.167969 255.789062 216.417969 254.988281 C 216.789062 254.734375 217.199219 254.519531 217.628906 254.34375 C 217.785156 254.285156 218.160156 254.148438 218.355469 254.109375 C 218.511719 254.070312 218.628906 254.089844 218.707031 254.109375 C 218.785156 254.128906 218.824219 254.148438 218.863281 254.167969 Z M 242.625 290.578125 C 242.625 290.558594 242.664062 290.519531 242.683594 290.480469 C 242.722656 290.382812 242.742188 290.261719 242.761719 290.144531 C 242.820312 289.539062 242.703125 288.796875 242.664062 288.503906 C 242.273438 285.378906 241.550781 282.25 240.671875 279.242188 C 237.796875 269.292969 232.132812 258.175781 221.207031 255.535156 C 220.679688 255.417969 218.550781 255.320312 218.550781 255.320312 C 218.53125 255.320312 218.492188 255.320312 218.472656 255.300781 C 218.335938 255.339844 218.160156 255.398438 218.082031 255.4375 C 217.726562 255.574219 217.394531 255.769531 217.082031 255.964844 C 216.007812 256.667969 215.1875 257.765625 214.601562 258.898438 C 212.726562 262.609375 213.429688 266.773438 214.816406 270.507812 C 218.277344 279.925781 225.820312 286.023438 235.277344 288.757812 C 237.054688 289.265625 238.855469 289.65625 240.652344 290.105469 C 241.003906 290.203125 241.550781 290.421875 242.039062 290.519531 C 242.253906 290.597656 242.46875 290.636719 242.625 290.578125 Z M 242.625 290.578125 " fill-opacity="1" fill-rule="evenodd"/><path fill="#000000" d="M 190.5625 288.542969 C 190.582031 288.777344 190.464844 289.011719 190.230469 289.109375 C 189.957031 289.226562 189.761719 289.167969 189.664062 289.109375 C 189.488281 289.011719 189.332031 288.855469 189.332031 288.582031 C 189.332031 288.503906 189.351562 288.367188 189.429688 288.191406 C 189.527344 287.976562 189.78125 287.605469 189.878906 287.429688 C 190.191406 286.765625 190.503906 286.082031 190.835938 285.417969 C 191.835938 283.421875 192.910156 281.449219 194.023438 279.535156 C 197.207031 274.042969 200.863281 267.691406 205.847656 263.566406 C 206.082031 263.371094 206.453125 263.390625 206.648438 263.644531 C 206.84375 263.882812 206.824219 264.253906 206.570312 264.449219 C 201.683594 268.492188 198.105469 274.726562 195 280.101562 C 193.886719 282.015625 192.832031 283.953125 191.855469 285.925781 C 191.519531 286.589844 191.207031 287.253906 190.894531 287.917969 C 190.855469 288.054688 190.679688 288.347656 190.5625 288.542969 Z M 190.5625 288.542969 " fill-opacity="1" fill-rule="evenodd"/><path fill="#000000" d="M 219.195312 263.273438 C 219.273438 263.46875 219.371094 263.664062 219.46875 263.859375 C 219.742188 264.449219 220.054688 264.996094 220.367188 265.5625 C 221.402344 267.398438 222.574219 269.15625 223.824219 270.878906 C 227.519531 275.957031 232.054688 280.101562 237.367188 283.421875 C 237.640625 283.597656 237.71875 283.953125 237.542969 284.207031 C 237.367188 284.480469 237.015625 284.558594 236.761719 284.382812 C 231.332031 280.980469 226.679688 276.738281 222.886719 271.542969 C 221.617188 269.800781 220.40625 268.003906 219.351562 266.109375 C 219.019531 265.523438 218.707031 264.9375 218.433594 264.351562 C 218.335938 264.136719 218.21875 263.902344 218.121094 263.683594 C 218.101562 263.625 218.0625 263.46875 218.039062 263.351562 C 217.980469 263.234375 217.960938 263.117188 218 262.980469 C 218.101562 262.492188 218.492188 262.511719 218.589844 262.511719 C 218.726562 262.511719 218.941406 262.570312 219.078125 262.804688 C 219.097656 262.84375 219.136719 262.902344 219.15625 263.019531 C 219.175781 263.058594 219.195312 263.234375 219.195312 263.273438 Z M 219.019531 263.449219 C 219.058594 263.390625 219.097656 263.332031 219.117188 263.214844 C 219.117188 263.3125 219.078125 263.390625 219.019531 263.449219 Z M 219.019531 263.449219 " fill-opacity="1" fill-rule="evenodd"/><path fill="#f65245" d="M 219.019531 252.253906 C 218.316406 251.042969 216.808594 250.0625 214.738281 250.023438 C 213.46875 250.003906 212.160156 250.53125 210.925781 250.886719 C 204.613281 252.664062 202.445312 257.433594 206.160156 263.195312 C 206.785156 264.175781 207.546875 265.074219 208.425781 265.835938 C 209.5 266.773438 210.75 267.984375 212.238281 268.160156 C 214.191406 268.375 215.851562 266.460938 216.90625 265.074219 C 219.976562 261.046875 221.597656 256.6875 219.019531 252.253906 Z M 219.019531 252.253906 " fill-opacity="1" fill-rule="evenodd"/><path fill="#000000" d="M 219.644531 251.785156 C 222.417969 256.550781 220.738281 261.261719 217.433594 265.582031 C 216.75 266.480469 215.8125 267.59375 214.738281 268.277344 C 213.9375 268.785156 213.058594 269.078125 212.121094 268.980469 C 210.457031 268.804688 209.070312 267.496094 207.878906 266.460938 C 206.941406 265.640625 206.121094 264.683594 205.4375 263.625 C 203.402344 260.460938 203.011719 257.570312 203.96875 255.222656 C 204.929688 252.898438 207.214844 251.082031 210.652344 250.101562 C 211.964844 249.730469 213.371094 249.183594 214.738281 249.203125 C 217.121094 249.261719 218.824219 250.394531 219.644531 251.785156 Z M 218.648438 252.351562 C 218 251.238281 216.613281 250.394531 214.71875 250.355469 C 213.46875 250.335938 212.179688 250.867188 210.964844 251.21875 C 207.9375 252.078125 205.867188 253.621094 205.027344 255.671875 C 204.183594 257.726562 204.59375 260.246094 206.394531 263.019531 C 207.019531 263.980469 207.742188 264.859375 208.621094 265.621094 C 209.636719 266.519531 210.808594 267.710938 212.238281 267.867188 C 213.097656 267.964844 213.878906 267.554688 214.5625 267.007812 C 215.34375 266.402344 215.988281 265.582031 216.515625 264.898438 C 219.507812 260.949219 221.167969 256.6875 218.648438 252.351562 Z M 218.648438 252.351562 " fill-opacity="1" fill-rule="evenodd"/><path fill="#000000" d="M 196.796875 258.449219 C 196.855469 258.449219 196.914062 258.449219 196.972656 258.449219 C 197.539062 258.566406 197.480469 259.09375 197.480469 259.132812 C 197.460938 259.210938 197.382812 259.582031 196.914062 259.601562 C 196.816406 259.601562 196.191406 259.523438 195.957031 259.484375 C 195.429688 259.40625 194.921875 259.289062 194.394531 259.171875 C 193.027344 258.859375 191.660156 258.507812 190.289062 258.175781 C 185.992188 257.078125 181.769531 255.769531 177.585938 254.285156 C 177.292969 254.1875 177.136719 253.855469 177.234375 253.5625 C 177.332031 253.269531 177.664062 253.113281 177.957031 253.210938 C 182.101562 254.695312 186.285156 256.003906 190.542969 257.078125 C 191.894531 257.433594 193.261719 257.765625 194.628906 258.078125 C 195.117188 258.195312 195.625 258.292969 196.113281 258.371094 C 196.289062 258.390625 196.601562 258.429688 196.796875 258.449219 Z M 196.796875 258.449219 " fill-opacity="1" fill-rule="evenodd"/><path fill="#000000" d="M 147.277344 236.910156 C 147.453125 236.96875 148.585938 237.28125 148.664062 237.300781 C 150.265625 237.851562 151.828125 238.496094 153.355469 239.21875 C 158.984375 241.835938 164.121094 245.296875 169.457031 248.421875 C 169.730469 248.578125 169.828125 248.929688 169.671875 249.203125 C 169.515625 249.476562 169.164062 249.574219 168.890625 249.417969 C 163.574219 246.332031 158.472656 242.871094 152.886719 240.273438 C 151.378906 239.570312 149.875 238.945312 148.3125 238.417969 C 148.214844 238.378906 147.023438 238.085938 146.769531 237.96875 C 146.496094 237.832031 146.4375 237.636719 146.417969 237.558594 C 146.339844 237.242188 146.535156 236.949219 146.847656 236.871094 C 146.984375 236.792969 147.160156 236.8125 147.277344 236.910156 Z M 147.277344 236.910156 " fill-opacity="1" fill-rule="evenodd"/><path fill="#000000" d="M 222.027344 255.613281 C 221.714844 255.671875 221.421875 255.457031 221.363281 255.164062 C 221.304688 254.851562 221.519531 254.558594 221.8125 254.5 C 223.355469 254.207031 225.117188 252.820312 226.40625 252 C 229.980469 249.75 233.304688 247.210938 236.058594 244.003906 C 236.273438 243.769531 236.625 243.730469 236.859375 243.945312 C 237.09375 244.164062 237.132812 244.515625 236.917969 244.75 C 234.085938 248.050781 230.683594 250.648438 227.011719 252.976562 C 225.625 253.835938 223.707031 255.320312 222.027344 255.613281 Z M 222.027344 255.613281 " fill-opacity="1" fill-rule="evenodd"/><path fill="#000000" d="M 212.765625 268.863281 C 212.648438 269.097656 212.375 269.234375 212.101562 269.15625 C 211.789062 269.078125 211.613281 268.765625 211.691406 268.453125 C 211.769531 268.179688 211.945312 267.984375 212.199219 267.847656 C 212.335938 267.789062 212.492188 267.730469 212.648438 267.691406 C 212.746094 267.671875 212.84375 267.671875 212.921875 267.613281 C 213.488281 267.125 213.878906 266.402344 214.210938 265.738281 C 215.988281 262.316406 215.792969 257.414062 213.039062 254.539062 C 212.824219 254.304688 212.824219 253.953125 213.058594 253.738281 C 213.292969 253.523438 213.644531 253.523438 213.859375 253.757812 C 216.925781 256.980469 217.199219 262.453125 215.207031 266.285156 C 214.796875 267.066406 214.328125 267.90625 213.644531 268.492188 C 213.46875 268.648438 213.214844 268.746094 212.941406 268.804688 C 212.921875 268.824219 212.824219 268.84375 212.765625 268.863281 Z M 212.765625 268.863281 " fill-opacity="1" fill-rule="evenodd"/><path fill="#000000" d="M 148.761719 207.96875 C 148.683594 208.242188 148.566406 207.402344 148.488281 207.128906 C 148.3125 206.523438 148.175781 205.9375 148.039062 205.332031 C 147.648438 203.589844 147.179688 201.871094 146.789062 200.132812 C 145.617188 194.914062 143.425781 187.996094 145.8125 182.855469 C 147.179688 179.90625 150.226562 178.011719 153.140625 176.835938 C 160.136719 174.023438 171.097656 172.207031 177.332031 177.65625 C 180.578125 180.492188 181.4375 185.183594 181.378906 189.285156 C 181.222656 197.90625 176.707031 207.714844 168.851562 211.898438 C 162.96875 215.023438 154.566406 214.808594 149.992188 209.394531 C 149.71875 209.082031 148.761719 207.96875 148.761719 207.96875 Z M 148.761719 207.96875 " fill-opacity="1" fill-rule="evenodd"/><path fill="#000000" d="M 148.527344 208.574219 C 148.449219 208.535156 148.371094 208.496094 148.292969 208.398438 C 148.253906 208.339844 148.175781 208.242188 148.117188 208.085938 C 148.058594 207.890625 147.980469 207.460938 147.941406 207.285156 C 147.765625 206.679688 147.628906 206.074219 147.492188 205.449219 C 147.101562 203.707031 146.632812 201.988281 146.242188 200.25 C 145.539062 197.101562 144.441406 193.3125 144.226562 189.675781 C 144.070312 187.175781 144.304688 184.734375 145.300781 182.582031 C 146.730469 179.496094 149.894531 177.5 152.945312 176.269531 C 157.203125 174.550781 162.929688 173.203125 168.207031 173.59375 C 171.785156 173.867188 175.144531 174.921875 177.722656 177.167969 C 181.105469 180.121094 182.042969 184.96875 181.964844 189.226562 C 181.808594 198.042969 177.175781 208.046875 169.125 212.328125 C 163.007812 215.570312 154.3125 215.316406 149.5625 209.6875 C 149.367188 209.53125 148.820312 208.925781 148.527344 208.574219 Z M 149.171875 207.578125 C 149.171875 207.578125 149.191406 207.597656 149.191406 207.597656 C 149.191406 207.597656 150.167969 208.710938 150.402344 209.003906 C 154.800781 214.222656 162.890625 214.378906 168.558594 211.371094 C 176.257812 207.265625 180.636719 197.667969 180.792969 189.246094 C 180.871094 185.300781 180.070312 180.785156 176.941406 178.070312 C 174.539062 175.976562 171.410156 175 168.089844 174.765625 C 163.007812 174.394531 157.476562 175.703125 153.355469 177.363281 C 150.558594 178.480469 147.628906 180.277344 146.320312 183.089844 C 145.164062 185.574219 145.144531 188.484375 145.519531 191.398438 C 145.910156 194.40625 146.75 197.414062 147.335938 200.015625 C 147.726562 201.753906 148.195312 203.472656 148.585938 205.214844 C 148.722656 205.820312 148.859375 206.40625 149.035156 206.992188 C 149.054688 207.089844 149.132812 207.382812 149.171875 207.578125 Z M 149.171875 207.578125 " fill-opacity="1" fill-rule="evenodd"/><path fill="#ffd0ad" d="M 249.582031 179.828125 C 249.191406 179.261719 249.816406 181.175781 249.894531 181.859375 C 250.070312 183.460938 250.089844 185.046875 250.070312 186.648438 C 250.03125 191.4375 249.71875 196.300781 248.976562 201.03125 C 246.730469 215.316406 240.261719 230.207031 228.691406 239.199219 C 212.550781 251.746094 179.71875 246.332031 163.925781 234.664062 C 160.351562 232.027344 158.769531 229.933594 156.441406 225.1875 C 156.441406 225.1875 147.6875 225.929688 143.640625 217.132812 C 141.21875 211.859375 141.980469 201.382812 149.09375 200.09375 C 152.28125 199.527344 155.601562 201.558594 157.300781 204.195312 C 157.691406 204.804688 159.335938 209.394531 160 209.121094 C 166.332031 206.503906 171.371094 193.429688 172.839844 187.351562 C 173.425781 184.910156 173.445312 180.628906 175.066406 178.597656 C 178.507812 174.277344 186.851562 172.714844 191.757812 171.542969 C 208.191406 167.632812 226.09375 167.886719 242.078125 173.769531 C 243.875 174.433594 249.582031 179.828125 249.582031 179.828125 Z M 249.582031 179.828125 " fill-opacity="1" fill-rule="evenodd"/><path fill="#000000" d="M 160.039062 208.476562 C 162.382812 207.402344 164.511719 204.824219 166.351562 201.773438 C 169.28125 196.90625 171.410156 190.828125 172.273438 187.214844 C 172.625 185.75 172.78125 183.617188 173.191406 181.722656 C 173.484375 180.355469 173.914062 179.105469 174.617188 178.226562 C 176.042969 176.425781 178.289062 175.078125 180.792969 174.042969 C 184.445312 172.539062 188.648438 171.679688 191.621094 170.972656 C 208.171875 167.046875 226.191406 167.300781 242.273438 173.222656 C 242.839844 173.4375 243.796875 174.082031 244.855469 174.921875 C 246.828125 176.484375 249.171875 178.65625 249.816406 179.261719 C 249.894531 179.320312 249.972656 179.398438 250.070312 179.515625 C 250.1875 179.691406 250.207031 179.925781 250.109375 180.121094 C 250.226562 180.628906 250.441406 181.429688 250.480469 181.820312 C 250.65625 183.441406 250.675781 185.046875 250.675781 186.667969 C 250.636719 191.496094 250.324219 196.359375 249.5625 201.128906 C 247.296875 215.550781 240.75 230.578125 229.0625 239.667969 C 222.515625 244.75 213.253906 246.957031 203.480469 246.976562 C 188.902344 247.015625 173.152344 242.207031 163.613281 235.152344 C 160.058594 232.515625 158.394531 230.421875 156.128906 225.792969 C 154.332031 225.8125 146.847656 225.441406 143.152344 217.386719 C 141.648438 214.105469 141.316406 208.886719 142.898438 204.941406 C 143.992188 202.222656 145.96875 200.113281 149.035156 199.566406 C 152.4375 198.960938 156.011719 201.089844 157.808594 203.921875 C 158.082031 204.355469 158.984375 206.738281 159.726562 208.046875 C 159.804688 208.183594 159.941406 208.359375 160.039062 208.476562 Z M 248.898438 179.964844 C 248.136719 179.261719 245.96875 177.265625 244.128906 175.800781 C 243.210938 175.078125 242.371094 174.472656 241.863281 174.296875 C 225.996094 168.453125 208.210938 168.21875 191.875 172.089844 C 188.960938 172.773438 184.796875 173.613281 181.222656 175.097656 C 178.917969 176.054688 176.824219 177.285156 175.496094 178.949219 C 174.890625 179.691406 174.558594 180.785156 174.304688 181.957031 C 173.894531 183.871094 173.738281 186.003906 173.386719 187.46875 C 172.507812 191.164062 170.316406 197.375 167.328125 202.339844 C 165.277344 205.742188 162.851562 208.535156 160.214844 209.628906 C 160.039062 209.707031 159.863281 209.707031 159.667969 209.628906 C 159.492188 209.570312 159.257812 209.394531 159.042969 209.082031 C 158.257812 208.027344 157.125 204.960938 156.832031 204.472656 C 155.269531 202.007812 152.183594 200.09375 149.210938 200.621094 C 146.574219 201.089844 144.890625 202.945312 143.953125 205.3125 C 142.488281 208.964844 142.78125 213.8125 144.167969 216.859375 C 148.039062 225.285156 156.402344 224.582031 156.402344 224.582031 C 156.636719 224.5625 156.871094 224.679688 156.96875 224.894531 C 159.238281 229.542969 160.78125 231.597656 164.277344 234.175781 C 173.660156 241.113281 189.136719 245.824219 203.460938 245.785156 C 212.960938 245.765625 221.96875 243.671875 228.339844 238.730469 C 239.792969 229.835938 246.183594 215.0625 248.410156 200.914062 C 249.152344 196.203125 249.464844 191.378906 249.503906 186.628906 C 249.523438 185.046875 249.484375 183.480469 249.328125 181.898438 C 249.289062 181.527344 249.074219 180.804688 248.976562 180.316406 C 248.9375 180.199219 248.917969 180.082031 248.898438 179.964844 Z M 248.898438 179.964844 " fill-opacity="1" fill-rule="evenodd"/><path fill="#000000" d="M 148.683594 204.765625 C 148.742188 204.785156 148.78125 204.804688 148.820312 204.824219 C 148.957031 204.902344 149.074219 205 149.210938 205.078125 C 149.5625 205.332031 149.894531 205.625 150.226562 205.917969 C 151.125 206.757812 151.988281 207.695312 152.671875 208.730469 C 154.664062 211.839844 155.054688 215.765625 155.054688 219.382812 C 155.054688 219.695312 154.800781 219.949219 154.488281 219.949219 C 154.175781 219.949219 153.921875 219.695312 153.921875 219.382812 C 153.921875 215.980469 153.589844 212.269531 151.710938 209.355469 C 151.085938 208.398438 150.285156 207.539062 149.464844 206.757812 C 149.171875 206.484375 148.878906 206.230469 148.566406 206.015625 C 148.46875 205.957031 148.390625 205.878906 148.292969 205.820312 C 148.234375 205.800781 148.136719 205.761719 148.097656 205.742188 C 148 205.683594 147.941406 205.625 147.902344 205.566406 C 147.824219 205.449219 147.785156 205.332031 147.785156 205.214844 C 147.785156 205.097656 147.824219 204.941406 147.960938 204.804688 C 148.136719 204.589844 148.449219 204.570312 148.683594 204.765625 Z M 148.78125 205.527344 C 148.761719 205.546875 148.742188 205.585938 148.722656 205.605469 C 148.742188 205.585938 148.761719 205.566406 148.78125 205.527344 Z M 148.78125 205.527344 " fill-opacity="1" fill-rule="evenodd"/><path fill="#000000" d="M 223.296875 202.867188 C 223.21875 203.492188 223.179688 204.15625 223.179688 204.84375 C 223.179688 209.355469 225.078125 213.011719 227.382812 213.011719 C 229.707031 213.011719 231.585938 209.335938 231.585938 204.84375 C 231.585938 200.328125 229.6875 196.671875 227.382812 196.671875 C 226.191406 196.671875 225.097656 197.648438 224.332031 199.214844 C 224.625 199.019531 224.941406 198.902344 225.273438 198.902344 C 226.425781 198.902344 227.382812 200.230469 227.382812 201.871094 C 227.382812 203.511719 226.445312 204.84375 225.273438 204.84375 C 224.351562 204.824219 223.589844 204 223.296875 202.867188 Z M 223.296875 202.867188 " fill-opacity="1" fill-rule="evenodd"/><path fill="#000000" d="M 187.769531 198.375 C 187.691406 199 187.652344 199.664062 187.652344 200.347656 C 187.652344 204.863281 189.546875 208.515625 191.855469 208.515625 C 194.179688 208.515625 196.054688 204.863281 196.054688 200.347656 C 196.054688 195.832031 194.160156 192.179688 191.855469 192.179688 C 190.660156 192.179688 189.566406 193.15625 188.804688 194.71875 C 189.097656 194.523438 189.410156 194.40625 189.742188 194.40625 C 190.894531 194.40625 191.855469 195.734375 191.855469 197.375 C 191.855469 199.019531 190.914062 200.347656 189.742188 200.347656 C 188.824219 200.347656 188.0625 199.527344 187.769531 198.375 Z M 187.769531 198.375 " fill-opacity="1" fill-rule="evenodd"/><path fill="#000000" d="M 213.039062 228.761719 C 213.175781 228.664062 213.351562 228.625 213.527344 228.683594 C 213.820312 228.78125 213.996094 229.09375 213.898438 229.40625 C 213.859375 229.5625 213.683594 229.796875 213.332031 229.875 C 212.941406 229.972656 212.042969 229.953125 211.847656 229.953125 C 210.066406 229.953125 208.308594 229.777344 206.550781 229.523438 C 199.886719 228.566406 192.8125 226.261719 187.535156 221.902344 C 187.300781 221.707031 187.261719 221.335938 187.457031 221.101562 C 187.652344 220.867188 188.023438 220.828125 188.257812 221.023438 C 193.378906 225.246094 200.238281 227.453125 206.707031 228.390625 C 208.40625 228.644531 210.125 228.800781 211.847656 228.820312 C 212.003906 228.800781 212.863281 228.78125 213.039062 228.761719 Z M 213.039062 228.761719 " fill-opacity="1" fill-rule="evenodd"/><path fill="#000000" d="M 184.152344 220.222656 C 184.191406 220.242188 184.25 220.242188 184.269531 220.261719 C 184.445312 220.320312 184.621094 220.378906 184.796875 220.417969 C 185.289062 220.554688 185.796875 220.652344 186.304688 220.691406 C 187.964844 220.867188 189.46875 220.359375 190.699219 219.246094 C 190.933594 219.03125 191.304688 219.050781 191.5 219.285156 C 191.71875 219.519531 191.699219 219.871094 191.460938 220.085938 C 189.976562 221.414062 188.160156 222.019531 186.1875 221.804688 C 185.621094 221.746094 185.054688 221.628906 184.503906 221.492188 C 184.308594 221.433594 184.09375 221.375 183.898438 221.296875 C 183.859375 221.277344 183.683594 221.257812 183.625 221.238281 C 183.507812 221.199219 183.429688 221.121094 183.390625 221.0625 C 183.292969 220.945312 183.253906 220.828125 183.253906 220.691406 C 183.253906 220.574219 183.273438 220.417969 183.429688 220.261719 C 183.625 220.085938 183.917969 220.066406 184.152344 220.222656 Z M 184.269531 221.042969 C 184.25 221.0625 184.230469 221.082031 184.210938 221.101562 C 184.230469 221.082031 184.25 221.0625 184.269531 221.042969 Z M 184.269531 221.042969 " fill-opacity="1" fill-rule="evenodd"/><path fill="#000000" d="M 218.101562 194.40625 C 218.121094 194.328125 218.160156 194.269531 218.21875 194.210938 C 218.433594 193.976562 218.804688 193.976562 219.019531 194.191406 C 219.058594 194.230469 219.3125 194.464844 219.15625 194.855469 C 219.117188 194.953125 218.863281 195.441406 218.84375 195.460938 C 218.550781 196.125 218.335938 196.808594 218.140625 197.492188 C 217.296875 200.308594 216.789062 203.121094 216.789062 206.074219 C 216.789062 206.796875 216.808594 207.519531 216.867188 208.242188 C 216.867188 208.261719 216.867188 208.28125 216.867188 208.300781 C 217.21875 208.261719 217.589844 208.300781 217.921875 208.398438 C 219.527344 208.828125 220.660156 210.253906 221.109375 211.800781 C 221.304688 212.523438 221.382812 213.265625 221.304688 214.007812 C 221.03125 216.742188 219.195312 218.542969 216.867188 219.382812 C 214.601562 220.203125 211.867188 220.125 209.753906 219.128906 C 209.460938 218.992188 209.34375 218.660156 209.480469 218.367188 C 209.617188 218.074219 209.949219 217.957031 210.242188 218.09375 C 212.101562 218.972656 214.484375 219.03125 216.476562 218.308594 C 218.394531 217.601562 219.957031 216.136719 220.171875 213.890625 C 220.230469 213.285156 220.171875 212.679688 220.015625 212.09375 C 219.683594 210.917969 218.863281 209.804688 217.648438 209.492188 C 217.414062 209.433594 217.179688 209.414062 216.945312 209.433594 C 216.867188 209.433594 216.632812 209.472656 216.4375 209.492188 C 216.125 209.53125 215.851562 209.296875 215.8125 208.984375 C 215.8125 208.984375 215.753906 208.457031 215.734375 208.339844 C 215.65625 207.578125 215.636719 206.816406 215.65625 206.054688 C 215.675781 203.003906 216.183594 200.074219 217.0625 197.160156 C 217.277344 196.417969 217.511719 195.695312 217.824219 194.992188 C 217.804688 194.953125 218.0625 194.484375 218.101562 194.40625 Z M 218.101562 194.40625 " fill-opacity="1" fill-rule="evenodd"/><path fill="#000000" d="M 208.035156 191.4375 C 208.132812 191.339844 206.921875 190.398438 206.882812 190.359375 C 205.320312 189.148438 203.558594 188.152344 201.78125 187.292969 C 196.171875 184.597656 188.960938 183.148438 182.941406 185.378906 C 181.4375 185.945312 179.992188 186.726562 178.742188 187.742188 C 178.371094 188.054688 177.722656 188.542969 177.644531 189.070312 C 177.546875 189.8125 179.386719 189.65625 179.738281 189.65625 C 182.394531 189.636719 185.054688 189.480469 187.710938 189.558594 C 194.042969 189.714844 200.179688 190.730469 206.355469 192.101562 C 206.726562 192.160156 208.035156 191.4375 208.035156 191.4375 Z M 208.035156 191.4375 " fill-opacity="1" fill-rule="evenodd"/><path fill="#000000" d="M 208.308594 191.945312 C 208.308594 191.945312 207.625 192.316406 207.078125 192.53125 C 206.726562 192.667969 206.414062 192.6875 206.238281 192.648438 C 200.101562 191.28125 194.003906 190.28125 187.710938 190.105469 C 185.054688 190.027344 182.414062 190.203125 179.757812 190.203125 C 179.464844 190.203125 178.390625 190.261719 177.78125 190.027344 C 177.273438 189.832031 177.019531 189.460938 177.078125 188.972656 C 177.117188 188.660156 177.273438 188.347656 177.507812 188.074219 C 177.761719 187.761719 178.113281 187.488281 178.371094 187.273438 C 179.660156 186.21875 181.164062 185.398438 182.726562 184.8125 C 188.882812 182.523438 196.269531 183.988281 202.015625 186.746094 C 203.832031 187.625 205.613281 188.640625 207.214844 189.871094 C 207.253906 189.890625 207.761719 190.300781 208.113281 190.613281 C 208.308594 190.789062 208.464844 190.964844 208.523438 191.0625 C 208.71875 191.398438 208.582031 191.652344 208.464844 191.769531 C 208.425781 191.867188 208.367188 191.90625 208.308594 191.945312 Z M 178.269531 189.011719 C 178.289062 189.011719 178.328125 189.03125 178.347656 189.03125 C 178.507812 189.070312 178.683594 189.089844 178.859375 189.089844 C 179.25 189.109375 179.621094 189.070312 179.757812 189.070312 C 182.414062 189.050781 185.09375 188.894531 187.75 188.972656 C 194.101562 189.128906 200.257812 190.144531 206.453125 191.515625 L 207.078125 191.242188 C 206.824219 191.023438 206.570312 190.828125 206.550781 190.808594 C 205.007812 189.617188 203.304688 188.640625 201.546875 187.800781 C 196.054688 185.183594 189.019531 183.714844 183.15625 185.90625 C 181.710938 186.433594 180.324219 187.195312 179.132812 188.171875 C 178.957031 188.308594 178.722656 188.503906 178.527344 188.699219 C 178.410156 188.796875 178.308594 188.894531 178.269531 189.011719 Z M 178.269531 189.011719 " fill-opacity="1" fill-rule="evenodd"/><path fill="#000000" d="M 218.746094 194.464844 C 218.882812 194.40625 219.566406 193.644531 219.78125 193.488281 C 220.660156 192.804688 221.636719 192.199219 222.632812 191.691406 C 226.289062 189.773438 230.566406 188.992188 234.671875 189.363281 C 236.78125 189.558594 239.207031 190.066406 240.75 191.671875 C 241.101562 192.042969 242.15625 193.332031 241.472656 193.839844 C 240.945312 194.230469 239.871094 193.996094 239.285156 193.917969 C 237.445312 193.664062 235.609375 193.332031 233.773438 193.175781 C 228.652344 192.707031 223.707031 193.019531 218.980469 195.089844 C 218.84375 195.128906 218.746094 194.464844 218.746094 194.464844 Z M 218.746094 194.464844 " fill-opacity="1" fill-rule="evenodd"/><path fill="#000000" d="M 218.472656 193.957031 C 218.550781 193.878906 219.253906 193.15625 219.429688 193.019531 C 220.347656 192.316406 221.34375 191.691406 222.359375 191.164062 C 226.113281 189.207031 230.507812 188.40625 234.730469 188.777344 C 236.976562 188.972656 239.539062 189.558594 241.160156 191.261719 C 241.453125 191.574219 242.136719 192.433594 242.253906 193.117188 C 242.332031 193.585938 242.214844 193.996094 241.824219 194.289062 C 241.53125 194.523438 241.121094 194.621094 240.652344 194.621094 C 240.144531 194.621094 239.578125 194.523438 239.207031 194.464844 C 237.367188 194.210938 235.550781 193.898438 233.714844 193.722656 C 228.691406 193.273438 223.84375 193.566406 219.195312 195.578125 C 219 195.65625 218.804688 195.65625 218.609375 195.519531 C 218.53125 195.460938 218.414062 195.363281 218.335938 195.1875 C 218.238281 194.972656 218.179688 194.542969 218.179688 194.542969 C 218.140625 194.308594 218.257812 194.074219 218.472656 193.957031 Z M 219.996094 194.035156 C 224.429688 192.394531 229.042969 192.160156 233.8125 192.589844 C 235.667969 192.765625 237.503906 193.078125 239.363281 193.332031 C 239.636719 193.371094 240.046875 193.449219 240.417969 193.46875 C 240.671875 193.488281 240.945312 193.488281 241.121094 193.371094 C 241.140625 193.351562 241.121094 193.3125 241.121094 193.292969 C 241.101562 193.175781 241.0625 193.058594 240.984375 192.941406 C 240.789062 192.570312 240.476562 192.199219 240.320312 192.042969 C 238.875 190.535156 236.585938 190.085938 234.613281 189.910156 C 230.605469 189.558594 226.445312 190.320312 222.886719 192.179688 C 221.929688 192.6875 220.992188 193.253906 220.113281 193.917969 C 220.09375 193.957031 220.054688 193.996094 219.996094 194.035156 Z M 219.996094 194.035156 " fill-opacity="1" fill-rule="evenodd"/><path fill="#fff3eb" d="M 143.054688 148.109375 C 143.40625 147.914062 142.859375 148.871094 142.820312 149.261719 C 142.722656 150.003906 142.683594 150.746094 142.644531 151.492188 C 142.527344 153.582031 142.390625 155.671875 142.332031 157.761719 C 142.117188 165.210938 141.960938 172.792969 142.800781 180.199219 C 142.859375 180.6875 143.503906 186.824219 144.226562 186.980469 C 144.226562 186.980469 149.308594 185.339844 150.96875 184.929688 C 156.871094 183.5 162.890625 182.445312 168.929688 181.859375 C 187.105469 180.0625 205.671875 180.355469 223.785156 182.601562 C 230.449219 183.421875 237.113281 184.300781 243.699219 185.554688 C 244.324219 185.671875 250.050781 186.785156 250.050781 186.785156 C 250.851562 183.304688 252.417969 174.863281 252.886719 172.695312 C 253.863281 168.199219 254.703125 163.683594 255.582031 159.171875 C 257.222656 150.902344 256.207031 149.378906 247.160156 144.355469 C 244.796875 143.027344 242.3125 141.894531 239.832031 140.800781 C 218.472656 131.359375 195.390625 128.3125 172.234375 131.496094 C 162.949219 132.769531 152.789062 134.566406 145.792969 141.289062 C 144.753906 142.285156 143.054688 148.109375 143.054688 148.109375 Z M 143.054688 148.109375 " fill-opacity="1" fill-rule="evenodd"/><path fill="#000000" d="M 142.527344 148.304688 C 142.488281 148.1875 142.46875 148.070312 142.507812 147.933594 C 142.507812 147.933594 143.347656 145.042969 144.226562 142.949219 C 144.636719 141.972656 145.066406 141.171875 145.421875 140.820312 C 152.515625 134.019531 162.792969 132.164062 172.195312 130.871094 C 195.449219 127.6875 218.648438 130.753906 240.105469 140.234375 C 242.605469 141.328125 245.089844 142.5 247.492188 143.828125 C 252.144531 146.429688 254.703125 148.128906 255.914062 150.238281 C 257.144531 152.371094 257.027344 154.929688 256.1875 159.269531 C 255.289062 163.78125 254.449219 168.296875 253.472656 172.792969 C 253.003906 174.980469 251.441406 183.402344 250.636719 186.902344 C 250.558594 187.195312 250.265625 187.390625 249.972656 187.332031 C 249.972656 187.332031 244.265625 186.21875 243.621094 186.101562 C 237.035156 184.851562 230.371094 183.96875 223.726562 183.148438 C 205.652344 180.921875 187.125 180.628906 168.988281 182.40625 C 162.96875 182.992188 156.988281 184.046875 151.105469 185.457031 C 149.464844 185.847656 144.421875 187.488281 144.421875 187.488281 C 144.324219 187.507812 144.226562 187.527344 144.128906 187.507812 C 143.972656 187.488281 143.816406 187.390625 143.679688 187.234375 C 143.542969 187.078125 143.40625 186.804688 143.269531 186.414062 C 142.722656 184.714844 142.292969 180.648438 142.234375 180.238281 C 141.394531 172.792969 141.550781 165.191406 141.765625 157.722656 C 141.824219 155.613281 141.960938 153.523438 142.078125 151.429688 C 142.117188 150.667969 142.15625 149.925781 142.253906 149.164062 C 142.292969 148.988281 142.429688 148.558594 142.527344 148.304688 Z M 144.460938 186.296875 C 145.695312 185.90625 149.464844 184.695312 150.851562 184.359375 C 156.773438 182.933594 162.8125 181.878906 168.890625 181.273438 C 187.105469 179.476562 205.730469 179.769531 223.882812 182.015625 C 230.546875 182.835938 237.230469 183.714844 243.835938 184.96875 C 244.34375 185.066406 248.195312 185.808594 249.640625 186.101562 C 250.460938 182.347656 251.910156 174.628906 252.359375 172.558594 C 253.335938 168.0625 254.175781 163.546875 255.054688 159.054688 C 255.835938 155.105469 256.050781 152.78125 254.917969 150.824219 C 253.785156 148.851562 251.324219 147.289062 246.925781 144.84375 C 244.5625 143.535156 242.097656 142.402344 239.636719 141.308594 C 218.375 131.929688 195.390625 128.878906 172.351562 132.046875 C 163.183594 133.296875 153.140625 135.035156 146.222656 141.679688 C 145.929688 141.953125 145.617188 142.617188 145.28125 143.417969 C 144.617188 145.023438 143.953125 147.113281 143.71875 147.933594 C 143.71875 147.953125 143.738281 147.972656 143.738281 147.992188 C 143.757812 148.089844 143.757812 148.226562 143.71875 148.421875 C 143.660156 148.65625 143.425781 149.105469 143.40625 149.320312 C 143.328125 150.042969 143.269531 150.785156 143.230469 151.511719 C 143.113281 153.601562 142.976562 155.671875 142.917969 157.761719 C 142.703125 165.171875 142.546875 172.734375 143.386719 180.121094 C 143.425781 180.472656 143.738281 183.539062 144.1875 185.398438 C 144.265625 185.730469 144.382812 186.082031 144.460938 186.296875 Z M 144.460938 186.296875 " fill-opacity="1" fill-rule="evenodd"/><path fill="#000000" d="M 142.957031 178.8125 C 143.25 178.714844 143.875 178.480469 144.128906 178.402344 C 145.085938 178.109375 146.066406 177.871094 147.023438 177.65625 C 149.796875 176.992188 152.574219 176.386719 155.367188 175.800781 C 163.261719 174.160156 171.195312 172.890625 179.210938 172.03125 C 203.480469 169.449219 228.417969 171.207031 251.695312 178.65625 C 251.988281 178.753906 252.164062 179.066406 252.066406 179.378906 C 251.96875 179.671875 251.65625 179.847656 251.34375 179.75 C 228.222656 172.363281 203.421875 170.621094 179.328125 173.183594 C 171.351562 174.023438 163.457031 175.292969 155.601562 176.933594 C 152.828125 177.519531 150.050781 178.128906 147.296875 178.773438 C 146.359375 179.007812 145.402344 179.222656 144.460938 179.515625 C 144.109375 179.613281 143.230469 179.964844 143.113281 180.003906 C 142.664062 180.121094 142.449219 179.75 142.429688 179.710938 C 142.410156 179.691406 142.234375 179.164062 142.78125 178.910156 C 142.839844 178.832031 142.898438 178.8125 142.957031 178.8125 Z M 142.957031 178.8125 " fill-opacity="1" fill-rule="evenodd"/><path fill="#000000" d="M 171.488281 147.484375 C 171.644531 147.503906 171.175781 147.542969 171.019531 147.582031 C 170.667969 147.640625 170.316406 147.738281 169.964844 147.816406 C 169.027344 148.03125 168.109375 148.285156 167.191406 148.578125 C 164.472656 149.398438 161.796875 150.375 159.21875 151.550781 C 154.585938 153.660156 150.1875 156.394531 146.222656 159.582031 C 145.261719 160.34375 144.34375 161.144531 143.425781 161.964844 C 143.308594 162.082031 142.703125 162.765625 142.507812 162.609375 C 142.195312 162.394531 142.253906 161.261719 142.234375 160.949219 C 142.15625 159.660156 141.667969 157.136719 142.898438 156.238281 C 143.640625 155.691406 144.675781 155.535156 145.558594 155.320312 C 146.925781 154.96875 148.273438 154.578125 149.621094 154.167969 C 153.21875 153.09375 156.597656 151.292969 160.214844 150.277344 " fill-opacity="1" fill-rule="evenodd"/><path fill="#000000" d="M 240.203125 157.9375 C 240.359375 157.800781 240.535156 158.175781 240.710938 158.292969 C 241.355469 158.683594 242 159.09375 242.625 159.484375 C 245.441406 161.261719 248.273438 163 251.085938 164.761719 C 251.832031 165.210938 252.554688 165.679688 253.296875 166.128906 C 253.394531 166.1875 253.863281 166.539062 253.980469 166.402344 C 254.390625 165.992188 254.332031 164.640625 254.410156 164.132812 C 254.507812 163.566406 254.898438 162.648438 254.625 162.101562 C 254.175781 161.183594 252.457031 161.066406 251.617188 160.910156 C 248.917969 160.421875 246.242188 159.894531 243.601562 159.132812 " fill-opacity="1" fill-rule="evenodd"/><path fill="#fff3eb" d="M 184.523438 147.894531 C 175.417969 145.941406 164.785156 148.1875 156.050781 151.371094 C 149.289062 153.835938 141.121094 158.253906 133.871094 155.046875 C 113.996094 146.234375 128.300781 122.195312 143.191406 116.9375 C 162.1875 110.253906 173.933594 123.445312 190.699219 123.113281 C 197.871094 122.976562 205.828125 116.546875 212.296875 113.988281 C 225.664062 108.691406 240.730469 106.289062 254.859375 109.765625 C 260.546875 111.171875 266.292969 113.539062 270.6875 117.503906 C 282.023438 127.785156 285.25 149.339844 270.433594 158.449219 C 260.351562 164.660156 245.34375 160.675781 235.355469 155.886719 " fill-opacity="1" fill-rule="evenodd"/><path fill="#000000" d="M 184.640625 147.347656 C 184.953125 147.40625 185.152344 147.71875 185.074219 148.03125 C 185.015625 148.34375 184.699219 148.539062 184.386719 148.460938 C 175.378906 146.527344 164.863281 148.773438 156.246094 151.921875 C 152.847656 153.152344 149.09375 154.871094 145.300781 155.886719 C 141.375 156.921875 137.386719 157.234375 133.65625 155.574219 C 128.496094 153.289062 125.585938 150.003906 124.3125 146.292969 C 123.042969 142.597656 123.433594 138.476562 124.957031 134.449219 C 127.96875 126.554688 135.414062 119.089844 143.015625 116.410156 C 152.652344 113.011719 160.449219 114.652344 167.972656 117.113281 C 175.320312 119.519531 182.394531 122.722656 190.699219 122.566406 C 194.199219 122.488281 197.890625 120.867188 201.488281 118.972656 C 205.203125 117.015625 208.835938 114.75 212.082031 113.460938 C 225.566406 108.105469 240.75 105.703125 254.996094 109.199219 C 260.78125 110.625 266.605469 113.03125 271.082031 117.074219 C 282.667969 127.570312 285.875 149.613281 270.726562 158.9375 C 266.605469 161.476562 261.660156 162.355469 256.578125 162.179688 C 249.035156 161.90625 241.160156 159.308594 235.121094 156.414062 C 234.828125 156.277344 234.710938 155.945312 234.847656 155.652344 C 234.984375 155.359375 235.335938 155.242188 235.609375 155.378906 C 241.53125 158.214844 249.25 160.773438 256.617188 161.027344 C 261.464844 161.203125 266.195312 160.382812 270.121094 157.957031 C 277.332031 153.523438 280.148438 146.039062 279.777344 138.4375 C 279.40625 130.773438 275.847656 122.957031 270.296875 117.914062 C 265.980469 114.007812 260.3125 111.679688 254.722656 110.3125 C 240.710938 106.855469 225.761719 109.257812 212.511719 114.515625 C 209.285156 115.785156 205.710938 118.03125 202.035156 119.96875 C 198.265625 121.960938 194.394531 123.621094 190.71875 123.699219 C 182.277344 123.855469 175.085938 120.632812 167.601562 118.1875 C 160.3125 115.804688 152.730469 114.183594 143.386719 117.484375 C 136.078125 120.066406 128.925781 127.238281 126.035156 134.859375 C 124.605469 138.613281 124.214844 142.460938 125.386719 145.921875 C 126.5625 149.359375 129.316406 152.390625 134.105469 154.519531 C 137.601562 156.0625 141.335938 155.75 144.988281 154.773438 C 148.761719 153.777344 152.476562 152.058594 155.855469 150.824219 C 164.667969 147.621094 175.417969 145.355469 184.640625 147.347656 Z M 184.640625 147.347656 " fill-opacity="1" fill-rule="evenodd"/><path fill="#000000" d="M 198.753906 121.53125 C 198.695312 121.550781 198.402344 121.648438 198.183594 121.746094 C 197.597656 122.039062 196.933594 122.449219 196.699219 122.546875 C 194.335938 123.582031 191.972656 124.65625 189.605469 125.695312 C 182.335938 128.878906 174.65625 131.457031 166.644531 131.496094 C 166.332031 131.496094 166.078125 131.242188 166.078125 130.929688 C 166.078125 130.617188 166.332031 130.363281 166.644531 130.363281 C 174.519531 130.324219 182.023438 127.765625 189.15625 124.65625 C 191.519531 123.621094 193.886719 122.546875 196.25 121.511719 C 196.503906 121.394531 197.363281 120.867188 197.988281 120.59375 C 198.421875 120.417969 198.8125 120.378906 199.007812 120.4375 C 199.300781 120.535156 199.476562 120.847656 199.378906 121.160156 C 199.300781 121.394531 199.027344 121.570312 198.753906 121.53125 Z M 198.753906 121.53125 " fill-opacity="1" fill-rule="evenodd"/></svg>