<svg xmlns="http://www.w3.org/2000/svg" xmlns:xlink="http://www.w3.org/1999/xlink" width="2000" zoomAndPan="magnify" viewBox="0 0 1500 1499.999933" height="2000" preserveAspectRatio="xMidYMid meet" version="1.0"><defs><g/><clipPath id="f778213052"><path d="M 221.660156 221.660156 L 1278.410156 221.660156 L 1278.410156 1278.410156 L 221.660156 1278.410156 Z M 221.660156 221.660156 " clip-rule="nonzero"/></clipPath><clipPath id="4e844f4d58"><path d="M 317 541 L 483 541 L 483 810 L 317 810 Z M 317 541 " clip-rule="nonzero"/></clipPath><clipPath id="21dcd54973"><path d="M 302.039062 557.585938 L 350.867188 529.660156 L 502.792969 795.28125 L 453.964844 823.207031 Z M 302.039062 557.585938 " clip-rule="nonzero"/></clipPath><clipPath id="56a7d1d906"><path d="M 302.039062 557.585938 L 350.867188 529.660156 L 502.792969 795.28125 L 453.964844 823.207031 Z M 302.039062 557.585938 " clip-rule="nonzero"/></clipPath><clipPath id="280026b1bc"><path d="M 1004 553 L 1171 553 L 1171 818 L 1004 818 Z M 1004 553 " clip-rule="nonzero"/></clipPath><clipPath id="763084b6a3"><path d="M 1128.800781 549.742188 L 1175.761719 576.40625 L 1032.078125 829.460938 L 985.121094 802.796875 Z M 1128.800781 549.742188 " clip-rule="nonzero"/></clipPath><clipPath id="c87b2bde9e"><path d="M 1128.800781 549.742188 L 1175.761719 576.40625 L 1032.078125 829.460938 L 985.121094 802.796875 Z M 1128.800781 549.742188 " clip-rule="nonzero"/></clipPath><clipPath id="06998cb572"><rect x="0" width="780" y="0" height="290"/></clipPath><clipPath id="1a60aadbd2"><rect x="0" width="502" y="0" height="149"/></clipPath><clipPath id="52a6241190"><rect x="0" width="630" y="0" height="170"/></clipPath></defs><rect x="-150" width="1800" fill="#ffffff" y="-149.999993" height="1799.99992" fill-opacity="1"/><rect x="-150" width="1800" fill="#fffff7" y="-149.999993" height="1799.99992" fill-opacity="1"/><g clip-path="url(#f778213052)"><path fill="#121212" d="M 1278.324219 749.972656 C 1278.324219 758.617188 1278.109375 767.257812 1277.6875 775.894531 C 1277.261719 784.53125 1276.625 793.152344 1275.777344 801.757812 C 1274.929688 810.359375 1273.875 818.941406 1272.605469 827.492188 C 1271.335938 836.046875 1269.859375 844.5625 1268.171875 853.042969 C 1266.484375 861.523438 1264.589844 869.957031 1262.488281 878.34375 C 1260.390625 886.730469 1258.082031 895.0625 1255.574219 903.335938 C 1253.0625 911.609375 1250.351562 919.820312 1247.4375 927.960938 C 1244.527344 936.101562 1241.414062 944.164062 1238.105469 952.152344 C 1234.796875 960.140625 1231.292969 968.042969 1227.597656 975.859375 C 1223.902344 983.675781 1220.015625 991.398438 1215.9375 999.023438 C 1211.863281 1006.648438 1207.601562 1014.171875 1203.15625 1021.585938 C 1198.710938 1029.003906 1194.085938 1036.304688 1189.28125 1043.496094 C 1184.480469 1050.683594 1179.5 1057.753906 1174.351562 1064.695312 C 1169.199219 1071.640625 1163.882812 1078.457031 1158.398438 1085.140625 C 1152.910156 1091.824219 1147.265625 1098.371094 1141.457031 1104.777344 C 1135.652344 1111.183594 1129.691406 1117.441406 1123.578125 1123.558594 C 1117.464844 1129.671875 1111.203125 1135.632812 1104.796875 1141.4375 C 1098.390625 1147.246094 1091.84375 1152.890625 1085.160156 1158.375 C 1078.476562 1163.859375 1071.664062 1169.179688 1064.71875 1174.328125 C 1057.773438 1179.480469 1050.707031 1184.457031 1043.515625 1189.261719 C 1036.328125 1194.066406 1029.023438 1198.691406 1021.609375 1203.136719 C 1014.191406 1207.582031 1006.671875 1211.839844 999.046875 1215.917969 C 991.417969 1219.992188 983.699219 1223.878906 975.882812 1227.574219 C 968.066406 1231.273438 960.164062 1234.777344 952.175781 1238.085938 C 944.1875 1241.394531 936.121094 1244.503906 927.980469 1247.417969 C 919.839844 1250.332031 911.632812 1253.042969 903.359375 1255.550781 C 895.085938 1258.0625 886.753906 1260.367188 878.367188 1262.46875 C 869.980469 1264.570312 861.542969 1266.460938 853.0625 1268.148438 C 844.582031 1269.835938 836.066406 1271.316406 827.515625 1272.582031 C 818.960938 1273.851562 810.382812 1274.910156 801.777344 1275.757812 C 793.171875 1276.605469 784.550781 1277.242188 775.917969 1277.664062 C 767.28125 1278.089844 758.640625 1278.300781 749.992188 1278.300781 C 741.347656 1278.300781 732.703125 1278.089844 724.070312 1277.664062 C 715.433594 1277.242188 706.8125 1276.605469 698.207031 1275.757812 C 689.601562 1274.910156 681.023438 1273.851562 672.46875 1272.582031 C 663.917969 1271.316406 655.402344 1269.835938 646.921875 1268.148438 C 638.441406 1266.460938 630.007812 1264.570312 621.617188 1262.46875 C 613.230469 1260.367188 604.902344 1258.0625 596.625 1255.550781 C 588.351562 1253.042969 580.144531 1250.332031 572.003906 1247.417969 C 563.863281 1244.503906 555.796875 1241.394531 547.808594 1238.085938 C 539.820312 1234.777344 531.917969 1231.273438 524.101562 1227.574219 C 516.285156 1223.878906 508.566406 1219.992188 500.9375 1215.917969 C 493.3125 1211.839844 485.792969 1207.578125 478.375 1203.136719 C 470.960938 1198.691406 463.65625 1194.066406 456.46875 1189.261719 C 449.277344 1184.457031 442.210938 1179.480469 435.265625 1174.328125 C 428.320312 1169.179688 421.507812 1163.859375 414.824219 1158.375 C 408.140625 1152.890625 401.59375 1147.246094 395.1875 1141.4375 C 388.78125 1135.632812 382.519531 1129.671875 376.40625 1123.558594 C 370.292969 1117.441406 364.332031 1111.183594 358.523438 1104.777344 C 352.71875 1098.371094 347.070312 1091.824219 341.585938 1085.140625 C 336.101562 1078.457031 330.785156 1071.640625 325.632812 1064.695312 C 320.484375 1057.75 315.503906 1050.683594 310.699219 1043.496094 C 305.898438 1036.304688 301.273438 1029.003906 296.828125 1021.585938 C 292.382812 1014.171875 288.121094 1006.648438 284.046875 999.023438 C 279.96875 991.398438 276.082031 983.675781 272.386719 975.859375 C 268.691406 968.042969 265.1875 960.140625 261.878906 952.152344 C 258.570312 944.164062 255.457031 936.101562 252.546875 927.960938 C 249.632812 919.820312 246.921875 911.609375 244.410156 903.335938 C 241.902344 895.0625 239.597656 886.730469 237.496094 878.34375 C 235.394531 869.957031 233.5 861.523438 231.8125 853.042969 C 230.125 844.5625 228.648438 836.046875 227.378906 827.492188 C 226.109375 818.941406 225.054688 810.359375 224.207031 801.757812 C 223.359375 793.152344 222.722656 784.53125 222.296875 775.894531 C 221.875 767.257812 221.660156 758.617188 221.660156 749.972656 C 221.660156 741.324219 221.875 732.683594 222.296875 724.046875 C 222.722656 715.410156 223.359375 706.789062 224.207031 698.183594 C 225.054688 689.582031 226.109375 681 227.378906 672.449219 C 228.648438 663.894531 230.125 655.378906 231.8125 646.898438 C 233.5 638.417969 235.394531 629.984375 237.496094 621.597656 C 239.597656 613.210938 241.902344 604.878906 244.410156 596.605469 C 246.921875 588.332031 249.632812 580.121094 252.546875 571.980469 C 255.457031 563.839844 258.570312 555.777344 261.878906 547.789062 C 265.1875 539.800781 268.691406 531.898438 272.386719 524.082031 C 276.082031 516.265625 279.96875 508.542969 284.046875 500.917969 C 288.121094 493.292969 292.382812 485.769531 296.828125 478.355469 C 301.273438 470.9375 305.898438 463.636719 310.699219 456.445312 C 315.503906 449.257812 320.484375 442.191406 325.632812 435.246094 C 330.785156 428.300781 336.101562 421.484375 341.585938 414.800781 C 347.070312 408.117188 352.71875 401.574219 358.523438 395.164062 C 364.332031 388.757812 370.292969 382.5 376.40625 376.382812 C 382.519531 370.269531 388.78125 364.308594 395.1875 358.503906 C 401.59375 352.695312 408.140625 347.050781 414.824219 341.566406 C 421.507812 336.082031 428.320312 330.761719 435.265625 325.613281 C 442.210938 320.460938 449.277344 315.484375 456.46875 310.679688 C 463.65625 305.875 470.960938 301.25 478.375 296.804688 C 485.792969 292.359375 493.3125 288.101562 500.9375 284.023438 C 508.566406 279.949219 516.285156 276.0625 524.101562 272.367188 C 531.917969 268.667969 539.820312 265.164062 547.808594 261.855469 C 555.796875 258.546875 563.863281 255.4375 572.003906 252.523438 C 580.144531 249.609375 588.351562 246.898438 596.625 244.390625 C 604.898438 241.878906 613.230469 239.574219 621.617188 237.472656 C 630.003906 235.371094 638.4375 233.480469 646.921875 231.792969 C 655.398438 230.105469 663.917969 228.628906 672.46875 227.359375 C 681.023438 226.089844 689.601562 225.03125 698.207031 224.183594 C 706.8125 223.335938 715.433594 222.699219 724.066406 222.277344 C 732.703125 221.851562 741.347656 221.640625 749.992188 221.640625 C 758.640625 221.640625 767.28125 221.851562 775.914062 222.277344 C 784.550781 222.699219 793.171875 223.335938 801.777344 224.183594 C 810.382812 225.03125 818.960938 226.089844 827.515625 227.359375 C 836.066406 228.628906 844.582031 230.105469 853.0625 231.792969 C 861.542969 233.480469 869.980469 235.371094 878.367188 237.472656 C 886.753906 239.574219 895.085938 241.878906 903.359375 244.390625 C 911.632812 246.898438 919.839844 249.609375 927.980469 252.523438 C 936.121094 255.4375 944.1875 258.546875 952.175781 261.855469 C 960.164062 265.164062 968.066406 268.667969 975.882812 272.367188 C 983.699219 276.0625 991.417969 279.949219 999.046875 284.023438 C 1006.671875 288.101562 1014.191406 292.359375 1021.609375 296.804688 C 1029.023438 301.25 1036.328125 305.875 1043.515625 310.679688 C 1050.707031 315.484375 1057.773438 320.460938 1064.71875 325.613281 C 1071.664062 330.761719 1078.476562 336.082031 1085.160156 341.566406 C 1091.84375 347.050781 1098.390625 352.695312 1104.796875 358.503906 C 1111.203125 364.308594 1117.464844 370.269531 1123.578125 376.382812 C 1129.691406 382.5 1135.652344 388.757812 1141.460938 395.164062 C 1147.265625 401.574219 1152.910156 408.117188 1158.398438 414.800781 C 1163.882812 421.484375 1169.199219 428.300781 1174.351562 435.246094 C 1179.5 442.191406 1184.480469 449.257812 1189.28125 456.445312 C 1194.085938 463.636719 1198.710938 470.9375 1203.15625 478.355469 C 1207.601562 485.769531 1211.863281 493.292969 1215.9375 500.917969 C 1220.015625 508.542969 1223.902344 516.265625 1227.597656 524.082031 C 1231.292969 531.898438 1234.796875 539.800781 1238.105469 547.789062 C 1241.414062 555.777344 1244.527344 563.839844 1247.4375 571.980469 C 1250.351562 580.121094 1253.0625 588.332031 1255.574219 596.605469 C 1258.082031 604.878906 1260.390625 613.210938 1262.488281 621.597656 C 1264.589844 629.984375 1266.484375 638.417969 1268.171875 646.898438 C 1269.859375 655.378906 1271.335938 663.894531 1272.605469 672.449219 C 1273.875 681 1274.929688 689.582031 1275.777344 698.183594 C 1276.625 706.789062 1277.261719 715.410156 1277.6875 724.046875 C 1278.109375 732.683594 1278.324219 741.324219 1278.324219 749.972656 Z M 1278.324219 749.972656 " fill-opacity="1" fill-rule="nonzero"/><path fill="#fffff7" d="M 749.992188 221.640625 C 1041.589844 221.640625 1278.320312 458.382812 1278.320312 749.972656 C 1278.320312 1041.566406 1041.589844 1278.304688 749.992188 1278.304688 C 458.402344 1278.304688 221.664062 1041.566406 221.664062 749.972656 C 221.664062 458.382812 458.402344 221.640625 749.992188 221.640625 Z M 749.992188 227.949219 C 1038.109375 227.949219 1272.019531 461.859375 1272.019531 749.972656 C 1272.019531 1038.089844 1038.109375 1272 749.992188 1272 C 461.878906 1272 227.96875 1038.089844 227.96875 749.972656 C 227.96875 461.859375 461.878906 227.949219 749.992188 227.949219 Z M 749.992188 227.949219 " fill-opacity="1" fill-rule="evenodd"/></g><path fill="#fffff7" d="M 751.5 234.523438 C 1036.117188 234.523438 1267.183594 465.597656 1267.183594 750.210938 C 1267.183594 1034.828125 1036.117188 1265.902344 751.5 1265.902344 C 466.886719 1265.902344 235.8125 1034.828125 235.8125 750.210938 C 235.8125 465.597656 466.886719 234.523438 751.5 234.523438 Z M 751.5 240.828125 C 1032.632812 240.828125 1260.882812 469.074219 1260.882812 750.210938 C 1260.882812 1031.34375 1032.632812 1259.59375 751.5 1259.59375 C 470.363281 1259.59375 242.117188 1031.34375 242.117188 750.210938 C 242.117188 469.074219 470.363281 240.828125 751.5 240.828125 Z M 751.5 240.828125 " fill-opacity="1" fill-rule="evenodd"/><path fill="#fffff7" d="M 751.5 247.507812 C 1028.828125 247.507812 1253.976562 472.660156 1253.976562 749.980469 C 1253.976562 1027.304688 1028.828125 1252.460938 751.5 1252.460938 C 474.179688 1252.460938 249.027344 1027.304688 249.027344 749.980469 C 249.027344 472.660156 474.179688 247.507812 751.5 247.507812 Z M 751.5 253.808594 C 1025.347656 253.808594 1247.675781 476.136719 1247.675781 749.980469 C 1247.675781 1023.824219 1025.347656 1246.15625 751.5 1246.15625 C 477.65625 1246.15625 255.332031 1023.824219 255.332031 749.980469 C 255.332031 476.136719 477.65625 253.808594 751.5 253.808594 Z M 751.5 253.808594 " fill-opacity="1" fill-rule="evenodd"/><path fill="#cd2e2e" d="M 1106.964844 749.976562 C 1106.964844 755.792969 1106.824219 761.605469 1106.539062 767.417969 C 1106.25 773.230469 1105.824219 779.027344 1105.253906 784.820312 C 1104.683594 790.609375 1103.972656 796.378906 1103.117188 802.136719 C 1102.265625 807.890625 1101.269531 813.621094 1100.132812 819.324219 C 1099 825.03125 1097.726562 830.707031 1096.3125 836.351562 C 1094.898438 841.992188 1093.347656 847.597656 1091.660156 853.164062 C 1089.96875 858.734375 1088.144531 864.253906 1086.183594 869.734375 C 1084.226562 875.210938 1082.132812 880.636719 1079.90625 886.011719 C 1077.679688 891.386719 1075.324219 896.703125 1072.835938 901.960938 C 1070.347656 907.222656 1067.734375 912.417969 1064.992188 917.546875 C 1062.246094 922.679688 1059.382812 927.738281 1056.390625 932.730469 C 1053.398438 937.71875 1050.289062 942.632812 1047.054688 947.46875 C 1043.824219 952.308594 1040.472656 957.0625 1037.007812 961.734375 C 1033.542969 966.40625 1029.964844 970.992188 1026.273438 975.488281 C 1022.582031 979.988281 1018.785156 984.390625 1014.878906 988.703125 C 1010.972656 993.011719 1006.960938 997.222656 1002.847656 1001.339844 C 998.734375 1005.453125 994.519531 1009.460938 990.210938 1013.371094 C 985.898438 1017.277344 981.496094 1021.074219 977 1024.765625 C 972.5 1028.457031 967.917969 1032.035156 963.242188 1035.5 C 958.570312 1038.964844 953.816406 1042.316406 948.976562 1045.546875 C 944.140625 1048.777344 939.226562 1051.890625 934.238281 1054.882812 C 929.246094 1057.871094 924.1875 1060.738281 919.058594 1063.480469 C 913.925781 1066.222656 908.730469 1068.839844 903.472656 1071.324219 C 898.210938 1073.8125 892.894531 1076.171875 887.519531 1078.398438 C 882.144531 1080.625 876.71875 1082.714844 871.242188 1084.675781 C 865.765625 1086.636719 860.242188 1088.460938 854.675781 1090.148438 C 849.109375 1091.839844 843.503906 1093.390625 837.859375 1094.804688 C 832.214844 1096.214844 826.539062 1097.492188 820.835938 1098.625 C 815.128906 1099.761719 809.398438 1100.753906 803.644531 1101.609375 C 797.890625 1102.460938 792.117188 1103.175781 786.328125 1103.746094 C 780.539062 1104.316406 774.738281 1104.742188 768.925781 1105.027344 C 763.117188 1105.3125 757.300781 1105.457031 751.484375 1105.457031 C 745.667969 1105.457031 739.851562 1105.3125 734.042969 1105.027344 C 728.230469 1104.742188 722.429688 1104.316406 716.640625 1103.746094 C 710.851562 1103.175781 705.078125 1102.460938 699.324219 1101.609375 C 693.570312 1100.753906 687.839844 1099.761719 682.132812 1098.625 C 676.425781 1097.492188 670.753906 1096.214844 665.109375 1094.804688 C 659.464844 1093.390625 653.859375 1091.839844 648.292969 1090.148438 C 642.726562 1088.460938 637.203125 1086.636719 631.726562 1084.675781 C 626.25 1082.714844 620.824219 1080.625 615.449219 1078.398438 C 610.074219 1076.171875 604.753906 1073.8125 599.496094 1071.324219 C 594.238281 1068.839844 589.042969 1066.222656 583.910156 1063.480469 C 578.78125 1060.738281 573.71875 1057.871094 568.730469 1054.882812 C 563.742188 1051.890625 558.828125 1048.777344 553.988281 1045.546875 C 549.152344 1042.316406 544.398438 1038.964844 539.722656 1035.5 C 535.050781 1032.035156 530.464844 1028.457031 525.96875 1024.765625 C 521.472656 1021.074219 517.066406 1017.277344 512.757812 1013.367188 C 508.445312 1009.460938 504.234375 1005.453125 500.121094 1001.339844 C 496.007812 997.222656 491.996094 993.011719 488.089844 988.703125 C 484.183594 984.390625 480.382812 979.988281 476.695312 975.488281 C 473.003906 970.992188 469.425781 966.40625 465.960938 961.734375 C 462.492188 957.0625 459.144531 952.308594 455.914062 947.46875 C 452.679688 942.632812 449.570312 937.71875 446.578125 932.730469 C 443.585938 927.738281 440.71875 922.679688 437.976562 917.546875 C 435.234375 912.417969 432.621094 907.222656 430.132812 901.960938 C 427.644531 896.703125 425.289062 891.386719 423.0625 886.011719 C 420.835938 880.636719 418.742188 875.210938 416.78125 869.734375 C 414.824219 864.253906 413 858.734375 411.308594 853.164062 C 409.621094 847.597656 408.070312 841.992188 406.65625 836.351562 C 405.242188 830.707031 403.96875 825.03125 402.832031 819.324219 C 401.699219 813.621094 400.703125 807.890625 399.851562 802.136719 C 398.996094 796.378906 398.285156 790.609375 397.714844 784.820312 C 397.144531 779.027344 396.714844 773.230469 396.429688 767.417969 C 396.144531 761.605469 396.003906 755.792969 396.003906 749.976562 C 396.003906 744.15625 396.144531 738.34375 396.429688 732.53125 C 396.714844 726.722656 397.144531 720.921875 397.714844 715.132812 C 398.285156 709.34375 398.996094 703.570312 399.851562 697.816406 C 400.703125 692.058594 401.699219 686.332031 402.832031 680.625 C 403.96875 674.917969 405.242188 669.242188 406.65625 663.601562 C 408.070312 657.957031 409.621094 652.351562 411.308594 646.785156 C 413 641.21875 414.824219 635.695312 416.78125 630.21875 C 418.742188 624.738281 420.835938 619.3125 423.0625 613.9375 C 425.289062 608.5625 427.644531 603.246094 430.132812 597.988281 C 432.621094 592.726562 435.234375 587.535156 437.976562 582.402344 C 440.71875 577.273438 443.585938 572.210938 446.578125 567.222656 C 449.570312 562.230469 452.679688 557.316406 455.914062 552.480469 C 459.144531 547.644531 462.492188 542.886719 465.960938 538.214844 C 469.425781 533.542969 473.003906 528.957031 476.695312 524.460938 C 480.382812 519.964844 484.183594 515.558594 488.089844 511.25 C 491.996094 506.9375 496.007812 502.726562 500.121094 498.613281 C 504.234375 494.5 508.445312 490.488281 512.757812 486.582031 C 517.070312 482.675781 521.472656 478.875 525.96875 475.183594 C 530.464844 471.492188 535.050781 467.914062 539.722656 464.449219 C 544.398438 460.984375 549.152344 457.636719 553.988281 454.402344 C 558.828125 451.171875 563.742188 448.058594 568.730469 445.070312 C 573.71875 442.078125 578.78125 439.210938 583.910156 436.46875 C 589.042969 433.726562 594.238281 431.113281 599.496094 428.625 C 604.753906 426.136719 610.074219 423.78125 615.449219 421.554688 C 620.824219 419.328125 626.25 417.234375 631.726562 415.273438 C 637.203125 413.3125 642.726562 411.488281 648.292969 409.800781 C 653.859375 408.113281 659.464844 406.5625 665.109375 405.148438 C 670.753906 403.734375 676.425781 402.460938 682.132812 401.324219 C 687.839844 400.191406 693.570312 399.195312 699.324219 398.339844 C 705.078125 397.488281 710.851562 396.777344 716.640625 396.207031 C 722.429688 395.636719 728.230469 395.207031 734.042969 394.921875 C 739.851562 394.636719 745.667969 394.496094 751.484375 394.496094 C 757.300781 394.496094 763.117188 394.636719 768.925781 394.921875 C 774.738281 395.207031 780.539062 395.636719 786.328125 396.207031 C 792.117188 396.777344 797.890625 397.488281 803.644531 398.339844 C 809.398438 399.195312 815.128906 400.191406 820.835938 401.324219 C 826.539062 402.460938 832.214844 403.734375 837.859375 405.148438 C 843.5 406.5625 849.109375 408.113281 854.675781 409.800781 C 860.242188 411.488281 865.765625 413.3125 871.242188 415.273438 C 876.71875 417.234375 882.144531 419.328125 887.519531 421.554688 C 892.894531 423.78125 898.210938 426.136719 903.472656 428.625 C 908.730469 431.113281 913.925781 433.726562 919.058594 436.46875 C 924.1875 439.210938 929.246094 442.078125 934.238281 445.070312 C 939.226562 448.058594 944.140625 451.171875 948.976562 454.402344 C 953.816406 457.636719 958.570312 460.984375 963.242188 464.449219 C 967.917969 467.914062 972.5 471.492188 977 475.183594 C 981.496094 478.875 985.898438 482.675781 990.210938 486.582031 C 994.519531 490.488281 998.734375 494.5 1002.847656 498.613281 C 1006.960938 502.726562 1010.972656 506.9375 1014.878906 511.25 C 1018.785156 515.558594 1022.582031 519.964844 1026.273438 524.460938 C 1029.964844 528.957031 1033.542969 533.542969 1037.007812 538.214844 C 1040.472656 542.886719 1043.824219 547.644531 1047.054688 552.480469 C 1050.289062 557.316406 1053.398438 562.230469 1056.390625 567.222656 C 1059.382812 572.210938 1062.246094 577.273438 1064.992188 582.402344 C 1067.734375 587.535156 1070.347656 592.726562 1072.835938 597.988281 C 1075.324219 603.246094 1077.679688 608.5625 1079.90625 613.9375 C 1082.132812 619.3125 1084.226562 624.738281 1086.183594 630.21875 C 1088.144531 635.695312 1089.96875 641.21875 1091.660156 646.785156 C 1093.347656 652.351562 1094.898438 657.957031 1096.3125 663.601562 C 1097.726562 669.242188 1099 674.917969 1100.132812 680.625 C 1101.269531 686.332031 1102.265625 692.058594 1103.117188 697.816406 C 1103.972656 703.570312 1104.683594 709.34375 1105.253906 715.132812 C 1105.824219 720.921875 1106.25 726.722656 1106.539062 732.53125 C 1106.824219 738.34375 1106.964844 744.15625 1106.964844 749.976562 Z M 1106.964844 749.976562 " fill-opacity="1" fill-rule="nonzero"/><path fill="#fffff7" d="M 751.484375 394.496094 C 947.679688 394.496094 1106.964844 553.78125 1106.964844 749.976562 C 1106.964844 946.171875 947.679688 1105.460938 751.484375 1105.460938 C 555.292969 1105.460938 396.003906 946.171875 396.003906 749.976562 C 396.003906 553.78125 555.292969 394.496094 751.484375 394.496094 Z M 751.484375 400.796875 C 944.203125 400.796875 1100.664062 557.261719 1100.664062 749.976562 C 1100.664062 942.691406 944.203125 1099.152344 751.484375 1099.152344 C 558.769531 1099.152344 402.308594 942.691406 402.308594 749.976562 C 402.308594 557.261719 558.769531 400.796875 751.484375 400.796875 Z M 751.484375 400.796875 " fill-opacity="1" fill-rule="evenodd"/><path fill="#cd2e2e" d="M 274.859375 909.277344 C 408.832031 818.824219 570.191406 766.015625 743.789062 766.015625 C 922.851562 766.015625 1088.894531 822.203125 1225.207031 917.894531 C 1203.554688 978.90625 1170.4375 1034.515625 1128.4375 1082.128906 C 1020.726562 1002.78125 887.691406 955.886719 743.789062 955.886719 C 604.078125 955.886719 474.613281 1000.089844 368.640625 1075.253906 C 327.539062 1026.941406 295.417969 970.761719 274.859375 909.277344 Z M 274.859375 909.277344 " fill-opacity="1" fill-rule="evenodd"/><path fill="#fffff7" d="M 274.859375 909.277344 C 408.832031 818.824219 570.191406 766.015625 743.789062 766.015625 C 922.851562 766.015625 1088.894531 822.203125 1225.207031 917.894531 C 1203.554688 978.90625 1170.4375 1034.515625 1128.4375 1082.128906 C 1020.726562 1002.78125 887.691406 955.886719 743.789062 955.886719 C 604.078125 955.886719 474.613281 1000.089844 368.640625 1075.253906 C 327.539062 1026.941406 295.417969 970.761719 274.859375 909.277344 Z M 1217.636719 920.300781 C 1083.101562 827.003906 919.78125 772.320312 743.789062 772.320312 C 573.21875 772.320312 414.558594 823.683594 282.382812 911.824219 C 302.09375 968.914062 331.9375 1021.28125 369.746094 1066.773438 C 475.871094 992.90625 604.808594 949.582031 743.789062 949.582031 C 887.007812 949.582031 1019.574219 995.589844 1127.484375 1073.628906 C 1166.144531 1028.773438 1196.914062 976.945312 1217.636719 920.300781 Z M 1217.636719 920.300781 " fill-opacity="1" fill-rule="evenodd"/><path fill="#fffff7" d="M 764.0625 463.253906 C 755.582031 463.800781 745.328125 465.417969 733.289062 468.089844 C 721.25 470.757812 710.296875 471.839844 700.414062 471.335938 C 690.539062 470.820312 680.648438 471.4375 670.757812 473.175781 C 660.867188 474.917969 652.742188 476.8125 646.375 478.867188 C 640.011719 480.921875 634.378906 483.128906 629.492188 485.503906 C 624.597656 487.871094 620.363281 490.210938 616.789062 492.511719 C 613.210938 494.8125 609.1875 497.921875 604.714844 501.828125 C 600.25 505.734375 595.566406 511.023438 590.65625 517.703125 C 585.753906 524.382812 580.839844 533.308594 575.914062 544.476562 C 570.976562 555.644531 563.976562 567.007812 554.886719 578.554688 C 545.808594 590.101562 540.109375 598.292969 537.804688 603.148438 C 535.503906 608 533.929688 611.980469 533.085938 615.085938 C 532.25 618.195312 531.734375 621.898438 531.539062 626.183594 C 531.335938 630.46875 531.945312 635.214844 533.355469 640.386719 C 534.769531 645.570312 536.789062 650.152344 539.433594 654.132812 C 542.070312 658.113281 545.234375 661.488281 548.917969 664.25 C 552.605469 667.015625 554.988281 670.695312 556.082031 675.285156 C 557.171875 679.875 558.792969 683.671875 560.964844 686.671875 C 563.128906 689.679688 565.902344 692.175781 569.285156 694.160156 C 572.65625 696.148438 576.125 697.207031 579.675781 697.332031 C 583.21875 697.46875 586.242188 697.171875 588.738281 696.460938 C 591.238281 695.742188 594.382812 694.058594 598.179688 691.40625 C 600.074219 690.070312 601.976562 688.742188 603.871094 687.414062 C 604.765625 692.082031 605.660156 696.75 606.550781 701.421875 C 608.339844 710.757812 609.738281 716.125 610.734375 717.527344 C 611.730469 718.921875 612.882812 719.683594 614.183594 719.800781 C 615.484375 719.914062 620.828125 718.703125 630.238281 716.175781 C 639.636719 713.648438 650.527344 711.246094 662.894531 708.980469 C 675.269531 706.714844 689.289062 704.972656 704.933594 703.75 C 720.582031 702.523438 732.25 701.972656 739.917969 702.101562 C 747.585938 702.21875 755.414062 702.546875 763.417969 703.070312 C 771.425781 703.605469 781.714844 704.796875 794.277344 706.671875 C 806.847656 708.542969 817.167969 710.402344 825.242188 712.246094 C 833.316406 714.097656 843.367188 716.859375 855.398438 720.554688 C 861.40625 722.40625 867.417969 724.257812 873.4375 726.101562 C 874.46875 722.921875 875.5 719.734375 876.539062 716.546875 C 878.601562 710.183594 880.058594 704.40625 880.894531 699.242188 C 881.308594 696.65625 881.730469 694.070312 882.144531 691.492188 C 883.117188 692.132812 884.089844 692.785156 885.0625 693.433594 C 887.007812 694.726562 889.339844 695.878906 892.0625 696.867188 C 894.773438 697.855469 898.183594 698.539062 902.273438 698.90625 C 906.355469 699.269531 911.015625 698.464844 916.25 696.503906 C 921.480469 694.535156 925.894531 692.308594 929.488281 689.816406 C 933.078125 687.332031 935.972656 684.3125 938.160156 680.761719 C 940.351562 677.210938 941.769531 673.871094 942.421875 670.753906 C 943.082031 667.625 944.585938 665.417969 946.945312 664.132812 C 949.3125 662.839844 951.898438 660.074219 954.714844 655.839844 C 957.527344 651.597656 959.429688 648.113281 960.417969 645.390625 C 961.410156 642.667969 962.101562 639.179688 962.480469 634.898438 C 962.863281 630.628906 962.753906 626.597656 962.152344 622.792969 C 961.5625 619 960.496094 615.160156 958.972656 611.269531 C 957.445312 607.390625 954.601562 601.523438 950.433594 593.660156 C 946.269531 585.800781 943.097656 580.457031 940.90625 577.640625 C 938.726562 574.828125 937.507812 570.691406 937.246094 565.230469 C 936.976562 559.777344 936.425781 555.519531 935.582031 552.449219 C 934.726562 549.371094 933.425781 546.074219 931.683594 542.550781 C 929.933594 539.023438 927.027344 534.925781 922.953125 530.25 C 918.878906 525.582031 914.449219 521.71875 909.664062 518.667969 C 904.878906 515.625 899.78125 512.917969 894.378906 510.570312 C 888.96875 508.210938 880.808594 505.234375 869.894531 501.640625 C 858.980469 498.039062 850.382812 494.648438 844.121094 491.472656 C 837.847656 488.285156 832.074219 484.867188 826.773438 481.21875 C 821.488281 477.554688 816.507812 474.582031 811.84375 472.296875 C 807.175781 470.007812 802.847656 468.214844 798.839844 466.921875 C 794.832031 465.628906 790.160156 464.554688 784.800781 463.699219 C 779.449219 462.847656 772.53125 462.695312 764.0625 463.253906 Z M 764.0625 463.253906 " fill-opacity="1" fill-rule="evenodd"/><path fill="#121212" d="M 677.355469 496.796875 C 675.957031 497.796875 675.257812 499.328125 675.261719 501.386719 C 675.265625 503.445312 677.628906 507.402344 682.347656 513.253906 C 687.066406 519.105469 690.476562 523.90625 692.578125 527.652344 C 694.679688 531.398438 696.542969 536.714844 698.175781 543.601562 C 699.808594 550.488281 700.683594 555.339844 700.808594 558.160156 C 700.929688 560.980469 701.144531 562.777344 701.449219 563.554688 C 701.753906 564.332031 702.277344 564.753906 703.023438 564.820312 L 704.136719 564.917969 C 704.539062 558.308594 704.941406 551.695312 705.347656 545.082031 C 706.152344 531.859375 705.917969 522.945312 704.644531 518.335938 C 703.371094 513.730469 702.007812 510.140625 700.550781 507.578125 C 699.09375 505.011719 697.589844 503.007812 696.03125 501.554688 C 694.476562 500.105469 692.53125 498.808594 690.199219 497.664062 C 687.867188 496.519531 685.496094 495.839844 683.078125 495.625 C 680.664062 495.410156 678.757812 495.800781 677.355469 496.796875 Z M 777.59375 516.144531 C 775.214844 517.617188 773.429688 519.800781 772.234375 522.6875 C 771.039062 525.578125 770.402344 528.515625 770.320312 531.503906 C 770.242188 534.496094 770.964844 537.929688 772.492188 541.8125 C 774.015625 545.691406 775.09375 549.347656 775.722656 552.773438 C 776.355469 556.203125 776.210938 561.992188 775.292969 570.152344 C 774.378906 578.308594 772.945312 584.921875 770.996094 589.992188 C 769.046875 595.058594 766.753906 598.695312 764.121094 600.894531 C 761.492188 603.09375 758.210938 605.234375 754.277344 607.316406 C 750.351562 609.402344 746.945312 610.78125 744.078125 611.460938 C 741.207031 612.140625 737.816406 612.402344 733.898438 612.238281 C 729.980469 612.074219 727.125 611.539062 725.332031 610.628906 C 723.542969 609.722656 721.4375 608.128906 719.019531 605.851562 C 716.601562 603.578125 715.210938 601.300781 714.855469 599.019531 C 714.496094 596.742188 712.839844 591.164062 709.886719 582.285156 C 708.414062 577.847656 706.9375 573.40625 705.460938 568.96875 C 705.140625 569.410156 704.820312 569.847656 704.5 570.289062 C 703.859375 571.167969 703.429688 572.8125 703.214844 575.230469 C 703 577.644531 704.039062 583.824219 706.335938 593.765625 C 708.628906 603.707031 709.570312 609.972656 709.152344 612.554688 C 708.730469 615.140625 707.917969 616.941406 706.703125 617.953125 C 706.09375 618.460938 705.488281 618.96875 704.882812 619.476562 C 704.503906 615.324219 704.125 611.171875 703.746094 607.015625 C 702.992188 598.710938 701.140625 587.964844 698.199219 574.78125 C 695.257812 561.597656 692.414062 552.542969 689.671875 547.617188 C 686.929688 542.6875 683.28125 537.402344 678.730469 531.75 C 676.453125 528.925781 674.179688 526.101562 671.902344 523.277344 C 672.84375 525.328125 673.785156 527.378906 674.722656 529.425781 C 676.605469 533.527344 679.703125 538.671875 684.019531 544.863281 C 688.335938 551.054688 691.1875 555.804688 692.578125 559.109375 C 693.96875 562.417969 695.640625 568.839844 697.597656 578.378906 C 699.554688 587.917969 700.945312 597.496094 701.769531 607.121094 C 702.597656 616.746094 701.441406 622.355469 698.300781 623.945312 C 695.164062 625.539062 688.988281 627.609375 679.769531 630.15625 C 670.554688 632.703125 663.035156 634.089844 657.207031 634.320312 C 651.382812 634.546875 647.609375 633.835938 645.882812 632.183594 C 645.019531 631.359375 644.160156 630.53125 643.296875 629.707031 C 643.1875 629.882812 643.078125 630.0625 642.96875 630.238281 C 642.75 630.59375 643.148438 631.378906 644.160156 632.59375 C 644.667969 633.199219 645.175781 633.804688 645.683594 634.414062 L 643.734375 634.238281 C 642.433594 634.125 638.96875 632.035156 633.339844 627.972656 C 627.707031 623.914062 623.394531 619.78125 620.402344 615.582031 C 617.40625 611.382812 614.113281 607.34375 610.527344 603.464844 C 606.941406 599.585938 603.265625 596.730469 599.496094 594.894531 C 595.726562 593.0625 592.433594 592.207031 589.613281 592.328125 C 586.792969 592.449219 584.769531 593.113281 583.539062 594.3125 C 582.308594 595.515625 581.726562 596.773438 581.796875 598.089844 C 581.867188 599.40625 582.300781 600.851562 583.09375 602.417969 C 583.890625 603.988281 585.820312 606.503906 588.882812 609.957031 C 591.945312 613.414062 595.410156 616.535156 599.28125 619.3125 C 603.152344 622.09375 607.082031 624.226562 611.070312 625.703125 C 615.058594 627.183594 619.199219 629.050781 623.492188 631.308594 C 627.78125 633.5625 630.714844 635.324219 632.289062 636.585938 C 633.859375 637.851562 634.875 639.066406 635.332031 640.230469 C 635.792969 641.394531 634.964844 643.289062 632.859375 645.90625 C 630.753906 648.527344 627.828125 650.890625 624.082031 652.988281 C 620.335938 655.089844 615.296875 654.917969 608.960938 652.480469 C 602.625 650.042969 598.746094 648.386719 597.324219 647.507812 C 595.90625 646.632812 594.359375 645.089844 592.683594 642.882812 C 591.007812 640.671875 589.796875 639.535156 589.054688 639.46875 L 587.941406 639.367188 C 588.058594 640.128906 588.179688 640.886719 588.300781 641.648438 C 588.539062 643.167969 589.503906 644.9375 591.195312 646.960938 C 592.886719 648.984375 595.160156 650.78125 598.015625 652.347656 C 600.871094 653.914062 603.585938 654.996094 606.152344 655.601562 C 607.4375 655.902344 608.71875 656.203125 610.003906 656.507812 C 609.3125 656.914062 608.621094 657.320312 607.929688 657.726562 C 606.546875 658.539062 604.191406 658.703125 600.863281 658.21875 C 597.535156 657.734375 595.085938 656.859375 593.511719 655.59375 C 591.941406 654.332031 586.507812 651.222656 577.210938 646.273438 C 567.917969 641.324219 562.042969 638.925781 559.597656 639.082031 C 557.148438 639.238281 555.613281 639.664062 554.988281 640.355469 C 554.363281 641.050781 554.054688 642.425781 554.058594 644.488281 C 554.0625 646.546875 555.40625 649.289062 558.097656 652.710938 C 560.789062 656.136719 564.019531 658.765625 567.785156 660.601562 C 571.554688 662.433594 577.222656 663.972656 584.789062 665.210938 C 592.355469 666.445312 597.3125 667.546875 599.664062 668.503906 C 602.011719 669.460938 603.167969 670.128906 603.136719 670.5 C 603.101562 670.871094 600.65625 671.027344 595.792969 670.96875 C 590.929688 670.90625 585.246094 670.585938 578.742188 670.007812 C 572.242188 669.425781 568.390625 669.550781 567.195312 670.378906 C 565.996094 671.207031 565.371094 671.902344 565.324219 672.457031 C 565.273438 673.015625 566.734375 674.457031 569.710938 676.785156 C 572.6875 679.109375 575.882812 681.078125 579.296875 682.695312 C 582.707031 684.3125 585.632812 685.132812 588.0625 685.164062 C 590.496094 685.195312 593.9375 684.378906 598.394531 682.714844 C 600.621094 681.886719 602.847656 681.054688 605.078125 680.222656 C 605.589844 683.921875 606.101562 687.617188 606.613281 691.316406 C 607.640625 698.710938 608.8125 704.433594 610.136719 708.484375 C 611.460938 712.535156 612.554688 714.972656 613.414062 715.796875 C 614.277344 716.625 616.785156 716.847656 620.941406 716.46875 C 625.09375 716.09375 629.1875 715.335938 633.222656 714.195312 C 637.253906 713.058594 639.769531 712.160156 640.765625 711.5 C 641.761719 710.839844 642.207031 710.035156 642.101562 709.089844 C 642 708.144531 640.628906 706.710938 637.992188 704.792969 C 635.355469 702.871094 633.132812 700.519531 631.320312 697.734375 C 629.507812 694.953125 628.230469 691.464844 627.480469 687.28125 C 626.730469 683.09375 626.757812 678.601562 627.558594 673.804688 C 628.363281 669.007812 630.878906 664.925781 635.113281 661.558594 C 639.347656 658.191406 642.332031 656.210938 644.070312 655.617188 C 645.808594 655.023438 649.210938 654.671875 654.277344 654.5625 C 659.34375 654.453125 664.644531 653.804688 670.179688 652.613281 C 675.71875 651.421875 681.398438 649.683594 687.21875 647.394531 C 693.042969 645.105469 698.128906 642.65625 702.480469 640.046875 C 706.832031 637.441406 711.417969 636.445312 716.230469 637.0625 C 721.042969 637.679688 725.164062 637.675781 728.589844 637.042969 C 732.019531 636.414062 734.804688 635.632812 736.945312 634.699219 C 739.089844 633.769531 741.5625 633.332031 744.367188 633.398438 C 747.167969 633.460938 751.097656 634.558594 756.148438 636.695312 C 761.203125 638.832031 764.839844 640 767.070312 640.199219 C 769.300781 640.398438 771.5625 640.226562 773.859375 639.683594 C 776.152344 639.140625 779.695312 640.390625 784.476562 643.441406 C 789.261719 646.488281 792.828125 648.492188 795.175781 649.453125 C 797.527344 650.410156 804.957031 651.074219 817.46875 651.441406 C 829.980469 651.8125 837.40625 652.570312 839.738281 653.714844 C 842.070312 654.859375 844.074219 656.535156 845.746094 658.746094 C 847.421875 660.953125 848.710938 664.347656 849.613281 668.921875 C 850.515625 673.496094 850.65625 682.402344 850.035156 695.644531 C 849.417969 708.882812 849.722656 715.933594 850.957031 716.792969 C 852.191406 717.652344 855.367188 718.777344 860.488281 720.171875 C 865.605469 721.5625 868.824219 722.226562 870.140625 722.15625 C 871.457031 722.085938 872.707031 720.699219 873.882812 717.996094 C 875.0625 715.292969 875.972656 711.347656 876.625 706.164062 C 877.273438 700.976562 878.757812 693.808594 881.074219 684.652344 C 883.386719 675.496094 882.980469 668.53125 879.851562 663.757812 C 878.285156 661.371094 876.71875 658.984375 875.15625 656.597656 C 876.242188 656.972656 877.335938 657.351562 878.421875 657.730469 C 880.601562 658.488281 884.574219 659.121094 890.332031 659.636719 C 896.089844 660.152344 902.074219 660.21875 908.292969 659.835938 C 914.503906 659.457031 919.359375 658.578125 922.847656 657.203125 C 926.34375 655.832031 929.003906 654.382812 930.824219 652.859375 C 932.640625 651.335938 934.320312 649.335938 935.851562 646.851562 C 937.386719 644.363281 938.242188 642.101562 938.425781 640.058594 C 938.609375 638.015625 938 636.460938 936.59375 635.398438 C 935.191406 634.335938 933.730469 633.925781 932.210938 634.164062 C 930.691406 634.402344 926.21875 636.25 918.796875 639.707031 C 911.371094 643.164062 906.214844 645.324219 903.328125 646.191406 C 900.445312 647.058594 897.097656 647.789062 893.304688 648.386719 C 889.503906 648.984375 885.476562 648.996094 881.21875 648.429688 C 876.964844 647.863281 874.761719 647.386719 874.605469 646.996094 C 874.53125 646.804688 874.457031 646.609375 874.375 646.414062 C 876.71875 646.4375 879.054688 646.457031 881.394531 646.480469 C 886.074219 646.523438 890.992188 645.933594 896.160156 644.707031 C 901.320312 643.484375 906.066406 641.753906 910.386719 639.519531 C 914.703125 637.28125 917.476562 635.5625 918.710938 634.363281 C 919.328125 633.761719 919.945312 633.164062 920.554688 632.5625 C 920.101562 632.429688 919.644531 632.292969 919.1875 632.160156 C 918.277344 631.890625 915.265625 633.121094 910.152344 635.847656 C 905.042969 638.574219 900.277344 640.488281 895.875 641.59375 C 891.46875 642.699219 885.542969 643.011719 878.097656 642.535156 C 870.644531 642.054688 866.679688 641.417969 866.1875 640.628906 C 865.695312 639.832031 865.507812 638.785156 865.621094 637.488281 C 865.738281 636.1875 866.371094 634.371094 867.515625 632.039062 C 868.660156 629.707031 873.472656 624.050781 881.953125 615.070312 C 890.433594 606.089844 896.695312 598.878906 900.738281 593.433594 C 904.785156 587.988281 907.542969 583.273438 909.023438 579.285156 C 910.503906 575.300781 911.351562 572.097656 911.566406 569.683594 C 911.785156 567.269531 911.628906 564.820312 911.097656 562.339844 C 910.574219 559.855469 909.785156 558.195312 908.738281 557.351562 C 907.6875 556.507812 906.511719 556.03125 905.210938 555.914062 C 903.914062 555.796875 902.679688 555.96875 901.515625 556.425781 C 900.351562 556.882812 899.042969 557.890625 897.59375 559.445312 C 896.144531 561.003906 892.769531 568.378906 887.472656 581.574219 C 882.171875 594.773438 877.359375 604.640625 873.027344 611.183594 C 868.703125 617.726562 864.765625 622.992188 861.226562 626.980469 C 857.6875 630.972656 854.8125 632.777344 852.59375 632.390625 C 850.386719 632.007812 847.9375 631.132812 845.25 629.769531 C 842.558594 628.402344 838.75 627.035156 833.816406 625.65625 C 828.882812 624.28125 825.304688 623.492188 823.074219 623.292969 C 820.84375 623.09375 818.394531 623.25 815.726562 623.761719 C 813.0625 624.273438 810.148438 624.386719 806.992188 624.105469 C 803.832031 623.820312 801.890625 623.554688 801.164062 623.300781 C 800.4375 623.050781 799.359375 620.425781 797.933594 615.429688 C 796.511719 610.433594 795.9375 606.355469 796.21875 603.199219 C 796.5 600.039062 797.859375 593.234375 800.292969 582.777344 C 802.71875 572.320312 804.238281 563.746094 804.835938 557.058594 C 805.433594 550.371094 805.378906 545.6875 804.683594 543 C 803.988281 540.316406 803.277344 538.851562 802.554688 538.597656 C 802.1875 538.472656 801.824219 538.34375 801.460938 538.21875 C 801.871094 539.941406 802.277344 541.664062 802.683594 543.386719 C 803.503906 546.828125 803.683594 551.058594 803.234375 556.074219 C 802.792969 561.089844 801.058594 571.046875 798.042969 585.945312 C 795.023438 600.84375 794.265625 610.421875 795.757812 614.671875 C 797.246094 618.925781 797.792969 621.222656 797.386719 621.558594 C 796.980469 621.898438 795.277344 621.089844 792.269531 619.136719 C 789.257812 617.183594 787.507812 614.78125 787.015625 611.925781 C 786.515625 609.074219 786.429688 605.882812 786.742188 602.351562 C 787.058594 598.820312 788.449219 591.644531 790.914062 580.816406 C 793.382812 569.988281 794.984375 560.394531 795.734375 552.035156 C 796.480469 543.671875 796.066406 536.800781 794.484375 531.417969 C 792.90625 526.03125 791.289062 522.144531 789.628906 519.746094 C 787.96875 517.351562 786.144531 515.785156 784.152344 515.046875 C 782.15625 514.304688 779.972656 514.671875 777.59375 516.144531 Z M 868.078125 553.4375 C 866.84375 554.640625 866.183594 556.828125 866.082031 560.003906 C 865.988281 563.175781 866.257812 566.480469 866.886719 569.90625 C 867.519531 573.332031 867.683594 576.71875 867.382812 580.0625 C 867.085938 583.40625 866.691406 585.710938 866.203125 586.976562 C 865.714844 588.246094 864.316406 590.273438 862.007812 593.066406 C 859.699219 595.855469 858.511719 597.621094 858.445312 598.363281 L 858.34375 599.476562 C 860.269531 597.871094 862.191406 596.265625 864.113281 594.65625 C 867.957031 591.441406 871.066406 587.039062 873.4375 581.445312 C 875.8125 575.851562 877.222656 570.546875 877.667969 565.53125 C 878.117188 560.515625 877.765625 557.113281 876.617188 555.324219 C 875.464844 553.539062 874.058594 552.476562 872.40625 552.140625 C 870.75 551.804688 869.304688 552.238281 868.078125 553.4375 Z M 931.246094 585.203125 C 929.480469 590.289062 927.328125 594.5 924.785156 597.828125 C 922.238281 601.160156 920.496094 603.90625 919.554688 606.070312 C 919.082031 607.152344 918.609375 608.230469 918.136719 609.3125 C 918.644531 608.890625 919.148438 608.46875 919.660156 608.046875 C 920.671875 607.199219 922.753906 606.917969 925.914062 607.199219 C 929.070312 607.480469 931.902344 608.296875 934.402344 609.640625 C 936.902344 610.988281 939.566406 613.660156 942.390625 617.660156 C 945.21875 621.65625 947.535156 626.078125 949.355469 630.921875 C 951.164062 635.765625 952.699219 638.523438 953.949219 639.195312 C 955.199219 639.871094 956.222656 639.960938 957.019531 639.472656 C 957.808594 638.980469 958.449219 638.101562 958.9375 636.832031 C 959.425781 635.566406 959.859375 632.796875 960.242188 628.523438 C 960.625 624.25 960.636719 620.972656 960.277344 618.695312 C 959.917969 616.417969 958.890625 613.234375 957.199219 609.152344 C 955.5 605.066406 952.605469 599.753906 948.507812 593.207031 C 944.414062 586.660156 941.59375 582.570312 940.058594 580.933594 C 938.515625 579.300781 937.105469 578.332031 935.820312 578.027344 C 934.539062 577.726562 933.011719 580.117188 931.246094 585.203125 Z M 910.566406 612.289062 C 909.371094 613.117188 907.523438 613.890625 905.027344 614.601562 C 902.527344 615.316406 899.257812 617.363281 895.207031 620.75 C 891.160156 624.132812 886.683594 627.101562 881.773438 629.660156 C 876.863281 632.21875 873.480469 634.445312 871.625 636.335938 C 870.699219 637.285156 869.773438 638.230469 868.84375 639.179688 C 869.984375 639 871.125 638.820312 872.265625 638.640625 C 874.542969 638.285156 880.84375 635.851562 891.171875 631.34375 C 901.5 626.835938 908.121094 622.933594 911.039062 619.632812 C 913.953125 616.335938 915.367188 614.121094 915.28125 612.992188 C 915.199219 611.859375 914.6875 611.253906 913.757812 611.167969 C 912.832031 611.085938 911.769531 611.460938 910.566406 612.289062 Z M 592.316406 587.234375 C 592.453125 587.804688 593.550781 588.09375 595.609375 588.089844 C 597.671875 588.085938 600.214844 588.96875 603.238281 590.734375 C 606.265625 592.503906 610.09375 595.75 614.726562 600.46875 C 619.363281 605.191406 623.777344 610.265625 627.972656 615.699219 C 632.171875 621.128906 634.800781 624.171875 635.867188 624.828125 C 636.398438 625.15625 636.929688 625.484375 637.464844 625.816406 C 633.066406 620.554688 628.667969 615.292969 624.265625 610.03125 C 615.46875 599.507812 609.121094 593.039062 605.214844 590.632812 C 601.308594 588.222656 598.148438 586.910156 595.734375 586.695312 L 592.113281 586.371094 C 592.179688 586.660156 592.25 586.945312 592.316406 587.234375 Z M 560.34375 599.265625 C 560.058594 600.363281 560.585938 603.875 561.929688 609.796875 C 563.273438 615.722656 565.222656 620.109375 567.777344 622.960938 C 570.332031 625.808594 572.496094 627.78125 574.269531 628.878906 C 576.046875 629.972656 577.5 630.476562 578.628906 630.390625 C 579.761719 630.304688 580.46875 629.710938 580.753906 628.613281 C 581.039062 627.515625 580.050781 626.023438 577.785156 624.136719 C 575.519531 622.246094 573.210938 619.792969 570.859375 616.773438 C 568.507812 613.757812 566.957031 610.152344 566.207031 605.964844 C 565.457031 601.78125 564.828125 599.382812 564.320312 598.777344 C 563.8125 598.167969 563.09375 597.824219 562.164062 597.742188 C 561.238281 597.660156 560.628906 598.164062 560.34375 599.265625 Z M 562.800781 631.503906 C 562.734375 632.246094 563.417969 632.964844 564.855469 633.65625 C 566.292969 634.34375 568.835938 636.257812 572.488281 639.390625 C 576.140625 642.527344 579.3125 644.777344 582 646.140625 C 583.34375 646.824219 584.6875 647.503906 586.03125 648.1875 C 585.960938 647.898438 585.894531 647.613281 585.824219 647.324219 C 585.6875 646.75 583.523438 644.777344 579.332031 641.40625 C 575.140625 638.039062 571.351562 635.359375 567.972656 633.371094 C 566.28125 632.378906 564.589844 631.382812 562.902344 630.390625 Z M 562.800781 631.503906 " fill-opacity="0.2" fill-rule="nonzero"/><path fill="#121212" d="M 764.058594 463.253906 C 755.582031 463.804688 745.324219 465.417969 733.289062 468.085938 C 721.253906 470.757812 710.296875 471.839844 700.417969 471.332031 C 690.539062 470.824219 680.652344 471.4375 670.761719 473.175781 C 660.867188 474.914062 652.738281 476.808594 646.375 478.863281 C 640.011719 480.917969 634.386719 483.128906 629.492188 485.5 C 624.597656 487.871094 620.363281 490.210938 616.789062 492.511719 C 613.210938 494.8125 609.1875 497.917969 604.71875 501.828125 C 600.25 505.734375 595.566406 511.027344 590.660156 517.707031 C 585.757812 524.382812 580.84375 533.308594 575.910156 544.476562 C 570.980469 555.648438 563.976562 567.003906 554.890625 578.554688 C 545.808594 590.101562 540.113281 598.300781 537.808594 603.148438 C 535.5 608 533.929688 611.980469 533.089844 615.085938 C 532.25 618.195312 531.730469 621.894531 531.535156 626.183594 C 531.339844 630.472656 531.949219 635.210938 533.355469 640.390625 C 534.765625 645.574219 536.792969 650.15625 539.433594 654.136719 C 542.074219 658.117188 545.234375 661.488281 548.921875 664.253906 C 552.605469 667.015625 554.992188 670.695312 556.082031 675.285156 C 557.167969 679.875 558.796875 683.671875 560.964844 686.675781 C 563.128906 689.679688 565.902344 692.171875 569.28125 694.160156 C 572.664062 696.148438 576.125 697.207031 579.671875 697.335938 C 583.21875 697.464844 586.242188 697.171875 588.738281 696.460938 C 591.238281 695.746094 594.382812 694.0625 598.179688 691.402344 C 600.078125 690.074219 601.976562 688.746094 603.871094 687.417969 C 604.765625 692.085938 605.660156 696.753906 606.554688 701.421875 C 608.339844 710.757812 609.734375 716.125 610.734375 717.523438 C 611.730469 718.925781 612.882812 719.683594 614.183594 719.800781 C 615.480469 719.914062 620.832031 718.707031 630.234375 716.175781 C 639.636719 713.644531 650.523438 711.246094 662.898438 708.984375 C 675.273438 706.71875 689.285156 704.972656 704.9375 703.75 C 720.589844 702.527344 732.25 701.976562 739.914062 702.097656 C 747.582031 702.222656 755.414062 702.546875 763.421875 703.074219 C 771.425781 703.601562 781.714844 704.800781 794.277344 706.671875 C 806.84375 708.542969 817.167969 710.402344 825.242188 712.246094 C 833.3125 714.09375 843.367188 716.863281 855.398438 720.558594 C 861.410156 722.40625 867.421875 724.253906 873.441406 726.101562 C 874.472656 722.917969 875.503906 719.734375 876.542969 716.550781 C 878.605469 710.179688 880.058594 704.410156 880.894531 699.242188 C 881.3125 696.65625 881.730469 694.074219 882.148438 691.488281 C 883.121094 692.136719 884.089844 692.785156 885.066406 693.433594 C 887.007812 694.730469 889.34375 695.875 892.058594 696.867188 C 894.78125 697.859375 898.183594 698.539062 902.273438 698.90625 C 906.359375 699.269531 911.019531 698.46875 916.25 696.5 C 921.480469 694.535156 925.894531 692.308594 929.488281 689.820312 C 933.082031 687.332031 935.972656 684.3125 938.160156 680.761719 C 940.347656 677.210938 941.773438 673.875 942.425781 670.75 C 943.078125 667.625 944.585938 665.417969 946.949219 664.132812 C 949.308594 662.84375 951.902344 660.082031 954.710938 655.835938 C 957.527344 651.59375 959.429688 648.113281 960.421875 645.390625 C 961.410156 642.671875 962.101562 639.175781 962.484375 634.902344 C 962.863281 630.628906 962.753906 626.59375 962.15625 622.796875 C 961.558594 618.996094 960.5 615.15625 958.972656 611.277344 C 957.445312 607.394531 954.601562 601.523438 950.433594 593.660156 C 946.265625 585.796875 943.09375 580.457031 940.910156 577.640625 C 938.730469 574.824219 937.507812 570.6875 937.246094 565.234375 C 936.980469 559.78125 936.425781 555.519531 935.578125 552.445312 C 934.726562 549.375 933.429688 546.074219 931.6875 542.546875 C 929.941406 539.023438 927.03125 534.921875 922.953125 530.25 C 918.875 525.582031 914.445312 521.722656 909.664062 518.671875 C 904.878906 515.625 899.78125 512.921875 894.378906 510.566406 C 888.96875 508.210938 880.808594 505.234375 869.894531 501.636719 C 858.980469 498.039062 850.386719 494.652344 844.117188 491.46875 C 837.847656 488.289062 832.070312 484.871094 826.777344 481.214844 C 821.488281 477.558594 816.507812 474.585938 811.84375 472.296875 C 807.179688 470.007812 802.847656 468.214844 798.839844 466.921875 C 794.835938 465.628906 790.15625 464.554688 784.800781 463.699219 C 779.445312 462.847656 772.535156 462.699219 764.058594 463.253906 Z M 780.558594 470.34375 C 785.742188 470.992188 790.792969 472.101562 795.710938 473.664062 C 800.628906 475.226562 805.144531 477.035156 809.269531 479.089844 C 813.394531 481.140625 818.457031 484.214844 824.457031 488.308594 C 830.460938 492.402344 835.96875 495.703125 840.988281 498.210938 C 846.003906 500.71875 850.59375 502.816406 854.753906 504.5 C 858.910156 506.179688 865.277344 508.246094 873.859375 510.699219 C 882.441406 513.152344 889.167969 515.4375 894.035156 517.558594 C 898.898438 519.675781 903.542969 522.246094 907.949219 525.261719 C 912.363281 528.277344 915.414062 530.796875 917.109375 532.820312 C 918.800781 534.84375 920.839844 538.210938 923.230469 542.917969 C 925.613281 547.625 927.515625 552.570312 928.921875 557.75 C 930.332031 562.933594 931 568.046875 930.925781 573.097656 C 930.847656 578.144531 930.324219 581.9375 929.34375 584.472656 C 928.371094 587.007812 927.808594 589.109375 927.660156 590.78125 C 927.511719 592.453125 927.988281 593.433594 929.082031 593.71875 C 930.179688 594.003906 931.03125 593.894531 931.640625 593.386719 C 932.25 592.878906 933.289062 590.628906 934.769531 586.644531 C 935.511719 584.648438 936.25 582.65625 936.988281 580.660156 C 937.167969 580.769531 937.34375 580.878906 937.523438 580.988281 C 937.878906 581.207031 940.570312 586.691406 945.601562 597.441406 C 950.632812 608.191406 953.65625 616.324219 954.660156 621.84375 C 955.664062 627.363281 956.015625 631.796875 955.714844 635.140625 C 955.417969 638.484375 954.664062 641.695312 953.453125 644.769531 C 952.242188 647.84375 950.363281 651.046875 947.820312 654.378906 C 946.550781 656.042969 945.273438 657.710938 944.003906 659.375 C 943.875 658.707031 943.75 658.042969 943.621094 657.375 C 943.367188 656.039062 942.789062 655.148438 941.894531 654.691406 C 941.445312 654.464844 941 654.238281 940.546875 654.011719 C 940.09375 654.90625 939.640625 655.800781 939.1875 656.699219 C 938.277344 658.488281 937.234375 661.765625 936.0625 666.53125 C 934.886719 671.292969 933.042969 675.15625 930.53125 678.113281 C 928.019531 681.074219 924.894531 683.601562 921.148438 685.703125 C 917.402344 687.804688 914.1875 689.199219 911.503906 689.898438 C 908.820312 690.59375 905.519531 690.863281 901.597656 690.699219 C 897.683594 690.535156 894.253906 690.136719 891.316406 689.5 C 888.378906 688.863281 886.273438 688.300781 885.003906 687.8125 C 883.738281 687.324219 883.371094 685.136719 883.90625 681.253906 C 884.171875 679.3125 884.4375 677.367188 884.710938 675.425781 C 887.113281 675.734375 889.523438 676.042969 891.925781 676.351562 C 896.738281 676.96875 899.914062 677.066406 901.453125 676.640625 C 902.988281 676.214844 903.773438 675.816406 903.804688 675.445312 C 903.839844 675.074219 900.992188 674.445312 895.265625 673.5625 C 889.542969 672.675781 885.511719 671.660156 883.175781 670.515625 C 882.015625 669.941406 880.847656 669.371094 879.679688 668.796875 C 879.566406 669.066406 879.445312 669.339844 879.328125 669.609375 C 879.09375 670.148438 879.203125 671.003906 879.660156 672.167969 C 880.121094 673.332031 878.46875 681.328125 874.707031 696.160156 C 872.828125 703.578125 870.953125 710.992188 869.070312 718.410156 C 864.515625 716.972656 859.964844 715.535156 855.410156 714.101562 C 846.304688 711.226562 834.582031 708.308594 820.238281 705.339844 C 805.902344 702.375 789.160156 700.035156 770.027344 698.328125 C 750.894531 696.617188 734.839844 696.027344 721.871094 696.554688 C 708.902344 697.082031 696.644531 698.046875 685.097656 699.449219 C 673.550781 700.851562 662.144531 702.734375 650.886719 705.101562 C 639.628906 707.464844 631.289062 709.621094 625.871094 711.574219 C 620.453125 713.523438 617.464844 714.472656 616.910156 714.425781 C 616.351562 714.375 615.769531 713.574219 615.15625 712.019531 C 614.546875 710.46875 613.515625 705.226562 612.066406 696.296875 C 610.617188 687.367188 609.121094 680.023438 607.574219 674.265625 C 606.03125 668.511719 604.792969 665.589844 603.863281 665.507812 L 602.46875 665.382812 L 602.023438 670.398438 C 598.128906 669.957031 594.234375 669.515625 590.34375 669.074219 C 582.558594 668.191406 575.394531 666.617188 568.855469 664.347656 C 562.316406 662.078125 556.851562 659.34375 552.453125 656.140625 C 548.058594 652.941406 544.8125 649.464844 542.710938 645.722656 C 540.613281 641.976562 539.253906 638.296875 538.640625 634.683594 C 538.027344 631.070312 537.988281 627.320312 538.523438 623.4375 C 539.058594 619.550781 540.171875 615.4375 541.871094 611.097656 C 543.570312 606.753906 545.617188 602.722656 548.007812 599.003906 C 550.402344 595.285156 555.691406 588.457031 563.882812 578.511719 C 572.074219 568.570312 577.875 559.164062 581.289062 550.292969 C 584.703125 541.421875 587.539062 534.839844 589.796875 530.550781 C 592.050781 526.253906 595.066406 521.84375 598.84375 517.3125 C 602.617188 512.78125 606.125 509.160156 609.363281 506.453125 C 612.601562 503.746094 617.1875 500.601562 623.128906 497.011719 C 629.066406 493.421875 634.464844 490.625 639.324219 488.625 C 644.183594 486.625 649.207031 484.921875 654.386719 483.511719 C 659.570312 482.101562 667.84375 480.6875 679.203125 479.265625 C 690.566406 477.847656 699.609375 477.25 706.328125 477.476562 C 713.050781 477.703125 721.847656 476.710938 732.71875 474.496094 C 743.589844 472.285156 752.984375 470.878906 760.902344 470.273438 C 768.820312 469.667969 775.375 469.691406 780.558594 470.34375 Z M 678.015625 495.734375 C 676.277344 496.328125 675.1875 496.980469 674.75 497.6875 C 674.3125 498.398438 674.273438 499.894531 674.628906 502.171875 C 674.988281 504.453125 677.730469 508.347656 682.855469 513.863281 C 687.980469 519.375 691.585938 524.097656 693.667969 528.03125 C 695.75 531.960938 697.070312 533.953125 697.628906 534 C 698.1875 534.050781 698.589844 533.710938 698.84375 532.984375 C 699.09375 532.257812 698.695312 530.445312 697.644531 527.542969 C 696.59375 524.640625 694.476562 521.078125 691.292969 516.863281 C 688.113281 512.644531 685.398438 509.5 683.148438 507.425781 C 680.898438 505.355469 679.5625 503.550781 679.136719 502.011719 C 678.925781 501.246094 678.714844 500.476562 678.5 499.710938 C 679.449219 499.605469 680.394531 499.503906 681.339844 499.402344 C 683.230469 499.195312 685.246094 499.65625 687.394531 500.785156 C 689.539062 501.914062 691.839844 503.429688 694.289062 505.332031 C 696.742188 507.238281 698.6875 509.566406 700.128906 512.316406 C 701.566406 515.066406 702.136719 523.355469 701.839844 537.1875 C 701.539062 551.015625 701.746094 559.179688 702.460938 561.679688 C 702.816406 562.929688 703.171875 564.175781 703.53125 565.425781 C 704.109375 557.894531 704.6875 550.363281 705.265625 542.828125 C 706.425781 527.765625 706.757812 518.804688 706.261719 515.953125 C 705.769531 513.101562 705.039062 510.789062 704.074219 509.015625 C 703.109375 507.246094 701.585938 505.421875 699.507812 503.550781 C 697.425781 501.679688 694.78125 499.851562 691.570312 498.066406 C 688.359375 496.28125 685.730469 495.300781 683.6875 495.117188 C 681.644531 494.933594 679.753906 495.140625 678.015625 495.734375 Z M 778.316406 511.152344 C 776.59375 511.5625 775.023438 512.355469 773.609375 513.542969 C 772.191406 514.726562 771.015625 516.398438 770.074219 518.5625 C 769.128906 520.726562 768.542969 523.105469 768.308594 525.707031 C 768.078125 528.308594 768.214844 530.941406 768.730469 533.609375 C 769.238281 536.277344 770.339844 539.652344 772.039062 543.738281 C 772.882812 545.78125 773.730469 547.820312 774.582031 549.863281 C 774.78125 549.695312 774.984375 549.523438 775.183594 549.355469 C 775.589844 549.015625 775.292969 546.085938 774.285156 540.566406 C 773.28125 535.046875 772.917969 530.707031 773.203125 527.550781 C 773.484375 524.390625 774.292969 521.65625 775.621094 519.339844 C 776.953125 517.023438 778.179688 515.824219 779.3125 515.738281 C 780.441406 515.648438 782.21875 516.746094 784.636719 519.019531 C 787.054688 521.296875 789 524.652344 790.476562 529.09375 C 791.953125 533.53125 792.574219 540.234375 792.335938 549.203125 C 792.09375 558.167969 790.53125 568.328125 787.644531 579.679688 C 784.761719 591.03125 783.125 598.84375 782.746094 603.117188 C 782.363281 607.390625 782.773438 611.171875 783.976562 614.464844 C 785.179688 617.753906 786.550781 620.21875 788.09375 621.855469 C 789.632812 623.488281 791.929688 625.003906 794.988281 626.402344 C 798.046875 627.796875 801.535156 628.578125 805.457031 628.742188 C 809.371094 628.902344 813.15625 628.492188 816.800781 627.507812 C 820.445312 626.523438 823.296875 626.027344 825.359375 626.023438 C 827.417969 626.023438 831.035156 627.46875 836.207031 630.363281 C 841.378906 633.261719 845.730469 634.867188 849.257812 635.183594 C 852.789062 635.496094 854.753906 635.484375 855.160156 635.148438 C 855.5625 634.808594 855.707031 634.261719 855.585938 633.5 C 855.472656 632.742188 853.574219 631.917969 849.910156 631.027344 C 846.246094 630.136719 843.003906 628.726562 840.175781 626.789062 C 837.355469 624.847656 834.765625 623.402344 832.421875 622.441406 C 830.070312 621.484375 827.78125 620.90625 825.550781 620.707031 C 823.324219 620.507812 820.863281 620.753906 818.179688 621.453125 C 815.5 622.148438 812.003906 622.492188 807.699219 622.480469 C 803.390625 622.472656 800.242188 622.097656 798.246094 621.355469 C 796.257812 620.617188 794.390625 619.515625 792.644531 618.046875 C 790.902344 616.582031 789.574219 614.683594 788.660156 612.355469 C 787.742188 610.027344 787.445312 607.097656 787.761719 603.566406 C 788.078125 600.035156 789.753906 592.789062 792.789062 581.824219 C 795.832031 570.863281 797.660156 560.820312 798.292969 551.699219 C 798.917969 542.578125 798.832031 536.207031 798.035156 532.578125 C 797.230469 528.945312 796.289062 525.867188 795.203125 523.335938 C 794.121094 520.804688 792.285156 518.300781 789.699219 515.820312 C 787.109375 513.34375 784.996094 511.84375 783.359375 511.324219 C 781.71875 510.800781 780.042969 510.746094 778.316406 511.152344 Z M 899.816406 553.464844 C 898.464844 553.90625 896.945312 555.175781 895.261719 557.273438 C 893.574219 559.367188 891.5 563.769531 889.027344 570.480469 C 886.554688 577.1875 885.5625 580.9375 886.054688 581.730469 C 886.542969 582.523438 887.078125 582.851562 887.652344 582.714844 C 888.226562 582.578125 888.960938 581.707031 889.851562 580.101562 C 890.742188 578.496094 892.183594 574.972656 894.167969 569.535156 C 896.148438 564.09375 897.960938 560.601562 899.597656 559.0625 C 901.230469 557.523438 902.605469 556.804688 903.722656 556.902344 C 904.832031 557.003906 905.910156 557.566406 906.9375 558.597656 C 907.972656 559.625 908.753906 561.378906 909.277344 563.859375 C 909.804688 566.34375 910.039062 568.984375 909.972656 571.789062 C 909.945312 573.191406 909.910156 574.589844 909.878906 575.992188 C 910.28125 575.65625 910.691406 575.316406 911.09375 574.976562 C 911.902344 574.300781 912.332031 571.625 912.375 566.945312 C 912.414062 562.269531 911.757812 559.121094 910.410156 557.5 C 909.054688 555.882812 907.285156 554.695312 905.109375 553.9375 C 902.929688 553.179688 901.164062 553.023438 899.816406 553.464844 Z M 905.863281 583.21875 C 904.871094 585.9375 903.617188 588.449219 902.101562 590.746094 C 900.585938 593.046875 896.058594 597.605469 888.523438 604.421875 C 880.984375 611.238281 875.097656 617.359375 870.871094 622.789062 C 866.640625 628.214844 864.308594 632.3125 863.871094 635.082031 C 863.441406 637.855469 863.421875 640.097656 863.832031 641.820312 C 864.242188 643.542969 864.785156 644.808594 865.460938 645.617188 C 866.140625 646.425781 866.765625 646.765625 867.335938 646.628906 C 867.910156 646.492188 868.042969 645.007812 867.734375 642.167969 C 867.429688 639.332031 867.667969 636.640625 868.453125 634.085938 C 869.246094 631.539062 871.832031 627.742188 876.210938 622.703125 C 880.597656 617.664062 885.730469 612.597656 891.617188 607.507812 C 897.5 602.414062 901.617188 598.289062 903.957031 595.125 C 906.300781 591.964844 907.824219 589.574219 908.527344 587.949219 C 909.238281 586.328125 909.675781 584.589844 909.839844 582.730469 C 910.003906 580.871094 909.632812 579.808594 908.722656 579.539062 C 907.808594 579.273438 906.855469 580.496094 905.863281 583.21875 Z M 772.710938 586.492188 C 772.105469 587 771.082031 589.0625 769.632812 592.675781 C 768.1875 596.292969 766.828125 598.886719 765.566406 600.460938 C 764.300781 602.03125 762.457031 603.835938 760.027344 605.863281 C 757.601562 607.894531 755.609375 609.214844 754.054688 609.824219 C 752.503906 610.4375 750.390625 610.996094 747.726562 611.507812 C 745.058594 612.019531 742.136719 612.226562 738.960938 612.128906 C 735.789062 612.03125 732.664062 611.378906 729.585938 610.167969 C 726.511719 608.957031 723.046875 606.867188 719.191406 603.902344 C 717.265625 602.417969 715.339844 600.9375 713.410156 599.453125 C 713.292969 599.722656 713.175781 599.996094 713.058594 600.265625 C 712.820312 600.804688 713.609375 602.46875 715.421875 605.25 C 717.230469 608.035156 719.914062 610.519531 723.460938 612.710938 C 727.011719 614.898438 730.171875 616.210938 732.941406 616.648438 C 735.710938 617.082031 739.082031 617.101562 743.046875 616.707031 C 747.015625 616.3125 750.847656 615.34375 754.542969 613.800781 C 758.238281 612.257812 761.199219 610.558594 763.425781 608.695312 C 765.652344 606.835938 767.730469 604.492188 769.671875 601.671875 C 771.609375 598.847656 773.066406 596.167969 774.039062 593.632812 C 775.015625 591.097656 775.546875 589.367188 775.628906 588.4375 C 775.714844 587.511719 775.394531 586.824219 774.6875 586.386719 C 773.980469 585.949219 773.320312 585.984375 772.710938 586.492188 Z M 587.914062 589.367188 C 584.46875 590.183594 582.039062 591.183594 580.621094 592.367188 C 579.207031 593.550781 578.230469 595.054688 577.691406 596.882812 C 577.152344 598.707031 577.535156 600.707031 578.839844 602.882812 C 580.144531 605.058594 582.96875 608.027344 587.316406 611.785156 C 591.660156 615.542969 594.71875 617.96875 596.496094 619.066406 C 598.269531 620.160156 600.433594 621.101562 602.984375 621.890625 C 604.257812 622.285156 605.535156 622.683594 606.8125 623.078125 C 606.742188 622.789062 606.675781 622.503906 606.605469 622.214844 C 606.472656 621.640625 604.566406 619.878906 600.898438 616.929688 C 597.230469 613.980469 593.347656 610.265625 589.253906 605.777344 C 585.164062 601.292969 583.148438 598.679688 583.214844 597.9375 C 583.28125 597.191406 584.199219 596.339844 585.972656 595.375 C 587.742188 594.410156 589.929688 594.042969 592.53125 594.273438 C 595.132812 594.507812 597.226562 595.160156 598.816406 596.238281 C 600.402344 597.316406 602.042969 598.867188 603.734375 600.894531 C 605.429688 602.917969 607.390625 606.089844 609.628906 610.40625 C 611.863281 614.726562 614.234375 618.589844 616.738281 621.996094 C 619.242188 625.402344 621.722656 628.058594 624.171875 629.964844 C 626.625 631.867188 629.5625 633.535156 632.996094 634.964844 C 634.710938 635.679688 636.425781 636.394531 638.140625 637.109375 C 636.867188 638.777344 635.59375 640.441406 634.324219 642.105469 C 631.777344 645.4375 629.703125 647.6875 628.101562 648.855469 C 626.5 650.023438 624.15625 651.121094 621.066406 652.15625 C 617.976562 653.191406 615.300781 653.796875 613.039062 653.96875 C 610.777344 654.140625 608.183594 653.816406 605.261719 652.992188 C 602.339844 652.171875 598.476562 649.296875 593.671875 644.375 C 588.871094 639.449219 586.1875 636.964844 585.632812 636.914062 L 584.796875 636.839844 C 584.832031 637.5 584.867188 638.15625 584.898438 638.816406 C 584.96875 640.132812 585.402344 641.574219 586.199219 643.144531 C 586.996094 644.714844 588.914062 647.320312 591.960938 650.960938 C 593.484375 652.785156 595.007812 654.605469 596.527344 656.425781 C 595.167969 655.929688 593.808594 655.433594 592.449219 654.9375 C 589.726562 653.945312 585.367188 651.402344 579.367188 647.308594 C 573.367188 643.214844 569.285156 640.699219 567.121094 639.753906 C 564.957031 638.8125 562.574219 638.226562 559.972656 637.992188 C 557.375 637.761719 555.273438 638.230469 553.671875 639.398438 C 552.066406 640.5625 551.285156 641.992188 551.320312 643.679688 C 551.355469 645.371094 552.390625 647.429688 554.421875 649.855469 C 556.449219 652.285156 558.980469 654.382812 562.003906 656.152344 C 565.03125 657.917969 567.757812 658.820312 570.191406 658.847656 C 571.40625 658.863281 572.621094 658.878906 573.835938 658.894531 C 571.707031 657.582031 569.578125 656.265625 567.449219 654.953125 C 563.1875 652.324219 560.128906 649.898438 558.265625 647.671875 C 556.40625 645.445312 555.40625 644.046875 555.273438 643.472656 C 555.136719 642.898438 555.261719 642.535156 555.652344 642.382812 C 556.039062 642.230469 557.703125 642.472656 560.640625 643.109375 C 563.582031 643.746094 567.0625 645.648438 571.085938 648.816406 C 575.109375 651.984375 579.175781 654.6875 583.28125 656.929688 C 587.390625 659.167969 590.632812 660.582031 593.015625 661.167969 C 595.398438 661.757812 597.988281 662.082031 600.792969 662.144531 C 603.597656 662.207031 605.984375 661.671875 607.960938 660.539062 C 609.933594 659.402344 612.328125 658.773438 615.148438 658.652344 C 617.96875 658.527344 621.125 657.78125 624.621094 656.40625 C 628.113281 655.035156 631.292969 652.976562 634.160156 650.238281 C 637.023438 647.496094 639.054688 644.683594 640.25 641.792969 C 641.445312 638.902344 645.308594 637.5625 651.84375 637.773438 C 658.378906 637.980469 664.5 637.59375 670.207031 636.605469 C 675.914062 635.617188 681.289062 634.128906 686.335938 632.144531 C 691.378906 630.164062 696.273438 627.789062 701.015625 625.03125 C 705.753906 622.269531 708.742188 620.289062 709.972656 619.089844 C 711.203125 617.886719 711.851562 616.917969 711.917969 616.171875 L 712.015625 615.058594 L 710.625 614.933594 C 709.695312 614.851562 706.363281 616.519531 700.625 619.941406 C 694.890625 623.359375 689.332031 625.859375 683.945312 627.4375 C 678.5625 629.015625 673.96875 630.105469 670.171875 630.703125 C 666.375 631.300781 660.835938 631.460938 653.554688 631.183594 C 646.277344 630.910156 641.09375 630.257812 638 629.234375 C 634.910156 628.207031 632.308594 626.945312 630.191406 625.445312 C 628.082031 623.945312 626.09375 622.082031 624.230469 619.859375 C 622.371094 617.632812 620.09375 613.777344 617.402344 608.292969 C 614.707031 602.808594 612.253906 598.84375 610.035156 596.398438 C 607.820312 593.953125 605.546875 592.160156 603.214844 591.015625 C 600.882812 589.871094 598.609375 589.105469 596.398438 588.71875 C 594.183594 588.335938 591.355469 588.550781 587.914062 589.367188 Z M 930.105469 632.574219 C 927.390625 633.640625 921.972656 636.621094 913.859375 641.515625 C 905.742188 646.40625 901.761719 649.046875 901.914062 649.4375 C 902.066406 649.824219 903.402344 649.570312 905.914062 648.671875 C 908.433594 647.769531 913.324219 645.398438 920.597656 641.554688 C 927.867188 637.710938 932.167969 635.660156 933.503906 635.402344 C 934.167969 635.277344 934.835938 635.148438 935.507812 635.019531 L 935.285156 637.53125 C 935.132812 639.203125 934.402344 641.101562 933.085938 643.230469 C 931.773438 645.363281 928.84375 647.722656 924.308594 650.3125 C 919.769531 652.902344 914.277344 654.660156 907.828125 655.582031 C 901.378906 656.503906 896.480469 656.816406 893.136719 656.515625 C 889.792969 656.21875 885.746094 655.386719 881 654.027344 C 878.625 653.347656 876.253906 652.667969 873.878906 651.988281 C 873.746094 652.445312 873.613281 652.898438 873.476562 653.355469 C 873.207031 654.269531 874.238281 655.296875 876.570312 656.441406 C 878.902344 657.585938 883.308594 658.542969 889.796875 659.308594 C 896.28125 660.074219 901.605469 660.269531 905.757812 659.890625 C 909.910156 659.511719 913.238281 658.96875 915.730469 658.253906 C 918.230469 657.542969 921.539062 656.152344 925.65625 654.085938 C 929.773438 652.019531 932.742188 650.222656 934.5625 648.699219 C 936.386719 647.179688 937.730469 645.707031 938.609375 644.285156 C 939.484375 642.867188 939.945312 640.847656 939.992188 638.230469 C 940.039062 635.613281 939.722656 633.898438 939.046875 633.089844 C 938.371094 632.28125 937.390625 631.726562 936.105469 631.421875 C 934.820312 631.121094 932.820312 631.503906 930.105469 632.574219 Z M 559.824219 671.125 C 562.46875 671.921875 565.113281 672.722656 567.757812 673.519531 C 573.042969 675.113281 580.257812 676.132812 589.390625 676.574219 C 598.527344 677.015625 603.132812 677.894531 603.199219 679.210938 C 603.269531 680.53125 601.214844 682.59375 597.03125 685.402344 C 592.847656 688.210938 589.320312 689.957031 586.449219 690.636719 C 583.582031 691.316406 580.753906 691.535156 577.964844 691.285156 C 575.179688 691.035156 572.628906 690.246094 570.3125 688.914062 C 567.996094 687.585938 566.246094 686.210938 565.0625 684.792969 C 563.878906 683.378906 562.710938 680.746094 561.554688 676.898438 C 560.976562 674.972656 560.402344 673.050781 559.824219 671.125 Z M 559.824219 671.125 " fill-opacity="1" fill-rule="nonzero"/><g clip-path="url(#4e844f4d58)"><g clip-path="url(#21dcd54973)"><g clip-path="url(#56a7d1d906)"><path fill="#fffff7" d="M 478.207031 808.625 C 476.367188 809.546875 474.695312 810.371094 472.527344 809.699219 C 469.195312 808.652344 462.109375 804.40625 458.476562 800.007812 C 453.859375 794.4375 444.765625 776.175781 444.765625 776.175781 L 418.492188 722.941406 L 391.164062 673.355469 C 391.164062 673.355469 379.191406 652.078125 374.824219 644.320312 C 373.84375 642.574219 372.164062 641.328125 370.203125 640.894531 C 364.753906 639.671875 353.453125 636.761719 348.53125 632.699219 C 341.847656 627.183594 336.808594 617.328125 332.9375 609.261719 C 328.808594 600.652344 326 593.863281 322.984375 584.925781 C 320.191406 576.640625 317.195312 565.96875 318.164062 557.933594 C 318.835938 552.3125 321.046875 547.492188 326.773438 543.863281 C 332.808594 540.761719 338.085938 541.304688 343.273438 543.574219 C 350.683594 546.816406 358.363281 554.804688 364.089844 561.414062 C 370.265625 568.542969 374.695312 574.410156 380.023438 582.332031 C 385.011719 589.757812 390.949219 599.097656 392.316406 607.65625 C 393.320312 613.960938 390.101562 625.175781 388.394531 630.496094 C 387.777344 632.398438 387.996094 634.480469 389.003906 636.210938 C 393.476562 643.90625 405.746094 665.015625 405.746094 665.015625 L 434.628906 713.710938 L 467.195312 763.347656 C 467.195312 763.347656 478.324219 780.445312 480.789062 787.246094 C 482.734375 792.609375 482.796875 800.871094 482.015625 804.273438 C 481.496094 806.484375 479.9375 807.503906 478.207031 808.625 C 476.609375 809.625 479.878906 807.753906 478.207031 808.625 Z M 478.207031 808.625 " fill-opacity="1" fill-rule="evenodd"/></g></g></g><g clip-path="url(#280026b1bc)"><g clip-path="url(#763084b6a3)"><g clip-path="url(#c87b2bde9e)"><path fill="#fffff7" d="M 1008.648438 815.882812 C 1010.402344 816.753906 1011.992188 817.535156 1014.054688 816.886719 C 1017.222656 815.878906 1023.953125 811.816406 1027.402344 807.621094 C 1031.777344 802.304688 1040.378906 784.898438 1040.378906 784.898438 L 1065.226562 734.152344 L 1091.085938 686.875 C 1091.085938 686.875 1101.839844 667.617188 1106.214844 659.789062 C 1107.351562 657.753906 1109.292969 656.296875 1111.558594 655.773438 C 1116.941406 654.519531 1127.046875 651.78125 1131.542969 648.050781 C 1137.886719 642.78125 1146.101562 624.925781 1146.101562 624.925781 L 1170.675781 577.832031 C 1171.589844 574.769531 1167.394531 571.894531 1165.324219 574.707031 L 1144.59375 607.359375 L 1132.601562 624.433594 C 1130.4375 627.4375 1126.140625 624.734375 1127.332031 621.628906 C 1127.332031 621.628906 1149.054688 576.964844 1153.5 567.824219 C 1153.976562 566.835938 1153.835938 565.660156 1153.136719 564.816406 C 1152.390625 563.921875 1151.351562 563.332031 1150.207031 563.152344 C 1149.121094 562.980469 1148.039062 563.460938 1147.433594 564.378906 C 1141.863281 572.882812 1114.640625 614.421875 1114.640625 614.421875 C 1112.582031 617.035156 1108.058594 614.730469 1109.527344 611.335938 L 1118.046875 592.285156 L 1135.464844 557.753906 C 1136.816406 554.53125 1132.199219 552.40625 1130.039062 554.757812 L 1102.1875 599.992188 C 1102.1875 599.992188 1091.066406 616.199219 1089.792969 624.34375 C 1088.894531 630.117188 1091.71875 640.199219 1093.402344 645.460938 C 1094.113281 647.675781 1093.855469 650.089844 1092.691406 652.109375 C 1088.207031 659.878906 1077.183594 678.980469 1077.183594 678.980469 L 1049.835938 725.414062 L 1018.992188 772.753906 C 1018.992188 772.753906 1008.449219 789.058594 1006.125 795.542969 C 1004.289062 800.652344 1004.253906 808.515625 1005.007812 811.753906 C 1005.507812 813.851562 1006.996094 814.820312 1008.648438 815.882812 C 1010.167969 816.828125 1007.050781 815.058594 1008.648438 815.882812 Z M 1008.648438 815.882812 " fill-opacity="1" fill-rule="evenodd"/></g></g></g><g transform="matrix(1, 0, 0, 1, 360, 759)"><g clip-path="url(#06998cb572)"><g fill="#fffff7" fill-opacity="1"><g transform="translate(64.02426, 235.176075)"><g><path d="M -37.28125 -99.546875 L 33.765625 -133.328125 L 48.0625 -103.265625 L 12.546875 -86.375 L 17.75 -75.453125 L 46.4375 -89.09375 L 59.421875 -61.765625 L 30.734375 -48.125 L 43.734375 -20.796875 L 8.203125 -3.90625 Z M -37.28125 -99.546875 "/></g></g></g><g fill="#fffff7" fill-opacity="1"><g transform="translate(153.168876, 192.336743)"><g><path d="M 51.984375 -124.75 C 52.003906 -124.65625 52.863281 -123.273438 54.5625 -120.609375 C 56.257812 -117.953125 58.5 -114.394531 61.28125 -109.9375 C 64.0625 -105.476562 67.175781 -100.484375 70.625 -94.953125 C 74.082031 -89.429688 77.664062 -83.710938 81.375 -77.796875 C 85.09375 -71.890625 88.703125 -66.175781 92.203125 -60.65625 C 95.703125 -55.144531 98.832031 -50.1875 101.59375 -45.78125 C 104.363281 -41.375 106.5625 -37.851562 108.1875 -35.21875 C 109.820312 -32.59375 110.640625 -31.28125 110.640625 -31.28125 L 68.421875 -19.34375 L 61.40625 -33.078125 L 42.484375 -27.71875 L 43.671875 -12.34375 L 1.453125 -0.40625 L 2.484375 -110.765625 Z M 40.25 -52.265625 L 50.453125 -55.15625 L 37.9375 -79.90625 Z M 40.25 -52.265625 "/></g></g></g><g fill="#fffff7" fill-opacity="1"><g transform="translate(272.38901, 159.112849)"><g><path d="M 57.25 -40.625 C 60.664062 -40.914062 63.421875 -42.390625 65.515625 -45.046875 C 67.617188 -47.703125 68.492188 -51.085938 68.140625 -55.203125 L 63.28125 -111.734375 L 102.46875 -115.109375 L 107.328125 -58.578125 C 108.191406 -48.535156 106.769531 -39.476562 103.0625 -31.40625 C 99.351562 -23.34375 93.835938 -16.796875 86.515625 -11.765625 C 79.203125 -6.742188 70.523438 -3.800781 60.484375 -2.9375 C 50.429688 -2.070312 41.375 -3.488281 33.3125 -7.1875 C 25.25 -10.894531 18.703125 -16.40625 13.671875 -23.71875 C 8.640625 -31.039062 5.691406 -39.722656 4.828125 -49.765625 L -0.03125 -106.296875 L 39.171875 -109.65625 L 44.03125 -53.125 C 44.382812 -49.007812 45.820312 -45.820312 48.34375 -43.5625 C 50.863281 -41.3125 53.832031 -40.332031 57.25 -40.625 Z M 57.25 -40.625 "/></g></g></g><g fill="#fffff7" fill-opacity="1"><g transform="translate(400.373749, 149.220317)"><g><path d="M 69.734375 -27.921875 C 70.535156 -27.835938 71.234375 -27.765625 71.828125 -27.703125 C 72.429688 -27.648438 72.734375 -27.625 72.734375 -27.625 L 74.5625 -45.6875 L 110.703125 -42.03125 L 106.96875 -5.15625 C 106.96875 -5.15625 106.019531 -4.335938 104.125 -2.703125 C 102.238281 -1.066406 99.367188 0.769531 95.515625 2.8125 C 91.660156 4.863281 86.90625 6.515625 81.25 7.765625 C 75.59375 9.015625 69.003906 9.257812 61.484375 8.5 C 53.554688 7.695312 46.375 5.550781 39.9375 2.0625 C 33.5 -1.425781 27.992188 -5.910156 23.421875 -11.390625 C 18.859375 -16.867188 15.507812 -23.085938 13.375 -30.046875 C 11.238281 -37.003906 10.5625 -44.347656 11.34375 -52.078125 C 12.125 -59.804688 14.257812 -66.859375 17.75 -73.234375 C 21.238281 -79.617188 25.765625 -85.039062 31.328125 -89.5 C 36.898438 -93.96875 43.191406 -97.265625 50.203125 -99.390625 C 57.210938 -101.515625 64.679688 -102.175781 72.609375 -101.375 C 79.734375 -100.65625 85.867188 -99.195312 91.015625 -97 C 96.171875 -94.8125 100.367188 -92.441406 103.609375 -89.890625 C 106.847656 -87.335938 109.234375 -85.144531 110.765625 -83.3125 C 112.304688 -81.476562 113.078125 -80.5625 113.078125 -80.5625 L 92.109375 -53.796875 C 92.109375 -53.796875 91.28125 -54.585938 89.625 -56.171875 C 87.96875 -57.765625 85.722656 -59.382812 82.890625 -61.03125 C 80.066406 -62.6875 76.898438 -63.691406 73.390625 -64.046875 C 68.171875 -64.578125 63.6875 -63.332031 59.9375 -60.3125 C 56.1875 -57.289062 54.039062 -53.125 53.5 -47.8125 C 52.96875 -42.59375 54.234375 -38.101562 57.296875 -34.34375 C 60.367188 -30.59375 64.515625 -28.453125 69.734375 -27.921875 Z M 69.734375 -27.921875 "/></g></g></g><g fill="#fffff7" fill-opacity="1"><g transform="translate(519.501939, 162.533341)"><g><path d="M 56.796875 -23.46875 L 54.765625 -16.1875 L 98.46875 -4.015625 L 90.359375 25.140625 L 8.75 2.4375 L 37.125 -99.59375 L 115.828125 -77.703125 L 107.71875 -48.546875 L 66.921875 -59.90625 L 64.890625 -52.625 L 102.78125 -42.078125 L 94.6875 -12.921875 Z M 56.796875 -23.46875 "/></g></g></g><g fill="#fffff7" fill-opacity="1"><g transform="translate(622.023687, 191.558359)"><g><path d="M 47.40625 -94.75 L 135.203125 -53.921875 L 120.53125 -22.375 L 94.46875 -34.5 L 64.484375 29.984375 L 28.796875 13.390625 L 58.78125 -51.09375 L 32.734375 -63.203125 Z M 47.40625 -94.75 "/></g></g></g></g></g><g transform="matrix(1, 0, 0, 1, 498, 1069)"><g clip-path="url(#1a60aadbd2)"><g fill="#ffffff" fill-opacity="1"><g transform="translate(9.853026, 55.297167)"><g><path d="M 61.4375 -24.53125 L 79.359375 -14.125 L 52.453125 -4.96875 L 53.578125 31.078125 L 36.5 21.171875 L 36.71875 -0.734375 L 25.140625 1.125 L 19.296875 11.1875 L 4.84375 2.8125 L 30.953125 -42.203125 L 45.40625 -33.828125 L 34.25 -14.59375 Z M 61.4375 -24.53125 "/></g></g></g><g fill="#ffffff" fill-opacity="1"><g transform="translate(83.304049, 94.544474)"><g><path d="M 5.9375 2.296875 L 24.71875 -46.21875 L 40.28125 -40.1875 L 21.5 8.328125 Z M 5.9375 2.296875 "/></g></g></g><g fill="#ffffff" fill-opacity="1"><g transform="translate(129.770563, 111.941148)"><g><path d="M 43.234375 -29.875 L 34.65625 7.875 L 18.359375 4.171875 L 26.9375 -33.578125 L 10.265625 -37.359375 L 13.21875 -50.34375 L 62.78125 -39.078125 L 59.828125 -26.09375 Z M 43.234375 -29.875 "/></g></g></g><g fill="#ffffff" fill-opacity="1"><g transform="translate(203.79966, 127.013707)"><g><path d="M 32.5625 -51.625 C 40.269531 -51.3125 46.285156 -49.132812 50.609375 -45.09375 C 54.941406 -41.050781 56.957031 -35.453125 56.65625 -28.296875 L 40.703125 -28.953125 C 40.828125 -31.984375 40.132812 -34.410156 38.625 -36.234375 C 37.113281 -38.066406 34.894531 -39.046875 31.96875 -39.171875 C 28.601562 -39.304688 26.082031 -38.347656 24.40625 -36.296875 C 22.726562 -34.253906 21.8125 -31.34375 21.65625 -27.5625 L 21.46875 -22.734375 C 21.3125 -19.003906 21.984375 -16.035156 23.484375 -13.828125 C 24.984375 -11.617188 27.363281 -10.445312 30.625 -10.3125 C 33.851562 -10.175781 36.332031 -10.90625 38.0625 -12.5 C 39.789062 -14.09375 40.71875 -16.398438 40.84375 -19.421875 L 56.265625 -18.78125 C 55.972656 -11.675781 53.566406 -6.328125 49.046875 -2.734375 C 44.535156 0.859375 38.300781 2.492188 30.34375 2.171875 C 21.476562 1.796875 14.859375 -0.75 10.484375 -5.46875 C 6.117188 -10.1875 4.117188 -16.984375 4.484375 -25.859375 C 4.847656 -34.722656 7.398438 -41.328125 12.140625 -45.671875 C 16.890625 -50.015625 23.695312 -52 32.5625 -51.625 Z M 32.5625 -51.625 "/></g></g></g><g fill="#ffffff" fill-opacity="1"><g transform="translate(283.805104, 128.484766)"><g><path d="M 40.21875 -6.125 L 37.25 -25.640625 L 19.09375 -22.875 L 22.0625 -3.359375 L 5.53125 -0.84375 L -2.296875 -52.28125 L 14.234375 -54.796875 L 17.09375 -36.03125 L 35.25 -38.796875 L 32.390625 -57.5625 L 48.921875 -60.078125 L 56.75 -8.640625 Z M 40.21875 -6.125 "/></g></g></g><g fill="#ffffff" fill-opacity="1"><g transform="translate(366.472122, 113.511908)"><g><path d="M -11.984375 -50.9375 L 30.453125 -65.875 L 34.59375 -54.109375 L 7.921875 -44.71875 L 10.296875 -37.953125 L 33.125 -45.984375 L 37.09375 -34.703125 L 14.265625 -26.671875 L 16.90625 -19.1875 L 44.09375 -28.75 L 48.234375 -16.96875 L 5.28125 -1.859375 Z M -11.984375 -50.9375 "/></g></g></g><g fill="#ffffff" fill-opacity="1"><g transform="translate(437.32042, 86.90111)"><g><path d="M 37.015625 -21.46875 L 5.453125 -32.375 L 18.125 -10.515625 L 4.84375 -2.8125 L -21.265625 -47.828125 L -8.640625 -55.140625 L 23.140625 -43.921875 L 10.265625 -66.109375 L 23.546875 -73.8125 L 49.65625 -28.796875 Z M 37.015625 -21.46875 "/></g></g></g></g></g><g transform="matrix(1, 0, 0, 1, 434, 306)"><g clip-path="url(#52a6241190)"><g fill="#cd2e2e" fill-opacity="1"><g transform="translate(27.342809, 161.72272)"><g><path d="M 16.109375 -15.6875 L 12.390625 -17.75 L 5.140625 -10.6875 L 7.109375 -6.921875 L 0.296875 -0.296875 L -12.296875 -28.375 L -4.5625 -35.90625 L 23.15625 -22.53125 Z M 2 -16.671875 L 6.484375 -21.046875 L -2.859375 -26.296875 L -2.96875 -26.1875 Z M 2 -16.671875 "/></g></g></g><g fill="#cd2e2e" fill-opacity="1"><g transform="translate(55.312732, 134.851109)"><g><path d="M 17.75 -28.953125 C 20.207031 -25.859375 21.101562 -22.722656 20.4375 -19.546875 C 19.769531 -16.367188 17.632812 -13.351562 14.03125 -10.5 C 10.4375 -7.644531 7.015625 -6.25 3.765625 -6.3125 C 0.515625 -6.382812 -2.335938 -7.96875 -4.796875 -11.0625 L -15.53125 -24.578125 L -8.265625 -30.34375 L 2.390625 -16.921875 C 3.398438 -15.648438 4.546875 -14.90625 5.828125 -14.6875 C 7.117188 -14.46875 8.414062 -14.875 9.71875 -15.90625 C 11 -16.925781 11.679688 -18.09375 11.765625 -19.40625 C 11.847656 -20.726562 11.394531 -22.015625 10.40625 -23.265625 L -0.25 -36.6875 L 7.015625 -42.46875 Z M 17.75 -28.953125 "/></g></g></g><g fill="#cd2e2e" fill-opacity="1"><g transform="translate(87.78045, 109.611505)"><g><path d="M 4.9375 -28.78125 L 16.59375 -10.703125 L 8.796875 -5.671875 L -2.859375 -23.75 L -10.84375 -18.609375 L -14.84375 -24.828125 L 8.890625 -40.125 L 12.890625 -33.90625 Z M 4.9375 -28.78125 "/></g></g></g><g fill="#cd2e2e" fill-opacity="1"><g transform="translate(118.536005, 90.01657)"><g><path d="M 20.109375 -10.328125 L 15.09375 -20.078125 L 6 -15.40625 L 11.015625 -5.65625 L 2.765625 -1.421875 L -10.4375 -27.140625 L -2.1875 -31.375 L 2.625 -21.984375 L 11.71875 -26.65625 L 6.90625 -36.046875 L 15.171875 -40.28125 L 28.375 -14.5625 Z M 20.109375 -10.328125 "/></g></g></g><g fill="#cd2e2e" fill-opacity="1"><g transform="translate(155.304873, 71.59878)"><g><path d="M -7.734375 -28.03125 L 15.515625 -37.21875 L 18.0625 -30.765625 L 3.453125 -24.984375 L 4.921875 -21.28125 L 17.421875 -26.234375 L 19.859375 -20.046875 L 7.359375 -15.09375 L 8.984375 -11 L 23.875 -16.890625 L 26.421875 -10.4375 L 2.890625 -1.140625 Z M -7.734375 -28.03125 "/></g></g></g><g fill="#cd2e2e" fill-opacity="1"><g transform="translate(189.294716, 58.377967)"><g><path d="M 22.875 -6.53125 L 7.34375 -16.6875 L 11.1875 -3.1875 L 2.984375 -0.859375 L -4.953125 -28.65625 L 2.84375 -30.875 L 18.453125 -20.5 L 14.53125 -34.203125 L 22.734375 -36.546875 L 30.671875 -8.75 Z M 22.875 -6.53125 "/></g></g></g><g fill="#cd2e2e" fill-opacity="1"><g transform="translate(228.948897, 47.489162)"><g><path d="M 15.59375 -24.703125 L 19.4375 -3.53125 L 10.296875 -1.875 L 6.453125 -23.046875 L -2.890625 -21.34375 L -4.21875 -28.609375 L 23.5625 -33.65625 L 24.890625 -26.390625 Z M 15.59375 -24.703125 "/></g></g></g><g fill="#cd2e2e" fill-opacity="1"><g transform="translate(265.178783, 41.417157)"><g><path d="M 3.515625 -0.375 L 0.5 -29.125 L 9.734375 -30.09375 L 12.75 -1.34375 Z M 3.515625 -0.375 "/></g></g></g><g fill="#cd2e2e" fill-opacity="1"><g transform="translate(287.776367, 38.978394)"><g><path d="M 16.125 -29.828125 C 20.394531 -29.941406 23.800781 -28.960938 26.34375 -26.890625 C 28.894531 -24.816406 30.222656 -21.796875 30.328125 -17.828125 L 21.484375 -17.59375 C 21.441406 -19.269531 20.960938 -20.582031 20.046875 -21.53125 C 19.140625 -22.488281 17.875 -22.945312 16.25 -22.90625 C 14.375 -22.863281 13.007812 -22.242188 12.15625 -21.046875 C 11.3125 -19.847656 10.914062 -18.195312 10.96875 -16.09375 L 11.046875 -13.40625 C 11.097656 -11.332031 11.578125 -9.710938 12.484375 -8.546875 C 13.398438 -7.378906 14.769531 -6.816406 16.59375 -6.859375 C 18.382812 -6.910156 19.726562 -7.410156 20.625 -8.359375 C 21.53125 -9.304688 21.957031 -10.617188 21.90625 -12.296875 L 30.46875 -12.53125 C 30.570312 -8.582031 29.441406 -5.523438 27.078125 -3.359375 C 24.710938 -1.203125 21.320312 -0.0625 16.90625 0.0625 C 11.976562 0.1875 8.210938 -0.972656 5.609375 -3.421875 C 3.003906 -5.878906 1.640625 -9.570312 1.515625 -14.5 C 1.378906 -19.425781 2.546875 -23.179688 5.015625 -25.765625 C 7.492188 -28.347656 11.195312 -29.703125 16.125 -29.828125 Z M 16.125 -29.828125 "/></g></g></g><g fill="#cd2e2e" fill-opacity="1"><g transform="translate(326.856666, 38.540629)"><g/></g></g><g fill="#cd2e2e" fill-opacity="1"><g transform="translate(347.250219, 39.431897)"><g><path d="M 20.40625 -27.078125 C 24.644531 -26.546875 27.867188 -25.066406 30.078125 -22.640625 C 32.296875 -20.210938 33.160156 -17.023438 32.671875 -13.078125 L 23.875 -14.171875 C 24.082031 -15.828125 23.804688 -17.195312 23.046875 -18.28125 C 22.285156 -19.375 21.101562 -20.019531 19.5 -20.21875 C 17.632812 -20.457031 16.191406 -20.046875 15.171875 -18.984375 C 14.148438 -17.929688 13.507812 -16.359375 13.25 -14.265625 L 12.921875 -11.609375 C 12.660156 -9.546875 12.894531 -7.867188 13.625 -6.578125 C 14.351562 -5.285156 15.625 -4.523438 17.4375 -4.296875 C 19.207031 -4.078125 20.609375 -4.367188 21.640625 -5.171875 C 22.671875 -5.972656 23.289062 -7.207031 23.5 -8.875 L 32.015625 -7.8125 C 31.523438 -3.894531 29.945312 -1.046875 27.28125 0.734375 C 24.613281 2.523438 21.085938 3.144531 16.703125 2.59375 C 11.804688 1.976562 8.253906 0.265625 6.046875 -2.546875 C 3.847656 -5.367188 3.054688 -9.222656 3.671875 -14.109375 C 4.273438 -18.992188 5.988281 -22.53125 8.8125 -24.71875 C 11.644531 -26.90625 15.507812 -27.691406 20.40625 -27.078125 Z M 20.40625 -27.078125 "/></g></g></g><g fill="#cd2e2e" fill-opacity="1"><g transform="translate(385.704945, 44.48877)"><g><path d="M 33.6875 -4.21875 C 32.800781 -0.375 30.910156 2.273438 28.015625 3.734375 C 25.117188 5.203125 21.4375 5.425781 16.96875 4.40625 C 12.488281 3.375 9.257812 1.566406 7.28125 -1.015625 C 5.300781 -3.597656 4.753906 -6.8125 5.640625 -10.65625 L 9.484375 -27.484375 L 18.53125 -25.40625 L 14.703125 -8.703125 C 14.335938 -7.117188 14.472656 -5.753906 15.109375 -4.609375 C 15.742188 -3.472656 16.867188 -2.722656 18.484375 -2.359375 C 20.085938 -1.992188 21.425781 -2.191406 22.5 -2.953125 C 23.582031 -3.710938 24.300781 -4.867188 24.65625 -6.421875 L 28.484375 -23.125 L 37.53125 -21.046875 Z M 33.6875 -4.21875 "/></g></g></g><g fill="#cd2e2e" fill-opacity="1"><g transform="translate(425.712672, 54.13721)"><g><path d="M 12.0625 -26.453125 L 20.875 -23.53125 L 14.09375 -3.109375 L 28.15625 1.5625 L 25.828125 8.578125 L 2.953125 0.984375 Z M 12.0625 -26.453125 "/></g></g></g><g fill="#cd2e2e" fill-opacity="1"><g transform="translate(458.271419, 65.422475)"><g><path d="M 3.265625 1.359375 L 14.34375 -25.34375 L 22.90625 -21.796875 L 11.828125 4.90625 Z M 3.265625 1.359375 "/></g></g></g><g fill="#cd2e2e" fill-opacity="1"><g transform="translate(479.284919, 74.001515)"><g><path d="M 21.15625 10.859375 L 16.765625 -7.171875 L 10.359375 5.3125 L 2.765625 1.421875 L 15.96875 -24.296875 L 23.1875 -20.59375 L 27.46875 -2.359375 L 33.984375 -15.046875 L 41.578125 -11.15625 L 28.375 14.5625 Z M 21.15625 10.859375 "/></g></g></g><g fill="#cd2e2e" fill-opacity="1"><g transform="translate(515.671712, 93.094626)"><g><path d="M 18.859375 12.234375 L 20.0625 8.15625 L 11.5625 2.640625 L 8.328125 5.40625 L 0.359375 0.234375 L 24.9375 -18.28125 L 34 -12.40625 L 27.109375 17.578125 Z M 16.6875 -1.734375 L 21.953125 1.671875 L 25.015625 -8.625 L 24.890625 -8.703125 Z M 16.6875 -1.734375 "/></g></g></g><g fill="#cd2e2e" fill-opacity="1"><g transform="translate(548.074021, 114.464618)"><g><path d="M 36.375 3.375 C 35.269531 4.757812 33.898438 5.710938 32.265625 6.234375 C 30.628906 6.753906 28.890625 6.710938 27.046875 6.109375 L 24.53125 19.578125 L 16.390625 13.078125 L 18.96875 1.640625 L 16.265625 -0.515625 L 9.6875 7.734375 L 2.4375 1.9375 L 20.46875 -20.65625 L 34.28125 -9.625 C 35.90625 -8.332031 37.039062 -6.914062 37.6875 -5.375 C 38.34375 -3.832031 38.535156 -2.296875 38.265625 -0.765625 C 38.003906 0.753906 37.375 2.132812 36.375 3.375 Z M 28.75 -2.203125 C 29.21875 -2.796875 29.410156 -3.445312 29.328125 -4.15625 C 29.253906 -4.863281 28.9375 -5.445312 28.375 -5.90625 L 23.609375 -9.703125 L 20.265625 -5.53125 L 25.03125 -1.734375 C 25.59375 -1.273438 26.234375 -1.09375 26.953125 -1.1875 C 27.679688 -1.28125 28.28125 -1.617188 28.75 -2.203125 Z M 28.75 -2.203125 "/></g></g></g><g fill="#cd2e2e" fill-opacity="1"><g transform="translate(578.223029, 138.914226)"><g><path d="M 15.078125 14.671875 L 8.4375 8.203125 L 16.265625 0.15625 L 20.375 -20.515625 L 28.015625 -13.0625 L 25.28125 -2.296875 L 25.40625 -2.171875 L 36.078125 -5.21875 L 43.34375 1.84375 L 22.90625 6.625 Z M 15.078125 14.671875 "/></g></g></g></g></g></svg>